<?xml version="1.0" encoding="UTF-8"?>
<svg xmlns="http://www.w3.org/2000/svg" viewBox="0 0 120 120"
     width="120" height="120" fill="none" stroke="#151515" stroke-width="2"
     stroke-linecap="round" stroke-linejoin="round">
  <!-- Load Balancer -->
  <polygon points="40,37 58,55 40,73 22,55" fill="#FFF8F0" stroke="#151515"/>
  <line x1="58" y1="48" x2="95" y2="35" stroke="#151515"/>
  <polyline points="91.1,39.0 95,35 89.5,34.3" stroke="#151515" fill="none"/>
  <line x1="58" y1="55" x2="95" y2="55" stroke="#151515"/>
  <polyline points="90.0,57.5 95,55 90.0,52.5" stroke="#151515" fill="none"/>
  <line x1="58" y1="62" x2="95" y2="75" stroke="#151515"/>
  <polyline points="89.5,75.7 95,75 91.1,71.0" stroke="#151515" fill="none"/>
  <line x1="35" y1="50" x2="45" y2="50" stroke="#EE0000" stroke-width="1.5"/>
  <line x1="35" y1="55" x2="45" y2="55" stroke="#EE0000" stroke-width="1.5"/>
  <line x1="35" y1="60" x2="45" y2="60" stroke="#EE0000" stroke-width="1.5"/>
  <line x1="5" y1="55" x2="22" y2="55" stroke="#151515"/>
  <polyline points="17.0,57.5 22,55 17.0,52.5" stroke="#151515" fill="none"/>
</svg>
