<?xml version="1.0" encoding="UTF-8"?>
<svg xmlns="http://www.w3.org/2000/svg" viewBox="0 0 120 120"
     width="120" height="120" fill="none" stroke="#151515" stroke-width="2"
     stroke-linecap="round" stroke-linejoin="round">
  <!-- Recipient List -->
  <polygon points="45,35 65,55 45,75 25,55" fill="#FFF8F0" stroke="#151515"/>
  <line x1="65" y1="45" x2="95" y2="30" stroke="#151515"/>
  <polyline points="91.6,34.5 95,30 89.4,30.0" stroke="#151515" fill="none"/>
  <line x1="65" y1="55" x2="95" y2="55" stroke="#151515"/>
  <polyline points="90.0,57.5 95,55 90.0,52.5" stroke="#151515" fill="none"/>
  <line x1="65" y1="65" x2="95" y2="80" stroke="#151515"/>
  <polyline points="89.4,80.0 95,80 91.6,75.5" stroke="#151515" fill="none"/>
  <line x1="38" y1="50" x2="52" y2="50" stroke="#EE0000" stroke-width="1.5"/>
  <line x1="38" y1="55" x2="52" y2="55" stroke="#EE0000" stroke-width="1.5"/>
  <line x1="38" y1="60" x2="52" y2="60" stroke="#EE0000" stroke-width="1.5"/>
  <line x1="5" y1="55" x2="25" y2="55" stroke="#151515"/>
  <polyline points="20.0,57.5 25,55 20.0,52.5" stroke="#151515" fill="none"/>
</svg>
