<svg xmlns="http://www.w3.org/2000/svg" viewBox="0 0 700 520" font-family="'Red Hat Text', system-ui, sans-serif" role="img">
<defs><marker id="a" viewBox="0 0 10 10" refX="8.5" refY="5" markerWidth="9" markerHeight="9" orient="auto-start-reverse"><path d="M0,0 L10,5 L0,10 z" fill="#555"/></marker><marker id="am" viewBox="0 0 10 10" refX="8.5" refY="5" markerWidth="9" markerHeight="9" orient="auto-start-reverse"><path d="M0,0 L10,5 L0,10 z" fill="#b8650a"/></marker></defs>
<rect x="20" y="10" width="660" height="500" rx="12" fill="#fafafa" stroke="#ddd"/>
<text x="32" y="30" font-size="12" font-weight="700" fill="#555555">Order Flow</text>
<rect x="260" y="30" width="180" height="40" rx="9" fill="#fff8ef" stroke="#e8870c" stroke-width="2"/>
<text x="350.0" y="55.5" font-size="13.5" font-weight="700" fill="#111111" text-anchor="middle">Customer</text>
<rect x="260" y="100" width="180" height="40" rx="9" fill="#ffffff" stroke="#111111" stroke-width="2"/>
<text x="350.0" y="125.5" font-size="13.5" font-weight="700" fill="#111111" text-anchor="middle">order-service</text>
<rect x="80" y="200" width="180" height="40" rx="9" fill="#ffffff" stroke="#111111" stroke-width="2"/>
<text x="170.0" y="225.5" font-size="13.5" font-weight="700" fill="#111111" text-anchor="middle">inventory-service</text>
<rect x="440" y="200" width="180" height="40" rx="9" fill="#eef4fb" stroke="#2f6db5" stroke-width="2"/>
<text x="530.0" y="225.5" font-size="13.5" font-weight="700" fill="#111111" text-anchor="middle">notification-service</text>
<rect x="80" y="300" width="180" height="40" rx="9" fill="#ffffff" stroke="#111111" stroke-width="2"/>
<text x="170.0" y="325.5" font-size="13.5" font-weight="700" fill="#111111" text-anchor="middle">payment-service</text>
<rect x="440" y="300" width="180" height="40" rx="9" fill="#eef4fb" stroke="#2f6db5" stroke-width="2"/>
<text x="530.0" y="325.5" font-size="13.5" font-weight="700" fill="#111111" text-anchor="middle">notification-service</text>
<rect x="80" y="400" width="180" height="40" rx="9" fill="#ffffff" stroke="#111111" stroke-width="2"/>
<text x="170.0" y="425.5" font-size="13.5" font-weight="700" fill="#111111" text-anchor="middle">shipping-service</text>
<rect x="260" y="460" width="180" height="40" rx="9" fill="#fff8ef" stroke="#e8870c" stroke-width="2"/>
<text x="350.0" y="478.0" font-size="13.5" font-weight="700" fill="#111111" text-anchor="middle">order-service</text>
<text x="350.0" y="495.0" font-size="11.5" fill="#555555" text-anchor="middle">status → SHIPPED</text>
<rect x="440" y="400" width="180" height="40" rx="9" fill="#eef4fb" stroke="#2f6db5" stroke-width="2"/>
<text x="530.0" y="425.5" font-size="13.5" font-weight="700" fill="#111111" text-anchor="middle">notification-service</text>
<path d="M350,70 L350,100" fill="none" stroke="#b8650a" stroke-width="2" marker-end="url(#am)"/>
<text x="356.0" y="79.0" font-size="11" fill="#ffffff" stroke="#ffffff" stroke-width="3" paint-order="stroke" text-anchor="middle">HTTP POST</text>
<text x="356.0" y="79.0" font-size="11" fill="#b8650a" text-anchor="middle">HTTP POST</text>
<path d="M300,140 L170,200" fill="none" stroke="#b8650a" stroke-width="2" marker-end="url(#am)"/>
<text x="241.0" y="164.0" font-size="11" fill="#ffffff" stroke="#ffffff" stroke-width="3" paint-order="stroke" text-anchor="middle">OrderPlaced</text>
<text x="241.0" y="164.0" font-size="11" fill="#b8650a" text-anchor="middle">OrderPlaced</text>
<path d="M400,140 L530,200" fill="none" stroke="#b8650a" stroke-width="2" marker-end="url(#am)"/>
<text x="471.0" y="164.0" font-size="11" fill="#ffffff" stroke="#ffffff" stroke-width="3" paint-order="stroke" text-anchor="middle">OrderPlaced</text>
<text x="471.0" y="164.0" font-size="11" fill="#b8650a" text-anchor="middle">OrderPlaced</text>
<path d="M170,240 L170,300" fill="none" stroke="#b8650a" stroke-width="2" marker-end="url(#am)"/>
<text x="176.0" y="264.0" font-size="11" fill="#ffffff" stroke="#ffffff" stroke-width="3" paint-order="stroke" text-anchor="middle">InventoryReserved</text>
<text x="176.0" y="264.0" font-size="11" fill="#b8650a" text-anchor="middle">InventoryReserved</text>
<path d="M170,340 L170,400" fill="none" stroke="#b8650a" stroke-width="2" marker-end="url(#am)"/>
<text x="176.0" y="364.0" font-size="11" fill="#ffffff" stroke="#ffffff" stroke-width="3" paint-order="stroke" text-anchor="middle">PaymentProcessed</text>
<text x="176.0" y="364.0" font-size="11" fill="#b8650a" text-anchor="middle">PaymentProcessed</text>
<path d="M260,320 L440,320" fill="none" stroke="#b8650a" stroke-width="2" marker-end="url(#am)"/>
<text x="356.0" y="314.0" font-size="11" fill="#ffffff" stroke="#ffffff" stroke-width="3" paint-order="stroke" text-anchor="middle">PaymentProcessed</text>
<text x="356.0" y="314.0" font-size="11" fill="#b8650a" text-anchor="middle">PaymentProcessed</text>
<path d="M170,440 L260,480" fill="none" stroke="#b8650a" stroke-width="2" marker-end="url(#am)"/>
<text x="221.0" y="454.0" font-size="11" fill="#ffffff" stroke="#ffffff" stroke-width="3" paint-order="stroke" text-anchor="middle">ShipmentScheduled</text>
<text x="221.0" y="454.0" font-size="11" fill="#b8650a" text-anchor="middle">ShipmentScheduled</text>
<path d="M260,420 L440,420" fill="none" stroke="#b8650a" stroke-width="2" marker-end="url(#am)"/>
<text x="356.0" y="414.0" font-size="11" fill="#ffffff" stroke="#ffffff" stroke-width="3" paint-order="stroke" text-anchor="middle">ShipmentScheduled</text>
<text x="356.0" y="414.0" font-size="11" fill="#b8650a" text-anchor="middle">ShipmentScheduled</text>
<text x="350" y="170" font-size="11" fill="#555555" text-anchor="middle">fan-out</text>
</svg>