<svg xmlns="http://www.w3.org/2000/svg" viewBox="0 0 900 340" font-family="'Red Hat Text', system-ui, sans-serif" role="img">
<defs><marker id="a" viewBox="0 0 10 10" refX="8.5" refY="5" markerWidth="9" markerHeight="9" orient="auto-start-reverse"><path d="M0,0 L10,5 L0,10 z" fill="#555"/></marker><marker id="am" viewBox="0 0 10 10" refX="8.5" refY="5" markerWidth="9" markerHeight="9" orient="auto-start-reverse"><path d="M0,0 L10,5 L0,10 z" fill="#b8650a"/></marker></defs>
<rect x="20" y="10" width="420" height="320" rx="12" fill="#fafafa" stroke="#ddd"/>
<text x="32" y="30" font-size="12" font-weight="700" fill="#888">Messaging &amp; Persistence</text>
<rect x="460" y="10" width="420" height="320" rx="12" fill="#f8f4ef" stroke="#ddd"/>
<text x="472" y="30" font-size="12" font-weight="700" fill="#888">Observability (LGTM)</text>
<rect x="40" y="50" width="120" height="55" rx="9" fill="#fff8ef" stroke="#e8870c" stroke-width="2"/>
<text x="100.0" y="75.5" font-size="13.5" font-weight="700" fill="#111111" text-anchor="middle">Kafka</text>
<text x="100.0" y="92.5" font-size="11.5" fill="#555555" text-anchor="middle">KRaft · 9092</text>
<rect x="180" y="50" width="120" height="55" rx="9" fill="#fff8ef" stroke="#e8870c" stroke-width="2"/>
<text x="240.0" y="75.5" font-size="13.5" font-weight="700" fill="#111111" text-anchor="middle">Pulsar</text>
<text x="240.0" y="92.5" font-size="11.5" fill="#555555" text-anchor="middle">standalone · 6650</text>
<rect x="320" y="50" width="100" height="55" rx="9" fill="#ffffff" stroke="#111111" stroke-width="2"/>
<text x="370.0" y="75.5" font-size="13.5" font-weight="700" fill="#111111" text-anchor="middle">Redis</text>
<text x="370.0" y="92.5" font-size="11.5" fill="#555555" text-anchor="middle">6379</text>
<rect x="40" y="130" width="120" height="55" rx="9" fill="#ffffff" stroke="#111111" stroke-width="2"/>
<text x="100.0" y="155.5" font-size="13.5" font-weight="700" fill="#111111" text-anchor="middle">PostgreSQL</text>
<text x="100.0" y="172.5" font-size="11.5" fill="#555555" text-anchor="middle">5 schemas · 5432</text>
<rect x="180" y="130" width="120" height="55" rx="9" fill="#eef4fb" stroke="#2f6db5" stroke-width="2"/>
<text x="240.0" y="155.5" font-size="13.5" font-weight="700" fill="#111111" text-anchor="middle">Apicurio</text>
<text x="240.0" y="172.5" font-size="11.5" fill="#555555" text-anchor="middle">registry · 8081</text>
<rect x="320" y="130" width="100" height="55" rx="9" fill="#f4f4f4" stroke="#888888" stroke-width="1.5"/>
<text x="370.0" y="155.5" font-size="13.5" font-weight="700" fill="#111111" text-anchor="middle">Kafka UI</text>
<text x="370.0" y="172.5" font-size="11.5" fill="#555555" text-anchor="middle">8090</text>
<rect x="480" y="50" width="110" height="55" rx="9" fill="#fff8ef" stroke="#e8870c" stroke-width="2"/>
<text x="535.0" y="75.5" font-size="13.5" font-weight="700" fill="#111111" text-anchor="middle">Grafana</text>
<text x="535.0" y="92.5" font-size="11.5" fill="#555555" text-anchor="middle">dashboards · 3000</text>
<rect x="610" y="50" width="110" height="55" rx="9" fill="#ffffff" stroke="#111111" stroke-width="2"/>
<text x="665.0" y="75.5" font-size="13.5" font-weight="700" fill="#111111" text-anchor="middle">Loki</text>
<text x="665.0" y="92.5" font-size="11.5" fill="#555555" text-anchor="middle">logs · 3100</text>
<rect x="740" y="50" width="120" height="55" rx="9" fill="#ffffff" stroke="#111111" stroke-width="2"/>
<text x="800.0" y="75.5" font-size="13.5" font-weight="700" fill="#111111" text-anchor="middle">Tempo</text>
<text x="800.0" y="92.5" font-size="11.5" fill="#555555" text-anchor="middle">traces · 3200</text>
<rect x="480" y="130" width="110" height="55" rx="9" fill="#ffffff" stroke="#111111" stroke-width="2"/>
<text x="535.0" y="155.5" font-size="13.5" font-weight="700" fill="#111111" text-anchor="middle">Mimir</text>
<text x="535.0" y="172.5" font-size="11.5" fill="#555555" text-anchor="middle">metrics · 9009</text>
<rect x="610" y="130" width="120" height="55" rx="9" fill="#eef4fb" stroke="#2f6db5" stroke-width="2"/>
<text x="670.0" y="155.5" font-size="13.5" font-weight="700" fill="#111111" text-anchor="middle">OTel Collector</text>
<text x="670.0" y="172.5" font-size="11.5" fill="#555555" text-anchor="middle">4317 / 4318</text>
<rect x="40" y="240" width="160" height="50" rx="9" fill="#111111" stroke="#111111" stroke-width="2"/>
<text x="120.0" y="263.0" font-size="13.5" font-weight="700" fill="#ffffff" text-anchor="middle">order-service</text>
<text x="120.0" y="280.0" font-size="11.5" fill="#dddddd" text-anchor="middle">Quarkus · 8080</text>
<rect x="220" y="240" width="160" height="50" rx="9" fill="#111111" stroke="#111111" stroke-width="2"/>
<text x="300.0" y="263.0" font-size="13.5" font-weight="700" fill="#ffffff" text-anchor="middle">inventory-service</text>
<text x="300.0" y="280.0" font-size="11.5" fill="#dddddd" text-anchor="middle">Quarkus · 8082</text>
<rect x="480" y="240" width="160" height="50" rx="9" fill="#111111" stroke="#111111" stroke-width="2"/>
<text x="560.0" y="263.0" font-size="13.5" font-weight="700" fill="#ffffff" text-anchor="middle">payment-service</text>
<text x="560.0" y="280.0" font-size="11.5" fill="#dddddd" text-anchor="middle">Quarkus · 8083</text>
<rect x="660" y="240" width="160" height="50" rx="9" fill="#111111" stroke="#111111" stroke-width="2"/>
<text x="740.0" y="263.0" font-size="13.5" font-weight="700" fill="#ffffff" text-anchor="middle">shipping-service</text>
<text x="740.0" y="280.0" font-size="11.5" fill="#dddddd" text-anchor="middle">Quarkus · 8084</text>
<path d="M120,210 L120,240" fill="none" stroke="#555" stroke-width="2" stroke-dasharray="5 4" marker-end="url(#a)"/>
<path d="M300,210 L300,240" fill="none" stroke="#555" stroke-width="2" stroke-dasharray="5 4" marker-end="url(#a)"/>
<path d="M560,210 L560,240" fill="none" stroke="#555" stroke-width="2" stroke-dasharray="5 4" marker-end="url(#a)"/>
<path d="M740,210 L740,240" fill="none" stroke="#555" stroke-width="2" stroke-dasharray="5 4" marker-end="url(#a)"/>
<text x="120" y="218" font-size="9" fill="#888" text-anchor="start">Camel routes</text>
<text x="300" y="218" font-size="9" fill="#888" text-anchor="start">Camel routes</text>
<text x="560" y="218" font-size="9" fill="#888" text-anchor="start">Camel routes</text>
<text x="740" y="218" font-size="9" fill="#888" text-anchor="start">Camel routes</text>
</svg>