<svg xmlns="http://www.w3.org/2000/svg" viewBox="0 0 900 280" font-family="'Red Hat Text', system-ui, sans-serif" role="img">
<defs><marker id="a" viewBox="0 0 10 10" refX="8.5" refY="5" markerWidth="9" markerHeight="9" orient="auto-start-reverse"><path d="M0,0 L10,5 L0,10 z" fill="#555"/></marker><marker id="am" viewBox="0 0 10 10" refX="8.5" refY="5" markerWidth="9" markerHeight="9" orient="auto-start-reverse"><path d="M0,0 L10,5 L0,10 z" fill="#b8650a"/></marker></defs>
<rect x="20" y="35" width="200" height="220" rx="12" fill="#fafafa" stroke="#ddd"/>
<text x="32" y="55" font-size="12" font-weight="700" fill="#555555">File Transfer</text>
<rect x="240" y="35" width="200" height="220" rx="12" fill="#fafafa" stroke="#ddd"/>
<text x="252" y="55" font-size="12" font-weight="700" fill="#555555">Shared Database</text>
<rect x="460" y="35" width="200" height="220" rx="12" fill="#fafafa" stroke="#ddd"/>
<text x="472" y="55" font-size="12" font-weight="700" fill="#555555">RPI (REST/gRPC)</text>
<rect x="680" y="35" width="200" height="220" rx="12" fill="#fff8ef" stroke="#ddd"/>
<text x="692" y="55" font-size="12" font-weight="700" fill="#555555">Messaging</text>
<rect x="40" y="70" width="80" height="45" rx="9" fill="#ffffff" stroke="#111111" stroke-width="2"/>
<text x="80.0" y="90.5" font-size="13.5" font-weight="700" fill="#111111" text-anchor="middle">App A</text>
<text x="80.0" y="107.5" font-size="11.5" fill="#555555" text-anchor="middle">producer</text>
<rect x="40" y="170" width="80" height="45" rx="9" fill="#ffffff" stroke="#111111" stroke-width="2"/>
<text x="80.0" y="190.5" font-size="13.5" font-weight="700" fill="#111111" text-anchor="middle">App B</text>
<text x="80.0" y="207.5" font-size="11.5" fill="#555555" text-anchor="middle">consumer</text>
<rect x="120" y="120" width="80" height="40" rx="9" fill="#fff8ef" stroke="#e8870c" stroke-width="2"/>
<g transform="translate(148.0,124) scale(0.2)"><!-- File Transfer -->
  <rect x="13" y="45" width="24" height="20" fill="#FFF8F0" stroke="#151515" rx="3"/>
  <rect x="83" y="45" width="24" height="20" fill="#FFF8F0" stroke="#151515" rx="3"/>
  <path d="M 52,45 L 62,45 L 68,51 L 68,70 L 52,70 Z" fill="#FFF8F0" stroke="#151515"/>
  <path d="M 62,45 L 62,51 L 68,51" fill="none" stroke="#151515"/>
  <line x1="37" y1="52" x2="50" y2="52" stroke="#151515"/>
  <polyline points="45.0,54.5 50,52 45.0,49.5" stroke="#151515" fill="none"/>
  <line x1="70" y1="58" x2="83" y2="58" stroke="#151515"/>
  <polyline points="78.0,60.5 83,58 78.0,55.5" stroke="#151515" fill="none"/></g>
<text x="160.0" y="153.0" font-size="13.5" font-weight="700" fill="#111111" text-anchor="middle">File</text>
<text x="160.0" y="170.0" font-size="11.5" fill="#555555" text-anchor="middle">CSV / JSON</text>
<rect x="260" y="70" width="80" height="45" rx="9" fill="#ffffff" stroke="#111111" stroke-width="2"/>
<text x="300.0" y="90.5" font-size="13.5" font-weight="700" fill="#111111" text-anchor="middle">App A</text>
<text x="300.0" y="107.5" font-size="11.5" fill="#555555" text-anchor="middle">read/write</text>
<rect x="260" y="170" width="80" height="45" rx="9" fill="#ffffff" stroke="#111111" stroke-width="2"/>
<text x="300.0" y="190.5" font-size="13.5" font-weight="700" fill="#111111" text-anchor="middle">App B</text>
<text x="300.0" y="207.5" font-size="11.5" fill="#555555" text-anchor="middle">read/write</text>
<rect x="340" y="120" width="80" height="40" rx="9" fill="#fff8ef" stroke="#e8870c" stroke-width="2"/>
<g transform="translate(368.0,124) scale(0.2)"><!-- Shared Database -->
  <ellipse cx="60" cy="40" rx="28" ry="10" fill="#FFF8F0" stroke="#151515"/>
  <line x1="32" y1="40" x2="32" y2="70" stroke="#151515"/>
  <line x1="88" y1="40" x2="88" y2="70" stroke="#151515"/>
  <ellipse cx="60" cy="70" rx="28" ry="10" fill="#FFF8F0" stroke="#151515"/>
  <line x1="20" y1="90" x2="40" y2="78" stroke="#151515"/>
  <polyline points="37.0,82.7 40,78 34.4,78.4" stroke="#151515" fill="none"/>
  <line x1="100" y1="90" x2="80" y2="78" stroke="#151515"/>
  <polyline points="85.6,78.4 80,78 83.0,82.7" stroke="#151515" fill="none"/></g>
<text x="380.0" y="153.0" font-size="13.5" font-weight="700" fill="#111111" text-anchor="middle">Database</text>
<text x="380.0" y="170.0" font-size="11.5" fill="#555555" text-anchor="middle">shared</text>
<rect x="480" y="70" width="80" height="45" rx="9" fill="#ffffff" stroke="#111111" stroke-width="2"/>
<text x="520.0" y="90.5" font-size="13.5" font-weight="700" fill="#111111" text-anchor="middle">Client</text>
<text x="520.0" y="107.5" font-size="11.5" fill="#555555" text-anchor="middle">caller</text>
<rect x="480" y="170" width="80" height="45" rx="9" fill="#ffffff" stroke="#111111" stroke-width="2"/>
<text x="520.0" y="190.5" font-size="13.5" font-weight="700" fill="#111111" text-anchor="middle">Server</text>
<text x="520.0" y="207.5" font-size="11.5" fill="#555555" text-anchor="middle">responder</text>
<rect x="700" y="70" width="80" height="45" rx="9" fill="#ffffff" stroke="#111111" stroke-width="2"/>
<text x="740.0" y="90.5" font-size="13.5" font-weight="700" fill="#111111" text-anchor="middle">Sender</text>
<text x="740.0" y="107.5" font-size="11.5" fill="#555555" text-anchor="middle">producer</text>
<rect x="700" y="170" width="80" height="45" rx="9" fill="#ffffff" stroke="#111111" stroke-width="2"/>
<text x="740.0" y="190.5" font-size="13.5" font-weight="700" fill="#111111" text-anchor="middle">Receiver</text>
<text x="740.0" y="207.5" font-size="11.5" fill="#555555" text-anchor="middle">consumer</text>
<rect x="780" y="128" width="80" height="24" fill="#f4f4f4" stroke="none"/>
<ellipse cx="820.0" cy="128" rx="40.0" ry="8" fill="#f4f4f4" stroke="#555555" stroke-width="1.5"/>
<ellipse cx="820.0" cy="152" rx="40.0" ry="8" fill="#f4f4f4" stroke="#555555" stroke-width="1.5"/>
<line x1="780" y1="128" x2="780" y2="152" stroke="#555555" stroke-width="1.5"/>
<line x1="860" y1="128" x2="860" y2="152" stroke="#555555" stroke-width="1.5"/>
<text x="820.0" y="138.0" font-size="13.5" font-weight="700" fill="#111111" text-anchor="middle">Channel</text>
<text x="820.0" y="155.0" font-size="11.5" fill="#555555" text-anchor="middle">topic / queue</text>
<path d="M100,115 L120,135" fill="none" stroke="#555" stroke-width="2" marker-end="url(#a)"/>
<text x="116.0" y="119.0" font-size="11" fill="#ffffff" stroke="#ffffff" stroke-width="3" paint-order="stroke" text-anchor="middle">write</text>
<text x="116.0" y="119.0" font-size="11" fill="#555" text-anchor="middle">write</text>
<path d="M120,145 L100,170" fill="none" stroke="#555" stroke-width="2" marker-end="url(#a)"/>
<text x="116.0" y="165.5" font-size="11" fill="#ffffff" stroke="#ffffff" stroke-width="3" paint-order="stroke" text-anchor="middle">read</text>
<text x="116.0" y="165.5" font-size="11" fill="#555" text-anchor="middle">read</text>
<path d="M320,115 L340,130" fill="none" stroke="#555" stroke-width="2" stroke-dasharray="5 4" marker-end="url(#a)"/>
<path d="M320,170 L340,150" fill="none" stroke="#555" stroke-width="2" stroke-dasharray="5 4" marker-end="url(#a)"/>
<path d="M520,115 L520,170" fill="none" stroke="#b8650a" stroke-width="2" marker-end="url(#am)"/>
<path d="M510,170 L510,115" fill="none" stroke="#555" stroke-width="2" stroke-dasharray="5 4" marker-end="url(#a)"/>
<path d="M760,115 L780,130" fill="none" stroke="#b8650a" stroke-width="2" marker-end="url(#am)"/>
<path d="M780,150 L760,170" fill="none" stroke="#b8650a" stroke-width="2" marker-end="url(#am)"/>
<text x="555" y="136" font-size="11" fill="#555555" text-anchor="middle">request</text>
<text x="472" y="136" font-size="11" fill="#555555" text-anchor="middle">response</text>
<text x="750" y="112" font-size="11" fill="#555555" text-anchor="middle">send</text>
<text x="745" y="170" font-size="11" fill="#555555" text-anchor="middle">receive</text>
<text x="450" y="25" font-size="14" fill="#555555" text-anchor="middle" font-weight="700">The Four Integration Styles</text>
</svg>