<svg xmlns="http://www.w3.org/2000/svg" viewBox="0 0 880 240" font-family="'Red Hat Text', system-ui, sans-serif" role="img">
<defs><marker id="a" viewBox="0 0 10 10" refX="8.5" refY="5" markerWidth="9" markerHeight="9" orient="auto-start-reverse"><path d="M0,0 L10,5 L0,10 z" fill="#555"/></marker><marker id="am" viewBox="0 0 10 10" refX="8.5" refY="5" markerWidth="9" markerHeight="9" orient="auto-start-reverse"><path d="M0,0 L10,5 L0,10 z" fill="#b8650a"/></marker></defs>
<rect x="20" y="20" width="840" height="200" rx="12" fill="#fafafa" stroke="#ddd"/>
<text x="32" y="40" font-size="12" font-weight="700" fill="#555555">Pipes and Filters</text>
<rect x="50" y="70" width="120" height="50" rx="9" fill="#fff8ef" stroke="#e8870c" stroke-width="2"/>
<text x="110.0" y="93.0" font-size="13.5" font-weight="700" fill="#111111" text-anchor="middle">Message</text>
<text x="110.0" y="110.0" font-size="11.5" fill="#555555" text-anchor="middle">Source</text>
<rect x="220" y="70" width="120" height="50" rx="9" fill="#fff8ef" stroke="#e8870c" stroke-width="2"/>
<g transform="translate(265.0,74) scale(0.25)"><!-- Pipes and Filters -->
  <line x1="25" y1="35" x2="25" y2="85" stroke="#151515"/>
  <line x1="60" y1="35" x2="60" y2="85" stroke="#151515"/>
  <line x1="95" y1="35" x2="95" y2="85" stroke="#151515"/>
  <circle cx="42" cy="60" r="10" fill="#FFF8F0" stroke="#151515"/>
  <circle cx="77" cy="60" r="10" fill="#FFF8F0" stroke="#151515"/>
  <line x1="25" y1="60" x2="32" y2="60" stroke="#151515"/>
  <line x1="52" y1="60" x2="67" y2="60" stroke="#151515"/>
  <line x1="87" y1="60" x2="95" y2="60" stroke="#151515"/></g>
<text x="280.0" y="111.0" font-size="13.5" font-weight="700" fill="#111111" text-anchor="middle">Filter 1</text>
<text x="280.0" y="128.0" font-size="11.5" fill="#555555" text-anchor="middle">unmarshal</text>
<rect x="390" y="70" width="120" height="50" rx="9" fill="#fff8ef" stroke="#e8870c" stroke-width="2"/>
<g transform="translate(435.0,74) scale(0.25)"><!-- Pipes and Filters -->
  <line x1="25" y1="35" x2="25" y2="85" stroke="#151515"/>
  <line x1="60" y1="35" x2="60" y2="85" stroke="#151515"/>
  <line x1="95" y1="35" x2="95" y2="85" stroke="#151515"/>
  <circle cx="42" cy="60" r="10" fill="#FFF8F0" stroke="#151515"/>
  <circle cx="77" cy="60" r="10" fill="#FFF8F0" stroke="#151515"/>
  <line x1="25" y1="60" x2="32" y2="60" stroke="#151515"/>
  <line x1="52" y1="60" x2="67" y2="60" stroke="#151515"/>
  <line x1="87" y1="60" x2="95" y2="60" stroke="#151515"/></g>
<text x="450.0" y="111.0" font-size="13.5" font-weight="700" fill="#111111" text-anchor="middle">Filter 2</text>
<text x="450.0" y="128.0" font-size="11.5" fill="#555555" text-anchor="middle">validate</text>
<rect x="560" y="70" width="120" height="50" rx="9" fill="#fff8ef" stroke="#e8870c" stroke-width="2"/>
<g transform="translate(605.0,74) scale(0.25)"><!-- Pipes and Filters -->
  <line x1="25" y1="35" x2="25" y2="85" stroke="#151515"/>
  <line x1="60" y1="35" x2="60" y2="85" stroke="#151515"/>
  <line x1="95" y1="35" x2="95" y2="85" stroke="#151515"/>
  <circle cx="42" cy="60" r="10" fill="#FFF8F0" stroke="#151515"/>
  <circle cx="77" cy="60" r="10" fill="#FFF8F0" stroke="#151515"/>
  <line x1="25" y1="60" x2="32" y2="60" stroke="#151515"/>
  <line x1="52" y1="60" x2="67" y2="60" stroke="#151515"/>
  <line x1="87" y1="60" x2="95" y2="60" stroke="#151515"/></g>
<text x="620.0" y="111.0" font-size="13.5" font-weight="700" fill="#111111" text-anchor="middle">Filter 3</text>
<text x="620.0" y="128.0" font-size="11.5" fill="#555555" text-anchor="middle">enrich</text>
<rect x="730" y="70" width="120" height="50" rx="9" fill="#eef4fb" stroke="#2f6db5" stroke-width="2"/>
<text x="790.0" y="93.0" font-size="13.5" font-weight="700" fill="#111111" text-anchor="middle">Message</text>
<text x="790.0" y="110.0" font-size="11.5" fill="#555555" text-anchor="middle">Sink</text>
<path d="M170,95 L220,95" fill="none" stroke="#b8650a" stroke-width="2" marker-end="url(#am)"/>
<text x="201.0" y="89.0" font-size="11" fill="#ffffff" stroke="#ffffff" stroke-width="3" paint-order="stroke" text-anchor="middle">pipe</text>
<text x="201.0" y="89.0" font-size="11" fill="#b8650a" text-anchor="middle">pipe</text>
<path d="M340,95 L390,95" fill="none" stroke="#b8650a" stroke-width="2" marker-end="url(#am)"/>
<text x="371.0" y="89.0" font-size="11" fill="#ffffff" stroke="#ffffff" stroke-width="3" paint-order="stroke" text-anchor="middle">pipe</text>
<text x="371.0" y="89.0" font-size="11" fill="#b8650a" text-anchor="middle">pipe</text>
<path d="M510,95 L560,95" fill="none" stroke="#b8650a" stroke-width="2" marker-end="url(#am)"/>
<text x="541.0" y="89.0" font-size="11" fill="#ffffff" stroke="#ffffff" stroke-width="3" paint-order="stroke" text-anchor="middle">pipe</text>
<text x="541.0" y="89.0" font-size="11" fill="#b8650a" text-anchor="middle">pipe</text>
<path d="M680,95 L730,95" fill="none" stroke="#b8650a" stroke-width="2" marker-end="url(#am)"/>
<text x="711.0" y="89.0" font-size="11" fill="#ffffff" stroke="#ffffff" stroke-width="3" paint-order="stroke" text-anchor="middle">pipe</text>
<text x="711.0" y="89.0" font-size="11" fill="#b8650a" text-anchor="middle">pipe</text>
<text x="440" y="155" font-size="11" fill="#555555" text-anchor="middle">Each filter transforms the message; pipes connect them</text>
<text x="440" y="180" font-size="11" fill="#555555" text-anchor="middle">This is the core Camel route model: from() → process → to()</text>
</svg>