<svg xmlns="http://www.w3.org/2000/svg" viewBox="0 0 880 320" font-family="'Red Hat Text', system-ui, sans-serif" role="img">
<defs><marker id="a" viewBox="0 0 10 10" refX="8.5" refY="5" markerWidth="9" markerHeight="9" orient="auto-start-reverse"><path d="M0,0 L10,5 L0,10 z" fill="#555"/></marker><marker id="am" viewBox="0 0 10 10" refX="8.5" refY="5" markerWidth="9" markerHeight="9" orient="auto-start-reverse"><path d="M0,0 L10,5 L0,10 z" fill="#b8650a"/></marker></defs>
<rect x="20" y="20" width="400" height="280" rx="12" fill="#fafafa" stroke="#ddd"/>
<text x="32" y="40" font-size="12" font-weight="700" fill="#555555">Point-to-Point</text>
<rect x="460" y="20" width="400" height="280" rx="12" fill="#fafafa" stroke="#ddd"/>
<text x="472" y="40" font-size="12" font-weight="700" fill="#555555">Publish-Subscribe</text>
<rect x="60" y="80" width="140" height="50" rx="9" fill="#fff8ef" stroke="#e8870c" stroke-width="2"/>
<text x="130.0" y="103.0" font-size="13.5" font-weight="700" fill="#111111" text-anchor="middle">Producer</text>
<text x="130.0" y="120.0" font-size="11.5" fill="#555555" text-anchor="middle">sends message</text>
<rect x="60" y="200" width="140" height="50" rx="9" fill="#f4f4f4" stroke="#666666" stroke-width="1.5"/>
<text x="130.0" y="223.0" font-size="13.5" font-weight="700" fill="#111111" text-anchor="middle">Consumer B</text>
<text x="130.0" y="240.0" font-size="11.5" fill="#555555" text-anchor="middle">idle</text>
<rect x="240" y="148" width="140" height="34" fill="#f4f4f4" stroke="none"/>
<ellipse cx="310.0" cy="148" rx="70.0" ry="8" fill="#f4f4f4" stroke="#555555" stroke-width="1.5"/>
<ellipse cx="310.0" cy="182" rx="70.0" ry="8" fill="#f4f4f4" stroke="#555555" stroke-width="1.5"/>
<line x1="240" y1="148" x2="240" y2="182" stroke="#555555" stroke-width="1.5"/>
<line x1="380" y1="148" x2="380" y2="182" stroke="#555555" stroke-width="1.5"/>
<text x="310.0" y="163.0" font-size="13.5" font-weight="700" fill="#111111" text-anchor="middle">Kafka Topic</text>
<text x="310.0" y="180.0" font-size="11.5" fill="#555555" text-anchor="middle">1 consumer group</text>
<rect x="240" y="80" width="140" height="50" rx="9" fill="#fff8ef" stroke="#e8870c" stroke-width="2"/>
<g transform="translate(295.0,84) scale(0.25)"><!-- Competing Consumers -->
  <rect x="55" y="30" width="30" height="20" fill="#FFF8F0" stroke="#151515" rx="2"/>
  <rect x="60" y="35" width="30" height="20" fill="#FFF8F0" stroke="#151515" rx="2"/>
  <rect x="65" y="40" width="30" height="20" fill="#FFF8F0" stroke="#151515" rx="2"/>
  <ellipse cx="15" cy="79" rx="6" ry="7" fill="#FFF8F0" stroke="#151515"/>
  <line x1="15" y1="72" x2="80" y2="72" stroke="#151515"/>
  <line x1="15" y1="86" x2="80" y2="86" stroke="#151515"/>
  <ellipse cx="80" cy="79" rx="6" ry="7" fill="#FFF8F0" stroke="#151515"/>
  <line x1="50" y1="72" x2="50" y2="60" stroke="#151515"/>
  <polyline points="47,64 50,60 53,64" fill="none" stroke="#151515"/></g>
<text x="310.0" y="121.0" font-size="13.5" font-weight="700" fill="#111111" text-anchor="middle">Consumer A</text>
<text x="310.0" y="138.0" font-size="11.5" fill="#555555" text-anchor="middle">receives</text>
<rect x="500" y="80" width="140" height="50" rx="9" fill="#fff8ef" stroke="#e8870c" stroke-width="2"/>
<text x="570.0" y="103.0" font-size="13.5" font-weight="700" fill="#111111" text-anchor="middle">Producer</text>
<text x="570.0" y="120.0" font-size="11.5" fill="#555555" text-anchor="middle">publishes event</text>
<rect x="680" y="60" width="140" height="50" rx="9" fill="#eef4fb" stroke="#2f6db5" stroke-width="2"/>
<text x="750.0" y="83.0" font-size="13.5" font-weight="700" fill="#111111" text-anchor="middle">Group A</text>
<text x="750.0" y="100.0" font-size="11.5" fill="#555555" text-anchor="middle">inventory-svc</text>
<rect x="680" y="140" width="140" height="50" rx="9" fill="#eef4fb" stroke="#2f6db5" stroke-width="2"/>
<text x="750.0" y="163.0" font-size="13.5" font-weight="700" fill="#111111" text-anchor="middle">Group B</text>
<text x="750.0" y="180.0" font-size="11.5" fill="#555555" text-anchor="middle">payment-svc</text>
<rect x="680" y="220" width="140" height="50" rx="9" fill="#eef4fb" stroke="#2f6db5" stroke-width="2"/>
<text x="750.0" y="243.0" font-size="13.5" font-weight="700" fill="#111111" text-anchor="middle">Group C</text>
<text x="750.0" y="260.0" font-size="11.5" fill="#555555" text-anchor="middle">notification-svc</text>
<rect x="500" y="158" width="140" height="34" fill="#f4f4f4" stroke="none"/>
<ellipse cx="570.0" cy="158" rx="70.0" ry="8" fill="#f4f4f4" stroke="#555555" stroke-width="1.5"/>
<ellipse cx="570.0" cy="192" rx="70.0" ry="8" fill="#f4f4f4" stroke="#555555" stroke-width="1.5"/>
<line x1="500" y1="158" x2="500" y2="192" stroke="#555555" stroke-width="1.5"/>
<line x1="640" y1="158" x2="640" y2="192" stroke="#555555" stroke-width="1.5"/>
<text x="570.0" y="173.0" font-size="13.5" font-weight="700" fill="#111111" text-anchor="middle">Kafka Topic</text>
<text x="570.0" y="190.0" font-size="11.5" fill="#555555" text-anchor="middle">3 consumer groups</text>
<path d="M200,105 L240,165" fill="none" stroke="#b8650a" stroke-width="2" marker-end="url(#am)"/>
<path d="M380,165 L380,105" fill="none" stroke="#555" stroke-width="2" marker-end="url(#a)"/>
<text x="386.0" y="129.0" font-size="11" fill="#ffffff" stroke="#ffffff" stroke-width="3" paint-order="stroke" text-anchor="middle">1 gets it</text>
<text x="386.0" y="129.0" font-size="11" fill="#555" text-anchor="middle">1 gets it</text>
<path d="M640,105 L680,85" fill="none" stroke="#b8650a" stroke-width="2" marker-end="url(#am)"/>
<path d="M640,175 L680,165" fill="none" stroke="#b8650a" stroke-width="2" marker-end="url(#am)"/>
<text x="666.0" y="164.0" font-size="11" fill="#ffffff" stroke="#ffffff" stroke-width="3" paint-order="stroke" text-anchor="middle">all get it</text>
<text x="666.0" y="164.0" font-size="11" fill="#b8650a" text-anchor="middle">all get it</text>
<path d="M640,175 L680,245" fill="none" stroke="#b8650a" stroke-width="2" marker-end="url(#am)"/>
<text x="220" y="265" font-size="11" fill="#555555" text-anchor="middle">Only ONE consumer processes each message</text>
<text x="700" y="295" font-size="11" fill="#555555" text-anchor="middle">ALL groups get every message</text>
</svg>