<svg xmlns="http://www.w3.org/2000/svg" viewBox="0 0 720 260" font-family="'Red Hat Text', system-ui, sans-serif" role="img">
<defs><marker id="a" viewBox="0 0 10 10" refX="8.5" refY="5" markerWidth="9" markerHeight="9" orient="auto-start-reverse"><path d="M0,0 L10,5 L0,10 z" fill="#555"/></marker><marker id="am" viewBox="0 0 10 10" refX="8.5" refY="5" markerWidth="9" markerHeight="9" orient="auto-start-reverse"><path d="M0,0 L10,5 L0,10 z" fill="#b8650a"/></marker></defs>
<rect x="20" y="10" width="230" height="240" rx="12" fill="#fafafa" stroke="#ddd"/>
<text x="32" y="30" font-size="12" font-weight="700" fill="#555555">Topic: eip.orders.placed</text>
<rect x="340" y="10" width="360" height="80" rx="12" fill="#fafafa" stroke="#ddd"/>
<text x="352" y="30" font-size="12" font-weight="700" fill="#555555">Subscription: inventory (Shared)</text>
<rect x="340" y="100" width="360" height="70" rx="12" fill="#fafafa" stroke="#ddd"/>
<text x="352" y="120" font-size="12" font-weight="700" fill="#555555">Subscription: notification (Exclusive)</text>
<rect x="340" y="180" width="360" height="70" rx="12" fill="#fafafa" stroke="#ddd"/>
<text x="352" y="200" font-size="12" font-weight="700" fill="#555555">Subscription: analytics (Exclusive)</text>
<rect x="50" y="80" width="170" height="40" rx="9" fill="#ffffff" stroke="#999999" stroke-width="1.5"/>
<text x="135.0" y="105.5" font-size="13.5" font-weight="700" fill="#111111" text-anchor="middle">Messages</text>
<rect x="380" y="35" width="150" height="35" rx="9" fill="#fff8ef" stroke="#e8870c" stroke-width="2"/>
<text x="455.0" y="58.0" font-size="13.5" font-weight="700" fill="#111111" text-anchor="middle">Consumer A</text>
<rect x="560" y="35" width="100" height="35" rx="9" fill="#fff8ef" stroke="#e8870c" stroke-width="2"/>
<text x="610.0" y="58.0" font-size="13.5" font-weight="700" fill="#111111" text-anchor="middle">Consumer B</text>
<rect x="380" y="120" width="150" height="35" rx="9" fill="#fff8ef" stroke="#e8870c" stroke-width="2"/>
<text x="455.0" y="143.0" font-size="13.5" font-weight="700" fill="#111111" text-anchor="middle">Consumer A</text>
<rect x="380" y="200" width="150" height="35" rx="9" fill="#fff8ef" stroke="#e8870c" stroke-width="2"/>
<text x="455.0" y="223.0" font-size="13.5" font-weight="700" fill="#111111" text-anchor="middle">Consumer A</text>
<path d="M220,90 L380,52" fill="none" stroke="#b8650a" stroke-width="2" marker-end="url(#am)"/>
<path d="M220,100 L380,137" fill="none" stroke="#b8650a" stroke-width="2" marker-end="url(#am)"/>
<path d="M220,110 L380,217" fill="none" stroke="#b8650a" stroke-width="2" marker-end="url(#am)"/>
<text x="365" y="245" font-size="11" fill="#555555" text-anchor="start">Each subscription gets every message independently</text>
</svg>