<svg xmlns="http://www.w3.org/2000/svg" viewBox="0 0 740 310" font-family="'Red Hat Text', system-ui, sans-serif" role="img">
<defs><marker id="a" viewBox="0 0 10 10" refX="8.5" refY="5" markerWidth="9" markerHeight="9" orient="auto-start-reverse"><path d="M0,0 L10,5 L0,10 z" fill="#555"/></marker><marker id="am" viewBox="0 0 10 10" refX="8.5" refY="5" markerWidth="9" markerHeight="9" orient="auto-start-reverse"><path d="M0,0 L10,5 L0,10 z" fill="#b8650a"/></marker></defs>
<rect x="20" y="10" width="230" height="290" rx="12" fill="#fafafa" stroke="#ddd"/>
<text x="32" y="30" font-size="12" font-weight="700" fill="#555555">Topic: eip.orders.placed</text>
<rect x="340" y="10" width="380" height="90" rx="12" fill="#fafafa" stroke="#ddd"/>
<text x="352" y="30" font-size="12" font-weight="700" fill="#555555">Group: inventory-service</text>
<rect x="340" y="110" width="380" height="90" rx="12" fill="#fafafa" stroke="#ddd"/>
<text x="352" y="130" font-size="12" font-weight="700" fill="#555555">Group: notification-service</text>
<rect x="340" y="210" width="380" height="90" rx="12" fill="#fafafa" stroke="#ddd"/>
<text x="352" y="230" font-size="12" font-weight="700" fill="#555555">Group: analytics-service</text>
<rect x="50" y="60" width="170" height="40" rx="9" fill="#ffffff" stroke="#999999" stroke-width="1.5"/>
<text x="135.0" y="85.5" font-size="13.5" font-weight="700" fill="#111111" text-anchor="middle">P0, P1, P2</text>
<rect x="380" y="40" width="180" height="40" rx="9" fill="#fff8ef" stroke="#e8870c" stroke-width="2"/>
<text x="470.0" y="65.5" font-size="13.5" font-weight="700" fill="#111111" text-anchor="middle">Instance A</text>
<rect x="380" y="140" width="180" height="40" rx="9" fill="#fff8ef" stroke="#e8870c" stroke-width="2"/>
<text x="470.0" y="165.5" font-size="13.5" font-weight="700" fill="#111111" text-anchor="middle">Instance A</text>
<rect x="380" y="240" width="180" height="40" rx="9" fill="#f4f4f4" stroke="#666666" stroke-width="1.5"/>
<text x="470.0" y="265.5" font-size="13.5" font-weight="700" fill="#111111" text-anchor="middle">Instance A</text>
<path d="M220,70 L380,60" fill="none" stroke="#b8650a" stroke-width="2" marker-end="url(#am)"/>
<text x="306.0" y="59.0" font-size="11" fill="#ffffff" stroke="#ffffff" stroke-width="3" paint-order="stroke" text-anchor="middle">all msgs</text>
<text x="306.0" y="59.0" font-size="11" fill="#b8650a" text-anchor="middle">all msgs</text>
<path d="M220,80 L380,160" fill="none" stroke="#b8650a" stroke-width="2" marker-end="url(#am)"/>
<text x="306.0" y="114.0" font-size="11" fill="#ffffff" stroke="#ffffff" stroke-width="3" paint-order="stroke" text-anchor="middle">all msgs</text>
<text x="306.0" y="114.0" font-size="11" fill="#b8650a" text-anchor="middle">all msgs</text>
<path d="M220,90 L380,260" fill="none" stroke="#b8650a" stroke-width="2" marker-end="url(#am)"/>
<text x="306.0" y="169.0" font-size="11" fill="#ffffff" stroke="#ffffff" stroke-width="3" paint-order="stroke" text-anchor="middle">all msgs</text>
<text x="306.0" y="169.0" font-size="11" fill="#b8650a" text-anchor="middle">all msgs</text>
<text x="620" y="250" font-size="11" fill="#555555" text-anchor="middle">added later —</text>
<text x="620" y="270" font-size="11" fill="#555555" text-anchor="middle">no changes elsewhere</text>
</svg>