<svg xmlns="http://www.w3.org/2000/svg" viewBox="0 0 680 260" font-family="'Red Hat Text', system-ui, sans-serif" role="img">
<defs><marker id="a" viewBox="0 0 10 10" refX="8.5" refY="5" markerWidth="9" markerHeight="9" orient="auto-start-reverse"><path d="M0,0 L10,5 L0,10 z" fill="#555"/></marker><marker id="am" viewBox="0 0 10 10" refX="8.5" refY="5" markerWidth="9" markerHeight="9" orient="auto-start-reverse"><path d="M0,0 L10,5 L0,10 z" fill="#b8650a"/></marker></defs>
<rect x="20" y="10" width="280" height="240" rx="12" fill="#fafafa" stroke="#ddd"/>
<text x="32" y="30" font-size="12" font-weight="700" fill="#555555">Topic: eip.orders.placed</text>
<rect x="380" y="10" width="280" height="240" rx="12" fill="#fafafa" stroke="#ddd"/>
<text x="392" y="30" font-size="12" font-weight="700" fill="#555555">Consumer Group: inventory-service</text>
<rect x="60" y="50" width="200" height="40" rx="9" fill="#ffffff" stroke="#999999" stroke-width="1.5"/>
<text x="160.0" y="75.5" font-size="13.5" font-weight="700" fill="#111111" text-anchor="middle">Partition 0</text>
<rect x="60" y="110" width="200" height="40" rx="9" fill="#ffffff" stroke="#999999" stroke-width="1.5"/>
<text x="160.0" y="135.5" font-size="13.5" font-weight="700" fill="#111111" text-anchor="middle">Partition 1</text>
<rect x="60" y="170" width="200" height="40" rx="9" fill="#ffffff" stroke="#999999" stroke-width="1.5"/>
<text x="160.0" y="195.5" font-size="13.5" font-weight="700" fill="#111111" text-anchor="middle">Partition 2</text>
<rect x="420" y="50" width="200" height="40" rx="9" fill="#fff8ef" stroke="#e8870c" stroke-width="2"/>
<text x="520.0" y="75.5" font-size="13.5" font-weight="700" fill="#111111" text-anchor="middle">Instance A</text>
<rect x="420" y="110" width="200" height="40" rx="9" fill="#fff8ef" stroke="#e8870c" stroke-width="2"/>
<text x="520.0" y="135.5" font-size="13.5" font-weight="700" fill="#111111" text-anchor="middle">Instance B</text>
<rect x="420" y="170" width="200" height="40" rx="9" fill="#fff8ef" stroke="#e8870c" stroke-width="2"/>
<text x="520.0" y="195.5" font-size="13.5" font-weight="700" fill="#111111" text-anchor="middle">Instance C</text>
<path d="M260,70 L420,70" fill="none" stroke="#b8650a" stroke-width="2" marker-end="url(#am)"/>
<path d="M260,130 L420,130" fill="none" stroke="#b8650a" stroke-width="2" marker-end="url(#am)"/>
<path d="M260,190 L420,190" fill="none" stroke="#b8650a" stroke-width="2" marker-end="url(#am)"/>
<text x="340" y="230" font-size="11" fill="#555555" text-anchor="middle">Each partition → exactly one consumer</text>
</svg>