<svg xmlns="http://www.w3.org/2000/svg" viewBox="0 0 880 260" font-family="'Red Hat Text', system-ui, sans-serif" role="img">
<defs><marker id="a" viewBox="0 0 10 10" refX="8.5" refY="5" markerWidth="9" markerHeight="9" orient="auto-start-reverse"><path d="M0,0 L10,5 L0,10 z" fill="#555"/></marker><marker id="am" viewBox="0 0 10 10" refX="8.5" refY="5" markerWidth="9" markerHeight="9" orient="auto-start-reverse"><path d="M0,0 L10,5 L0,10 z" fill="#b8650a"/></marker></defs>
<rect x="20" y="20" width="840" height="220" rx="12" fill="#fafafa" stroke="#ddd"/>
<text x="32" y="40" font-size="12" font-weight="700" fill="#555555">Messaging Bridge — Kafka to Pulsar</text>
<rect x="50" y="80" width="140" height="60" rx="9" fill="#fff8ef" stroke="#e8870c" stroke-width="2"/>
<text x="120.0" y="100.5" font-size="13.5" font-weight="700" fill="#111111" text-anchor="middle">Kafka</text>
<text x="120.0" y="117.5" font-size="11.5" fill="#555555" text-anchor="middle">eip.orders.*</text>
<text x="120.0" y="132.5" font-size="11.5" fill="#555555" text-anchor="middle">KRaft cluster</text>
<rect x="260" y="80" width="160" height="60" rx="9" fill="#fff8ef" stroke="#e8870c" stroke-width="2"/>
<g transform="translate(322.0,84) scale(0.3)"><!-- Messaging Bridge -->
  <ellipse cx="10" cy="57" rx="6" ry="9" fill="#FFF8F0" stroke="#151515"/>
  <line x1="10" y1="48" x2="45" y2="48" stroke="#151515"/>
  <line x1="10" y1="66" x2="45" y2="66" stroke="#151515"/>
  <ellipse cx="45" cy="57" rx="6" ry="9" fill="#FFF8F0" stroke="#151515"/>
  <ellipse cx="75" cy="57" rx="6" ry="9" fill="#FFF8F0" stroke="#151515"/>
  <line x1="75" y1="48" x2="110" y2="48" stroke="#151515"/>
  <line x1="75" y1="66" x2="110" y2="66" stroke="#151515"/>
  <ellipse cx="110" cy="57" rx="6" ry="9" fill="#FFF8F0" stroke="#151515"/>
  <line x1="51" y1="57" x2="69" y2="57" stroke="#EE0000" stroke-width="2"/>
  <line x1="51" y1="53" x2="51" y2="61" stroke="#EE0000"/>
  <line x1="69" y1="53" x2="69" y2="61" stroke="#EE0000"/></g>
<text x="340.0" y="121.5" font-size="13.5" font-weight="700" fill="#111111" text-anchor="middle">Camel Bridge</text>
<text x="340.0" y="138.5" font-size="11.5" fill="#555555" text-anchor="middle">kafka → pulsar</text>
<text x="340.0" y="153.5" font-size="11.5" fill="#555555" text-anchor="middle">message translator</text>
<rect x="500" y="80" width="150" height="60" rx="9" fill="#eef4fb" stroke="#2f6db5" stroke-width="2"/>
<text x="575.0" y="100.5" font-size="13.5" font-weight="700" fill="#111111" text-anchor="middle">Pulsar</text>
<text x="575.0" y="117.5" font-size="11.5" fill="#555555" text-anchor="middle">persistent://eip</text>
<text x="575.0" y="132.5" font-size="11.5" fill="#555555" text-anchor="middle">multi-tenant</text>
<rect x="720" y="80" width="120" height="60" rx="9" fill="#ffffff" stroke="#111111" stroke-width="2"/>
<text x="780.0" y="108.0" font-size="13.5" font-weight="700" fill="#111111" text-anchor="middle">Analytics</text>
<text x="780.0" y="125.0" font-size="11.5" fill="#555555" text-anchor="middle">subscriber</text>
<path d="M190,110 L260,110" fill="none" stroke="#b8650a" stroke-width="2" marker-end="url(#am)"/>
<text x="231.0" y="104.0" font-size="11" fill="#ffffff" stroke="#ffffff" stroke-width="3" paint-order="stroke" text-anchor="middle">consume</text>
<text x="231.0" y="104.0" font-size="11" fill="#b8650a" text-anchor="middle">consume</text>
<path d="M420,110 L500,110" fill="none" stroke="#b8650a" stroke-width="2" marker-end="url(#am)"/>
<text x="466.0" y="104.0" font-size="11" fill="#ffffff" stroke="#ffffff" stroke-width="3" paint-order="stroke" text-anchor="middle">produce</text>
<text x="466.0" y="104.0" font-size="11" fill="#b8650a" text-anchor="middle">produce</text>
<path d="M650,110 L720,110" fill="none" stroke="#555" stroke-width="2" marker-end="url(#a)"/>
<text x="691.0" y="104.0" font-size="11" fill="#ffffff" stroke="#ffffff" stroke-width="3" paint-order="stroke" text-anchor="middle">subscribe</text>
<text x="691.0" y="104.0" font-size="11" fill="#555" text-anchor="middle">subscribe</text>
<text x="440" y="175" font-size="11" fill="#555555" text-anchor="middle">Bridge connects two messaging systems without either knowing about the other</text>
</svg>