<svg xmlns="http://www.w3.org/2000/svg" viewBox="0 0 880 280" font-family="'Red Hat Text', system-ui, sans-serif" role="img">
<defs><marker id="a" viewBox="0 0 10 10" refX="8.5" refY="5" markerWidth="9" markerHeight="9" orient="auto-start-reverse"><path d="M0,0 L10,5 L0,10 z" fill="#555"/></marker><marker id="am" viewBox="0 0 10 10" refX="8.5" refY="5" markerWidth="9" markerHeight="9" orient="auto-start-reverse"><path d="M0,0 L10,5 L0,10 z" fill="#b8650a"/></marker></defs>
<rect x="20" y="20" width="840" height="240" rx="12" fill="#fafafa" stroke="#ddd"/>
<text x="32" y="40" font-size="12" font-weight="700" fill="#888">Request-Reply with Correlation</text>
<rect x="50" y="70" width="140" height="50" rx="9" fill="#fff8ef" stroke="#e8870c" stroke-width="2"/>
<text x="120.0" y="93.0" font-size="13.5" font-weight="700" fill="#111111" text-anchor="middle">order-service</text>
<text x="120.0" y="110.0" font-size="11.5" fill="#555555" text-anchor="middle">requestor</text>
<rect x="300" y="70" width="180" height="50" rx="9" fill="#ffffff" stroke="#111111" stroke-width="2"/>
<text x="390.0" y="93.0" font-size="13.5" font-weight="700" fill="#111111" text-anchor="middle">Request Channel</text>
<text x="390.0" y="110.0" font-size="11.5" fill="#555555" text-anchor="middle">eip.inventory.check</text>
<rect x="600" y="70" width="140" height="50" rx="9" fill="#eef4fb" stroke="#2f6db5" stroke-width="2"/>
<text x="670.0" y="93.0" font-size="13.5" font-weight="700" fill="#111111" text-anchor="middle">inventory-svc</text>
<text x="670.0" y="110.0" font-size="11.5" fill="#555555" text-anchor="middle">responder</text>
<rect x="50" y="180" width="140" height="50" rx="9" fill="#fff8ef" stroke="#e8870c" stroke-width="2"/>
<text x="120.0" y="203.0" font-size="13.5" font-weight="700" fill="#111111" text-anchor="middle">order-service</text>
<text x="120.0" y="220.0" font-size="11.5" fill="#555555" text-anchor="middle">correlate reply</text>
<rect x="300" y="180" width="180" height="50" rx="9" fill="#ffffff" stroke="#111111" stroke-width="2"/>
<text x="390.0" y="203.0" font-size="13.5" font-weight="700" fill="#111111" text-anchor="middle">Reply Channel</text>
<text x="390.0" y="220.0" font-size="11.5" fill="#555555" text-anchor="middle">eip.inventory.result</text>
<rect x="600" y="180" width="140" height="50" rx="9" fill="#eef4fb" stroke="#2f6db5" stroke-width="2"/>
<text x="670.0" y="203.0" font-size="13.5" font-weight="700" fill="#111111" text-anchor="middle">inventory-svc</text>
<text x="670.0" y="220.0" font-size="11.5" fill="#555555" text-anchor="middle">send result</text>
<path d="M190,95 L300,95" fill="none" stroke="#b8650a" stroke-width="2" marker-end="url(#am)"/>
<text x="251.0" y="89.0" font-size="11" fill="#ffffff" stroke="#ffffff" stroke-width="3" paint-order="stroke" text-anchor="middle">correlationId=abc</text>
<text x="251.0" y="89.0" font-size="11" fill="#b8650a" text-anchor="middle">correlationId=abc</text>
<path d="M480,95 L600,95" fill="none" stroke="#555" stroke-width="2" marker-end="url(#a)"/>
<path d="M600,195 L480,195" fill="none" stroke="#555" stroke-width="2" marker-end="url(#a)"/>
<path d="M300,205 L190,205" fill="none" stroke="#b8650a" stroke-width="2" marker-end="url(#am)"/>
<text x="251.0" y="199.0" font-size="11" fill="#ffffff" stroke="#ffffff" stroke-width="3" paint-order="stroke" text-anchor="middle">correlationId=abc</text>
<text x="251.0" y="199.0" font-size="11" fill="#b8650a" text-anchor="middle">correlationId=abc</text>
<text x="440" y="145" font-size="11" fill="#888" text-anchor="middle">Same correlationId links request to reply</text>
</svg>