<svg xmlns="http://www.w3.org/2000/svg" viewBox="0 0 880 280" font-family="'Red Hat Text', system-ui, sans-serif" role="img">
<defs><marker id="a" viewBox="0 0 10 10" refX="8.5" refY="5" markerWidth="9" markerHeight="9" orient="auto-start-reverse"><path d="M0,0 L10,5 L0,10 z" fill="#555"/></marker><marker id="am" viewBox="0 0 10 10" refX="8.5" refY="5" markerWidth="9" markerHeight="9" orient="auto-start-reverse"><path d="M0,0 L10,5 L0,10 z" fill="#b8650a"/></marker></defs>
<rect x="20" y="20" width="840" height="240" rx="12" fill="#fafafa" stroke="#ddd"/>
<text x="32" y="40" font-size="12" font-weight="700" fill="#555555">Request-Reply with Correlation</text>
<rect x="50" y="70" width="140" height="50" rx="9" fill="#fff8ef" stroke="#e8870c" stroke-width="2"/>
<g transform="translate(105.0,74) scale(0.25)"><!-- Request-Reply -->
  <rect x="21" y="36" width="28" height="18" fill="#FFF8F0" stroke="#151515" rx="1"/>
  <polyline points="21,36 35,47 49,36" fill="none" stroke="#151515"/>
  <rect x="71" y="56" width="28" height="18" fill="#FFF8F0" stroke="#151515" rx="1"/>
  <polyline points="71,56 85,67 99,56" fill="none" stroke="#151515"/>
  <line x1="52" y1="42" x2="68" y2="58" stroke="#151515"/>
  <polyline points="62.7,56.2 68,58 66.2,52.7" stroke="#151515" fill="none"/>
  <line x1="68" y1="72" x2="52" y2="58" stroke="#151515"/>
  <polyline points="56,63 52,58 58,57" fill="none" stroke="#151515"/></g>
<text x="120.0" y="111.0" font-size="13.5" font-weight="700" fill="#111111" text-anchor="middle">order-service</text>
<text x="120.0" y="128.0" font-size="11.5" fill="#555555" text-anchor="middle">requestor</text>
<rect x="300" y="78" width="180" height="34" fill="#f4f4f4" stroke="none"/>
<ellipse cx="390.0" cy="78" rx="90.0" ry="8" fill="#f4f4f4" stroke="#555555" stroke-width="1.5"/>
<ellipse cx="390.0" cy="112" rx="90.0" ry="8" fill="#f4f4f4" stroke="#555555" stroke-width="1.5"/>
<line x1="300" y1="78" x2="300" y2="112" stroke="#555555" stroke-width="1.5"/>
<line x1="480" y1="78" x2="480" y2="112" stroke="#555555" stroke-width="1.5"/>
<text x="390.0" y="93.0" font-size="13.5" font-weight="700" fill="#111111" text-anchor="middle">Request Channel</text>
<text x="390.0" y="110.0" font-size="11.5" fill="#555555" text-anchor="middle">eip.inventory.check</text>
<rect x="600" y="70" width="140" height="50" rx="9" fill="#fff8ef" stroke="#e8870c" stroke-width="2"/>
<g transform="translate(655.0,74) scale(0.25)"><!-- Service Activator -->
  <rect x="38" y="38" width="44" height="34" fill="#FFF8F0" stroke="#151515" rx="3"/>
  <polygon points="60.0,43.0 64.2,47.7 70.4,49.0 68.4,55.0 70.4,61.0 64.2,62.3 60.0,67.0 55.8,62.3 49.6,61.0 51.6,55.0 49.6,49.0 55.8,47.7" fill="#FFF8F0" stroke="#151515"/>
  <circle cx="60" cy="55" r="3.0" fill="#151515"/>
  <line x1="5" y1="55" x2="38" y2="55" stroke="#151515"/>
  <polyline points="33.0,57.5 38,55 33.0,52.5" stroke="#151515" fill="none"/>
  <line x1="82" y1="55" x2="115" y2="55" stroke="#151515"/>
  <polyline points="110.0,57.5 115,55 110.0,52.5" stroke="#151515" fill="none"/></g>
<text x="670.0" y="111.0" font-size="13.5" font-weight="700" fill="#111111" text-anchor="middle">inventory-svc</text>
<text x="670.0" y="128.0" font-size="11.5" fill="#555555" text-anchor="middle">responder</text>
<rect x="50" y="180" width="140" height="50" rx="9" fill="#fff8ef" stroke="#e8870c" stroke-width="2"/>
<g transform="translate(105.0,184) scale(0.25)"><!-- Correlation Identifier -->
  <rect x="70" y="40" width="30" height="20" fill="#FFF8F0" stroke="#151515" rx="1"/>
  <polyline points="70,40 85,52 100,40" fill="none" stroke="#151515"/>
  <line x1="50" y1="50" x2="70" y2="50" stroke="#EE0000" stroke-dasharray="4,2"/>
  <text x="35" y="54" text-anchor="middle" font-size="9" font-family="monospace" fill="#EE0000" stroke="none">ID</text>
  <text x="85" y="54" text-anchor="middle" font-size="9" font-family="monospace" fill="#EE0000" stroke="none">ID</text></g>
<text x="120.0" y="221.0" font-size="13.5" font-weight="700" fill="#111111" text-anchor="middle">order-service</text>
<text x="120.0" y="238.0" font-size="11.5" fill="#555555" text-anchor="middle">correlate reply</text>
<rect x="300" y="188" width="180" height="34" fill="#f4f4f4" stroke="none"/>
<ellipse cx="390.0" cy="188" rx="90.0" ry="8" fill="#f4f4f4" stroke="#555555" stroke-width="1.5"/>
<ellipse cx="390.0" cy="222" rx="90.0" ry="8" fill="#f4f4f4" stroke="#555555" stroke-width="1.5"/>
<line x1="300" y1="188" x2="300" y2="222" stroke="#555555" stroke-width="1.5"/>
<line x1="480" y1="188" x2="480" y2="222" stroke="#555555" stroke-width="1.5"/>
<text x="390.0" y="203.0" font-size="13.5" font-weight="700" fill="#111111" text-anchor="middle">Reply Channel</text>
<text x="390.0" y="220.0" font-size="11.5" fill="#555555" text-anchor="middle">eip.inventory.result</text>
<rect x="600" y="180" width="140" height="50" rx="9" fill="#fff8ef" stroke="#e8870c" stroke-width="2"/>
<g transform="translate(655.0,184) scale(0.25)"><!-- Return Address -->
  <rect x="40" y="41" width="40" height="28" fill="#FFF8F0" stroke="#151515" rx="1"/>
  <polyline points="40,41 60,57 80,41" fill="none" stroke="#151515"/>
  <polyline points="50,48 42,48 42,55 50,55" fill="none" stroke="#EE0000" stroke-width="1.5"/>
  <polyline points="47,52 50,55 47,58" fill="none" stroke="#EE0000" stroke-width="1.5"/></g>
<text x="670.0" y="221.0" font-size="13.5" font-weight="700" fill="#111111" text-anchor="middle">inventory-svc</text>
<text x="670.0" y="238.0" font-size="11.5" fill="#555555" text-anchor="middle">send result</text>
<path d="M190,95 L300,95" fill="none" stroke="#b8650a" stroke-width="2" marker-end="url(#am)"/>
<text x="251.0" y="89.0" font-size="11" fill="#ffffff" stroke="#ffffff" stroke-width="3" paint-order="stroke" text-anchor="middle">correlationId=abc</text>
<text x="251.0" y="89.0" font-size="11" fill="#b8650a" text-anchor="middle">correlationId=abc</text>
<path d="M480,95 L600,95" fill="none" stroke="#555" stroke-width="2" marker-end="url(#a)"/>
<path d="M600,195 L480,195" fill="none" stroke="#555" stroke-width="2" marker-end="url(#a)"/>
<path d="M300,205 L190,205" fill="none" stroke="#b8650a" stroke-width="2" marker-end="url(#am)"/>
<text x="251.0" y="199.0" font-size="11" fill="#ffffff" stroke="#ffffff" stroke-width="3" paint-order="stroke" text-anchor="middle">correlationId=abc</text>
<text x="251.0" y="199.0" font-size="11" fill="#b8650a" text-anchor="middle">correlationId=abc</text>
<text x="440" y="145" font-size="11" fill="#555555" text-anchor="middle">Same correlationId links request to reply</text>
</svg>