<svg xmlns="http://www.w3.org/2000/svg" viewBox="0 0 900 360" font-family="'Red Hat Text', system-ui, sans-serif" role="img">
<defs><marker id="a" viewBox="0 0 10 10" refX="8.5" refY="5" markerWidth="9" markerHeight="9" orient="auto-start-reverse"><path d="M0,0 L10,5 L0,10 z" fill="#555"/></marker><marker id="am" viewBox="0 0 10 10" refX="8.5" refY="5" markerWidth="9" markerHeight="9" orient="auto-start-reverse"><path d="M0,0 L10,5 L0,10 z" fill="#b8650a"/></marker></defs>
<rect x="20" y="20" width="860" height="320" rx="12" fill="#fafafa" stroke="#ddd"/>
<text x="32" y="40" font-size="12" font-weight="700" fill="#888">Message Routing Patterns</text>
<rect x="50" y="70" width="140" height="50" rx="9" fill="#fff8ef" stroke="#e8870c" stroke-width="2"/>
<text x="120.0" y="93.0" font-size="13.5" font-weight="700" fill="#111111" text-anchor="middle">Incoming</text>
<text x="120.0" y="110.0" font-size="11.5" fill="#555555" text-anchor="middle">Order Message</text>
<rect x="240" y="70" width="140" height="50" rx="9" fill="#111111" stroke="#111111" stroke-width="2"/>
<text x="310.0" y="93.0" font-size="13.5" font-weight="700" fill="#ffffff" text-anchor="middle">Content-Based</text>
<text x="310.0" y="110.0" font-size="11.5" fill="#dddddd" text-anchor="middle">Router (choice)</text>
<rect x="440" y="50" width="130" height="40" rx="9" fill="#eef4fb" stroke="#2f6db5" stroke-width="2"/>
<text x="505.0" y="75.5" font-size="13.5" font-weight="700" fill="#111111" text-anchor="middle">Domestic</text>
<rect x="440" y="100" width="130" height="40" rx="9" fill="#eef4fb" stroke="#2f6db5" stroke-width="2"/>
<text x="505.0" y="125.5" font-size="13.5" font-weight="700" fill="#111111" text-anchor="middle">International</text>
<rect x="50" y="180" width="140" height="50" rx="9" fill="#fff8ef" stroke="#e8870c" stroke-width="2"/>
<text x="120.0" y="203.0" font-size="13.5" font-weight="700" fill="#111111" text-anchor="middle">Batch Order</text>
<text x="120.0" y="220.0" font-size="11.5" fill="#555555" text-anchor="middle">[3 items]</text>
<rect x="240" y="180" width="140" height="50" rx="9" fill="#111111" stroke="#111111" stroke-width="2"/>
<text x="310.0" y="203.0" font-size="13.5" font-weight="700" fill="#ffffff" text-anchor="middle">Splitter</text>
<text x="310.0" y="220.0" font-size="11.5" fill="#dddddd" text-anchor="middle">split(body)</text>
<rect x="440" y="160" width="100" height="35" rx="9" fill="#ffffff" stroke="#111111" stroke-width="2"/>
<text x="490.0" y="183.0" font-size="13.5" font-weight="700" fill="#111111" text-anchor="middle">Item 1</text>
<rect x="440" y="200" width="100" height="35" rx="9" fill="#ffffff" stroke="#111111" stroke-width="2"/>
<text x="490.0" y="223.0" font-size="13.5" font-weight="700" fill="#111111" text-anchor="middle">Item 2</text>
<rect x="440" y="240" width="100" height="35" rx="9" fill="#ffffff" stroke="#111111" stroke-width="2"/>
<text x="490.0" y="263.0" font-size="13.5" font-weight="700" fill="#111111" text-anchor="middle">Item 3</text>
<rect x="50" y="290" width="140" height="40" rx="9" fill="#fff8ef" stroke="#e8870c" stroke-width="2"/>
<text x="120.0" y="315.5" font-size="13.5" font-weight="700" fill="#111111" text-anchor="middle">Notification</text>
<rect x="240" y="290" width="140" height="40" rx="9" fill="#111111" stroke="#111111" stroke-width="2"/>
<text x="310.0" y="308.0" font-size="13.5" font-weight="700" fill="#ffffff" text-anchor="middle">Recipient List</text>
<text x="310.0" y="325.0" font-size="11.5" fill="#dddddd" text-anchor="middle">recipientList()</text>
<rect x="440" y="280" width="100" height="35" rx="9" fill="#ffffff" stroke="#111111" stroke-width="2"/>
<text x="490.0" y="303.0" font-size="13.5" font-weight="700" fill="#111111" text-anchor="middle">Email</text>
<rect x="560" y="280" width="100" height="35" rx="9" fill="#ffffff" stroke="#111111" stroke-width="2"/>
<text x="610.0" y="303.0" font-size="13.5" font-weight="700" fill="#111111" text-anchor="middle">SMS</text>
<rect x="680" y="280" width="100" height="35" rx="9" fill="#ffffff" stroke="#111111" stroke-width="2"/>
<text x="730.0" y="303.0" font-size="13.5" font-weight="700" fill="#111111" text-anchor="middle">Webhook</text>
<path d="M190,95 L240,95" fill="none" stroke="#b8650a" stroke-width="2" marker-end="url(#am)"/>
<path d="M380,85 L440,70" fill="none" stroke="#555" stroke-width="2" marker-end="url(#a)"/>
<path d="M380,95 L440,120" fill="none" stroke="#555" stroke-width="2" marker-end="url(#a)"/>
<path d="M190,205 L240,205" fill="none" stroke="#b8650a" stroke-width="2" marker-end="url(#am)"/>
<path d="M380,195 L440,178" fill="none" stroke="#555" stroke-width="2" marker-end="url(#a)"/>
<path d="M380,205 L440,218" fill="none" stroke="#555" stroke-width="2" marker-end="url(#a)"/>
<path d="M380,215 L440,258" fill="none" stroke="#555" stroke-width="2" marker-end="url(#a)"/>
<path d="M190,310 L240,310" fill="none" stroke="#b8650a" stroke-width="2" marker-end="url(#am)"/>
<path d="M380,305 L440,298" fill="none" stroke="#555" stroke-width="2" marker-end="url(#a)"/>
<path d="M380,310 L560,298" fill="none" stroke="#555" stroke-width="2" marker-end="url(#a)"/>
<path d="M380,315 L680,298" fill="none" stroke="#555" stroke-width="2" marker-end="url(#a)"/>
<text x="620" y="70" font-size="11" fill="#888" text-anchor="start">routes by content</text>
<text x="570" y="215" font-size="11" fill="#888" text-anchor="start">splits into parts</text>
<text x="800" y="310" font-size="11" fill="#888" text-anchor="start">fans out to list</text>
</svg>