<svg xmlns="http://www.w3.org/2000/svg" viewBox="0 0 880 300" font-family="'Red Hat Text', system-ui, sans-serif" role="img">
<defs><marker id="a" viewBox="0 0 10 10" refX="8.5" refY="5" markerWidth="9" markerHeight="9" orient="auto-start-reverse"><path d="M0,0 L10,5 L0,10 z" fill="#555"/></marker><marker id="am" viewBox="0 0 10 10" refX="8.5" refY="5" markerWidth="9" markerHeight="9" orient="auto-start-reverse"><path d="M0,0 L10,5 L0,10 z" fill="#b8650a"/></marker></defs>
<rect x="20" y="20" width="840" height="260" rx="12" fill="#fafafa" stroke="#ddd"/>
<text x="32" y="40" font-size="12" font-weight="700" fill="#555555">Scatter-Gather Pattern</text>
<rect x="50" y="110" width="120" height="50" rx="9" fill="#fff8ef" stroke="#e8870c" stroke-width="2"/>
<text x="110.0" y="133.0" font-size="13.5" font-weight="700" fill="#111111" text-anchor="middle">Request</text>
<text x="110.0" y="150.0" font-size="11.5" fill="#555555" text-anchor="middle">quote me</text>
<rect x="220" y="110" width="140" height="50" rx="9" fill="#fff8ef" stroke="#e8870c" stroke-width="2"/>
<g transform="translate(275.0,114) scale(0.25)"><!-- Recipient List -->
  <polygon points="45,35 65,55 45,75 25,55" fill="#FFF8F0" stroke="#151515"/>
  <line x1="65" y1="45" x2="95" y2="30" stroke="#151515"/>
  <polyline points="91.6,34.5 95,30 89.4,30.0" stroke="#151515" fill="none"/>
  <line x1="65" y1="55" x2="95" y2="55" stroke="#151515"/>
  <polyline points="90.0,57.5 95,55 90.0,52.5" stroke="#151515" fill="none"/>
  <line x1="65" y1="65" x2="95" y2="80" stroke="#151515"/>
  <polyline points="89.4,80.0 95,80 91.6,75.5" stroke="#151515" fill="none"/>
  <line x1="38" y1="50" x2="52" y2="50" stroke="#EE0000" stroke-width="1.5"/>
  <line x1="38" y1="55" x2="52" y2="55" stroke="#EE0000" stroke-width="1.5"/>
  <line x1="38" y1="60" x2="52" y2="60" stroke="#EE0000" stroke-width="1.5"/>
  <line x1="5" y1="55" x2="25" y2="55" stroke="#151515"/>
  <polyline points="20.0,57.5 25,55 20.0,52.5" stroke="#151515" fill="none"/></g>
<text x="290.0" y="151.0" font-size="13.5" font-weight="700" fill="#111111" text-anchor="middle">Recipient List</text>
<text x="290.0" y="168.0" font-size="11.5" fill="#555555" text-anchor="middle">scatter</text>
<rect x="420" y="50" width="120" height="40" rx="9" fill="#ffffff" stroke="#111111" stroke-width="2"/>
<text x="480.0" y="75.5" font-size="13.5" font-weight="700" fill="#111111" text-anchor="middle">Carrier A</text>
<rect x="420" y="110" width="120" height="40" rx="9" fill="#ffffff" stroke="#111111" stroke-width="2"/>
<text x="480.0" y="135.5" font-size="13.5" font-weight="700" fill="#111111" text-anchor="middle">Carrier B</text>
<rect x="420" y="170" width="120" height="40" rx="9" fill="#ffffff" stroke="#111111" stroke-width="2"/>
<text x="480.0" y="195.5" font-size="13.5" font-weight="700" fill="#111111" text-anchor="middle">Carrier C</text>
<rect x="600" y="100" width="130" height="60" rx="9" fill="#fff8ef" stroke="#e8870c" stroke-width="2"/>
<g transform="translate(647.0,104) scale(0.3)"><!-- Aggregator -->
  <circle cx="75" cy="60" r="12" fill="#FFF8F0" stroke="#151515"/>
  <line x1="10" y1="30" x2="63" y2="52" stroke="#151515"/>
  <polyline points="57.4,52.4 63,52 59.3,47.8" stroke="#151515" fill="none"/>
  <line x1="10" y1="60" x2="63" y2="60" stroke="#151515"/>
  <polyline points="58.0,62.5 63,60 58.0,57.5" stroke="#151515" fill="none"/>
  <line x1="10" y1="90" x2="63" y2="68" stroke="#151515"/>
  <polyline points="59.3,72.2 63,68 57.4,67.6" stroke="#151515" fill="none"/>
  <line x1="87" y1="60" x2="112" y2="60" stroke="#151515"/>
  <polyline points="107.0,62.5 112,60 107.0,57.5" stroke="#151515" fill="none"/>
  <text x="75" y="65" text-anchor="middle" font-size="14" font-family="sans-serif" fill="#EE0000" stroke="none">&#x03A3;</text></g>
<text x="665.0" y="141.5" font-size="13.5" font-weight="700" fill="#111111" text-anchor="middle">Aggregator</text>
<text x="665.0" y="158.5" font-size="11.5" fill="#555555" text-anchor="middle">gather + pick</text>
<text x="665.0" y="173.5" font-size="11.5" fill="#555555" text-anchor="middle">best quote</text>
<rect x="780" y="110" width="80" height="50" rx="9" fill="#eef4fb" stroke="#2f6db5" stroke-width="2"/>
<text x="820.0" y="133.0" font-size="13.5" font-weight="700" fill="#111111" text-anchor="middle">Result</text>
<text x="820.0" y="150.0" font-size="11.5" fill="#555555" text-anchor="middle">$12.99</text>
<path d="M170,135 L220,135" fill="none" stroke="#b8650a" stroke-width="2" marker-end="url(#am)"/>
<path d="M360,125 L420,70" fill="none" stroke="#555" stroke-width="2" marker-end="url(#a)"/>
<path d="M360,135 L420,130" fill="none" stroke="#b8650a" stroke-width="2" marker-end="url(#am)"/>
<text x="396.0" y="126.5" font-size="11" fill="#ffffff" stroke="#ffffff" stroke-width="3" paint-order="stroke" text-anchor="middle">scatter</text>
<text x="396.0" y="126.5" font-size="11" fill="#b8650a" text-anchor="middle">scatter</text>
<path d="M360,145 L420,190" fill="none" stroke="#555" stroke-width="2" marker-end="url(#a)"/>
<path d="M540,70 L600,120" fill="none" stroke="#555" stroke-width="2" marker-end="url(#a)"/>
<path d="M540,130 L600,130" fill="none" stroke="#555" stroke-width="2" marker-end="url(#a)"/>
<text x="576.0" y="124.0" font-size="11" fill="#ffffff" stroke="#ffffff" stroke-width="3" paint-order="stroke" text-anchor="middle">gather</text>
<text x="576.0" y="124.0" font-size="11" fill="#555" text-anchor="middle">gather</text>
<path d="M540,190 L600,140" fill="none" stroke="#555" stroke-width="2" marker-end="url(#a)"/>
<path d="M730,130 L780,135" fill="none" stroke="#b8650a" stroke-width="2" marker-end="url(#am)"/>
<text x="440" y="240" font-size="11" fill="#555555" text-anchor="middle">Fan out, collect replies, pick the winner</text>
</svg>