<svg xmlns="http://www.w3.org/2000/svg" viewBox="0 0 880 260" font-family="'Red Hat Text', system-ui, sans-serif" role="img">
<defs><marker id="a" viewBox="0 0 10 10" refX="8.5" refY="5" markerWidth="9" markerHeight="9" orient="auto-start-reverse"><path d="M0,0 L10,5 L0,10 z" fill="#555"/></marker><marker id="am" viewBox="0 0 10 10" refX="8.5" refY="5" markerWidth="9" markerHeight="9" orient="auto-start-reverse"><path d="M0,0 L10,5 L0,10 z" fill="#b8650a"/></marker></defs>
<rect x="20" y="20" width="840" height="220" rx="12" fill="#fafafa" stroke="#ddd"/>
<text x="32" y="40" font-size="12" font-weight="700" fill="#555555">Resequencer — Restoring Message Order</text>
<rect x="50" y="60" width="90" height="40" rx="9" fill="#fff8ef" stroke="#e8870c" stroke-width="2"/>
<text x="95.0" y="85.5" font-size="13.5" font-weight="700" fill="#111111" text-anchor="middle">Msg 3</text>
<rect x="50" y="110" width="90" height="40" rx="9" fill="#fff8ef" stroke="#e8870c" stroke-width="2"/>
<text x="95.0" y="135.5" font-size="13.5" font-weight="700" fill="#111111" text-anchor="middle">Msg 1</text>
<rect x="50" y="160" width="90" height="40" rx="9" fill="#fff8ef" stroke="#e8870c" stroke-width="2"/>
<text x="95.0" y="185.5" font-size="13.5" font-weight="700" fill="#111111" text-anchor="middle">Msg 2</text>
<rect x="220" y="90" width="160" height="70" rx="9" fill="#fff8ef" stroke="#e8870c" stroke-width="2"/>
<g transform="translate(280.0,94) scale(0.3333333333333333)"><!-- Resequencer -->
  <rect x="35" y="38" width="50" height="35" fill="#FFF8F0" stroke="#151515" rx="3"/>
  <text x="45" y="50" font-size="9" font-family="monospace" fill="#EE0000" stroke="none">3,1,2</text>
  <text x="45" y="63" font-size="9" font-family="monospace" fill="#EE0000" stroke="none">1,2,3</text>
  <line x1="42" y1="53" x2="78" y2="53" stroke="#EE0000" stroke-width="0.75"/>
  <line x1="5" y1="55" x2="35" y2="55" stroke="#151515"/>
  <polyline points="30.0,57.5 35,55 30.0,52.5" stroke="#151515" fill="none"/>
  <line x1="85" y1="55" x2="115" y2="55" stroke="#151515"/>
  <polyline points="110.0,57.5 115,55 110.0,52.5" stroke="#151515" fill="none"/></g>
<text x="300.0" y="146.0" font-size="13.5" font-weight="700" fill="#111111" text-anchor="middle">Resequencer</text>
<text x="300.0" y="163.0" font-size="11.5" fill="#555555" text-anchor="middle">sort by seqNum</text>
<rect x="460" y="60" width="90" height="40" rx="9" fill="#eef4fb" stroke="#2f6db5" stroke-width="2"/>
<text x="505.0" y="85.5" font-size="13.5" font-weight="700" fill="#111111" text-anchor="middle">Msg 1</text>
<rect x="460" y="110" width="90" height="40" rx="9" fill="#eef4fb" stroke="#2f6db5" stroke-width="2"/>
<text x="505.0" y="135.5" font-size="13.5" font-weight="700" fill="#111111" text-anchor="middle">Msg 2</text>
<rect x="460" y="160" width="90" height="40" rx="9" fill="#eef4fb" stroke="#2f6db5" stroke-width="2"/>
<text x="505.0" y="185.5" font-size="13.5" font-weight="700" fill="#111111" text-anchor="middle">Msg 3</text>
<rect x="630" y="60" width="130" height="40" rx="9" fill="#f4f4f4" stroke="#666666" stroke-width="1.5"/>
<text x="695.0" y="78.0" font-size="13.5" font-weight="700" fill="#111111" text-anchor="middle">Stream</text>
<text x="695.0" y="95.0" font-size="11.5" fill="#555555" text-anchor="middle">sliding window</text>
<rect x="630" y="120" width="130" height="40" rx="9" fill="#f4f4f4" stroke="#666666" stroke-width="1.5"/>
<text x="695.0" y="138.0" font-size="13.5" font-weight="700" fill="#111111" text-anchor="middle">Batch</text>
<text x="695.0" y="155.0" font-size="11.5" fill="#555555" text-anchor="middle">collect + sort</text>
<path d="M140,80 L220,110" fill="none" stroke="#b8650a" stroke-width="2" marker-end="url(#am)"/>
<path d="M140,130 L220,125" fill="none" stroke="#b8650a" stroke-width="2" marker-end="url(#am)"/>
<path d="M140,180 L220,140" fill="none" stroke="#b8650a" stroke-width="2" marker-end="url(#am)"/>
<path d="M380,115 L460,80" fill="none" stroke="#b8650a" stroke-width="2" marker-end="url(#am)"/>
<text x="426.0" y="91.5" font-size="11" fill="#ffffff" stroke="#ffffff" stroke-width="3" paint-order="stroke" text-anchor="middle">ordered</text>
<text x="426.0" y="91.5" font-size="11" fill="#b8650a" text-anchor="middle">ordered</text>
<path d="M380,125 L460,130" fill="none" stroke="#b8650a" stroke-width="2" marker-end="url(#am)"/>
<path d="M380,135 L460,175" fill="none" stroke="#b8650a" stroke-width="2" marker-end="url(#am)"/>
<text x="440" y="215" font-size="11" fill="#555555" text-anchor="middle">Out-of-order input → sorted output by sequence number</text>
</svg>