<svg xmlns="http://www.w3.org/2000/svg" viewBox="0 0 880 260" font-family="'Red Hat Text', system-ui, sans-serif" role="img">
<defs><marker id="a" viewBox="0 0 10 10" refX="8.5" refY="5" markerWidth="9" markerHeight="9" orient="auto-start-reverse"><path d="M0,0 L10,5 L0,10 z" fill="#555"/></marker><marker id="am" viewBox="0 0 10 10" refX="8.5" refY="5" markerWidth="9" markerHeight="9" orient="auto-start-reverse"><path d="M0,0 L10,5 L0,10 z" fill="#b8650a"/></marker></defs>
<rect x="20" y="20" width="840" height="220" rx="12" fill="#fafafa" stroke="#ddd"/>
<text x="32" y="40" font-size="12" font-weight="700" fill="#555555">Wire Tap Pattern</text>
<rect x="50" y="70" width="140" height="50" rx="9" fill="#fff8ef" stroke="#e8870c" stroke-width="2"/>
<text x="120.0" y="93.0" font-size="13.5" font-weight="700" fill="#111111" text-anchor="middle">Incoming</text>
<text x="120.0" y="110.0" font-size="11.5" fill="#555555" text-anchor="middle">Order</text>
<rect x="280" y="70" width="160" height="50" rx="9" fill="#fff8ef" stroke="#e8870c" stroke-width="2"/>
<g transform="translate(345.0,74) scale(0.25)"><!-- Wire Tap -->
  <ellipse cx="15" cy="54" rx="6" ry="9" fill="#FFF8F0" stroke="#151515"/>
  <line x1="15" y1="45" x2="100" y2="45" stroke="#151515"/>
  <line x1="15" y1="63" x2="100" y2="63" stroke="#151515"/>
  <ellipse cx="100" cy="54" rx="6" ry="9" fill="#FFF8F0" stroke="#151515"/>
  <line x1="60" y1="63" x2="60" y2="95" stroke="#151515"/>
  <polyline points="56,90 60,95 64,90" fill="none" stroke="#151515"/>
  <rect x="52" y="95" width="16" height="10" fill="#FFF8F0" stroke="#151515" rx="1"/>
  <polyline points="52,95 60,102 68,95" fill="none" stroke="#151515"/></g>
<text x="360.0" y="111.0" font-size="13.5" font-weight="700" fill="#111111" text-anchor="middle">Wire Tap</text>
<text x="360.0" y="128.0" font-size="11.5" fill="#555555" text-anchor="middle">copies message</text>
<rect x="540" y="70" width="140" height="50" rx="9" fill="#ffffff" stroke="#111111" stroke-width="2"/>
<text x="610.0" y="93.0" font-size="13.5" font-weight="700" fill="#111111" text-anchor="middle">Main Flow</text>
<text x="610.0" y="110.0" font-size="11.5" fill="#555555" text-anchor="middle">process order</text>
<rect x="740" y="70" width="100" height="50" rx="9" fill="#eef4fb" stroke="#2f6db5" stroke-width="2"/>
<text x="790.0" y="93.0" font-size="13.5" font-weight="700" fill="#111111" text-anchor="middle">Continue</text>
<text x="790.0" y="110.0" font-size="11.5" fill="#555555" text-anchor="middle">processing</text>
<rect x="280" y="170" width="160" height="50" rx="9" fill="#f4f4f4" stroke="#666666" stroke-width="1.5"/>
<text x="360.0" y="193.0" font-size="13.5" font-weight="700" fill="#111111" text-anchor="middle">Monitoring</text>
<text x="360.0" y="210.0" font-size="11.5" fill="#555555" text-anchor="middle">audit log / metrics</text>
<path d="M190,95 L280,95" fill="none" stroke="#b8650a" stroke-width="2" marker-end="url(#am)"/>
<path d="M440,95 L540,95" fill="none" stroke="#b8650a" stroke-width="2" marker-end="url(#am)"/>
<text x="496.0" y="89.0" font-size="11" fill="#ffffff" stroke="#ffffff" stroke-width="3" paint-order="stroke" text-anchor="middle">original</text>
<text x="496.0" y="89.0" font-size="11" fill="#b8650a" text-anchor="middle">original</text>
<path d="M680,95 L740,95" fill="none" stroke="#555" stroke-width="2" marker-end="url(#a)"/>
<path d="M360,120 L360,170" fill="none" stroke="#555" stroke-width="2" marker-end="url(#a)"/>
<text x="366.0" y="139.0" font-size="11" fill="#ffffff" stroke="#ffffff" stroke-width="3" paint-order="stroke" text-anchor="middle">copy</text>
<text x="366.0" y="139.0" font-size="11" fill="#555" text-anchor="middle">copy</text>
<text x="360" y="235" font-size="11" fill="#555555" text-anchor="middle">Copy sent to secondary channel without affecting main flow</text>
</svg>