<svg xmlns="http://www.w3.org/2000/svg" viewBox="0 0 880 260" font-family="'Red Hat Text', system-ui, sans-serif" role="img">
<defs><marker id="a" viewBox="0 0 10 10" refX="8.5" refY="5" markerWidth="9" markerHeight="9" orient="auto-start-reverse"><path d="M0,0 L10,5 L0,10 z" fill="#555"/></marker><marker id="am" viewBox="0 0 10 10" refX="8.5" refY="5" markerWidth="9" markerHeight="9" orient="auto-start-reverse"><path d="M0,0 L10,5 L0,10 z" fill="#b8650a"/></marker></defs>
<rect x="20" y="20" width="840" height="220" rx="12" fill="#fafafa" stroke="#ddd"/>
<text x="32" y="40" font-size="12" font-weight="700" fill="#888">Transformation Pipeline</text>
<rect x="50" y="70" width="130" height="50" rx="9" fill="#fff8ef" stroke="#e8870c" stroke-width="2"/>
<text x="115.0" y="93.0" font-size="13.5" font-weight="700" fill="#111111" text-anchor="middle">Raw Order</text>
<text x="115.0" y="110.0" font-size="11.5" fill="#555555" text-anchor="middle">external format</text>
<rect x="230" y="70" width="130" height="50" rx="9" fill="#111111" stroke="#111111" stroke-width="2"/>
<text x="295.0" y="93.0" font-size="13.5" font-weight="700" fill="#ffffff" text-anchor="middle">Translator</text>
<text x="295.0" y="110.0" font-size="11.5" fill="#dddddd" text-anchor="middle">normalize</text>
<rect x="410" y="70" width="130" height="50" rx="9" fill="#111111" stroke="#111111" stroke-width="2"/>
<text x="475.0" y="93.0" font-size="13.5" font-weight="700" fill="#ffffff" text-anchor="middle">Enricher</text>
<text x="475.0" y="110.0" font-size="11.5" fill="#dddddd" text-anchor="middle">add address</text>
<rect x="590" y="70" width="130" height="50" rx="9" fill="#111111" stroke="#111111" stroke-width="2"/>
<text x="655.0" y="93.0" font-size="13.5" font-weight="700" fill="#ffffff" text-anchor="middle">Filter</text>
<text x="655.0" y="110.0" font-size="11.5" fill="#dddddd" text-anchor="middle">remove PII</text>
<rect x="750" y="70" width="100" height="50" rx="9" fill="#eef4fb" stroke="#2f6db5" stroke-width="2"/>
<text x="800.0" y="93.0" font-size="13.5" font-weight="700" fill="#111111" text-anchor="middle">Canonical</text>
<text x="800.0" y="110.0" font-size="11.5" fill="#555555" text-anchor="middle">Order</text>
<rect x="410" y="170" width="130" height="50" rx="9" fill="#f4f4f4" stroke="#888888" stroke-width="1.5"/>
<text x="475.0" y="193.0" font-size="13.5" font-weight="700" fill="#111111" text-anchor="middle">Address DB</text>
<text x="475.0" y="210.0" font-size="11.5" fill="#555555" text-anchor="middle">external lookup</text>
<path d="M180,95 L230,95" fill="none" stroke="#b8650a" stroke-width="2" marker-end="url(#am)"/>
<path d="M360,95 L410,95" fill="none" stroke="#555" stroke-width="2" marker-end="url(#a)"/>
<path d="M540,95 L590,95" fill="none" stroke="#555" stroke-width="2" marker-end="url(#a)"/>
<path d="M720,95 L750,95" fill="none" stroke="#b8650a" stroke-width="2" marker-end="url(#am)"/>
<path d="M475,120 L475,170" fill="none" stroke="#555" stroke-width="2" marker-end="url(#a)"/>
<text x="481.0" y="139.0" font-size="11" fill="#ffffff" stroke="#ffffff" stroke-width="3" paint-order="stroke" text-anchor="middle">lookup</text>
<text x="481.0" y="139.0" font-size="11" fill="#555" text-anchor="middle">lookup</text>
<text x="450" y="50" font-size="11" fill="#888" text-anchor="middle">Pipes and Filters — each step transforms the message</text>
</svg>