<svg xmlns="http://www.w3.org/2000/svg" viewBox="0 0 880 240" font-family="'Red Hat Text', system-ui, sans-serif" role="img">
<defs><marker id="a" viewBox="0 0 10 10" refX="8.5" refY="5" markerWidth="9" markerHeight="9" orient="auto-start-reverse"><path d="M0,0 L10,5 L0,10 z" fill="#555"/></marker><marker id="am" viewBox="0 0 10 10" refX="8.5" refY="5" markerWidth="9" markerHeight="9" orient="auto-start-reverse"><path d="M0,0 L10,5 L0,10 z" fill="#b8650a"/></marker></defs>
<rect x="20" y="20" width="840" height="200" rx="12" fill="#fafafa" stroke="#ddd"/>
<text x="32" y="40" font-size="12" font-weight="700" fill="#555555">Type Conversion — Camel&#x27;s Automatic Type System</text>
<rect x="40" y="70" width="110" height="50" rx="9" fill="#f4f4f4" stroke="#666666" stroke-width="1.5"/>
<text x="95.0" y="93.0" font-size="13.5" font-weight="700" fill="#111111" text-anchor="middle">byte[]</text>
<text x="95.0" y="110.0" font-size="11.5" fill="#555555" text-anchor="middle">raw payload</text>
<rect x="200" y="70" width="110" height="50" rx="9" fill="#ffffff" stroke="#111111" stroke-width="2"/>
<text x="255.0" y="93.0" font-size="13.5" font-weight="700" fill="#111111" text-anchor="middle">String</text>
<text x="255.0" y="110.0" font-size="11.5" fill="#555555" text-anchor="middle">text body</text>
<rect x="360" y="70" width="110" height="50" rx="9" fill="#fff8ef" stroke="#e8870c" stroke-width="2"/>
<g transform="translate(400.0,74) scale(0.25)"><!-- Message Translator -->
  <polygon points="84.2,46.0 84.2,74.0 60.0,88.0 35.8,74.0 35.8,46.0 60.0,32.0" fill="#FFF8F0" stroke="#151515"/></g>
<text x="415.0" y="111.0" font-size="13.5" font-weight="700" fill="#111111" text-anchor="middle">JSON</text>
<text x="415.0" y="128.0" font-size="11.5" fill="#555555" text-anchor="middle">jackson</text>
<rect x="520" y="70" width="110" height="50" rx="9" fill="#fff8ef" stroke="#e8870c" stroke-width="2"/>
<text x="575.0" y="93.0" font-size="13.5" font-weight="700" fill="#111111" text-anchor="middle">POJO</text>
<text x="575.0" y="110.0" font-size="11.5" fill="#555555" text-anchor="middle">Order.class</text>
<rect x="700" y="70" width="130" height="50" rx="9" fill="#fff8ef" stroke="#e8870c" stroke-width="2"/>
<g transform="translate(750.0,74) scale(0.25)"><!-- Canonical Data Model -->
  <rect x="35" y="25" width="50" height="65" fill="#FFF8F0" stroke="#151515" rx="2"/>
  <rect x="35" y="25" width="50" height="12" fill="#EE0000" stroke="#151515" rx="2"/>
  <rect x="35" y="35" width="50" height="2" fill="#151515" stroke="none"/>
  <line x1="42" y1="48" x2="78" y2="48" stroke="#151515" stroke-width="1"/>
  <line x1="42" y1="56" x2="78" y2="56" stroke="#151515" stroke-width="1"/>
  <line x1="42" y1="64" x2="78" y2="64" stroke="#151515" stroke-width="1"/>
  <line x1="42" y1="72" x2="78" y2="72" stroke="#151515" stroke-width="1"/></g>
<text x="765.0" y="111.0" font-size="13.5" font-weight="700" fill="#111111" text-anchor="middle">marshal()</text>
<text x="765.0" y="128.0" font-size="11.5" fill="#555555" text-anchor="middle">json()</text>
<path d="M150,95 L200,95" fill="none" stroke="#b8650a" stroke-width="2" marker-end="url(#am)"/>
<text x="181.0" y="89.0" font-size="11" fill="#ffffff" stroke="#ffffff" stroke-width="3" paint-order="stroke" text-anchor="middle">decode</text>
<text x="181.0" y="89.0" font-size="11" fill="#b8650a" text-anchor="middle">decode</text>
<path d="M310,95 L360,95" fill="none" stroke="#b8650a" stroke-width="2" marker-end="url(#am)"/>
<text x="341.0" y="89.0" font-size="11" fill="#ffffff" stroke="#ffffff" stroke-width="3" paint-order="stroke" text-anchor="middle">parse</text>
<text x="341.0" y="89.0" font-size="11" fill="#b8650a" text-anchor="middle">parse</text>
<path d="M470,95 L520,95" fill="none" stroke="#b8650a" stroke-width="2" marker-end="url(#am)"/>
<text x="501.0" y="89.0" font-size="11" fill="#ffffff" stroke="#ffffff" stroke-width="3" paint-order="stroke" text-anchor="middle">bind</text>
<text x="501.0" y="89.0" font-size="11" fill="#b8650a" text-anchor="middle">bind</text>
<path d="M630,95 L700,95" fill="none" stroke="#555" stroke-width="2" marker-end="url(#a)"/>
<text x="671.0" y="89.0" font-size="11" fill="#ffffff" stroke="#ffffff" stroke-width="3" paint-order="stroke" text-anchor="middle">serialize</text>
<text x="671.0" y="89.0" font-size="11" fill="#555" text-anchor="middle">serialize</text>
<text x="440" y="165" font-size="11" fill="#555555" text-anchor="middle">Camel chains converters automatically: getBody(Order.class)</text>
</svg>