<svg xmlns="http://www.w3.org/2000/svg" viewBox="0 0 880 280" font-family="'Red Hat Text', system-ui, sans-serif" role="img">
<defs><marker id="a" viewBox="0 0 10 10" refX="8.5" refY="5" markerWidth="9" markerHeight="9" orient="auto-start-reverse"><path d="M0,0 L10,5 L0,10 z" fill="#555"/></marker><marker id="am" viewBox="0 0 10 10" refX="8.5" refY="5" markerWidth="9" markerHeight="9" orient="auto-start-reverse"><path d="M0,0 L10,5 L0,10 z" fill="#b8650a"/></marker></defs>
<rect x="20" y="20" width="840" height="240" rx="12" fill="#fafafa" stroke="#ddd"/>
<text x="32" y="40" font-size="12" font-weight="700" fill="#888">Aggregator Pattern</text>
<rect x="50" y="80" width="120" height="40" rx="9" fill="#ffffff" stroke="#111111" stroke-width="2"/>
<text x="110.0" y="105.5" font-size="13.5" font-weight="700" fill="#111111" text-anchor="middle">Msg A (id=1)</text>
<rect x="50" y="130" width="120" height="40" rx="9" fill="#ffffff" stroke="#111111" stroke-width="2"/>
<text x="110.0" y="155.5" font-size="13.5" font-weight="700" fill="#111111" text-anchor="middle">Msg B (id=1)</text>
<rect x="50" y="180" width="120" height="40" rx="9" fill="#ffffff" stroke="#111111" stroke-width="2"/>
<text x="110.0" y="205.5" font-size="13.5" font-weight="700" fill="#111111" text-anchor="middle">Msg C (id=1)</text>
<rect x="250" y="100" width="180" height="80" rx="9" fill="#111111" stroke="#111111" stroke-width="2"/>
<text x="340.0" y="130.5" font-size="13.5" font-weight="700" fill="#ffffff" text-anchor="middle">Aggregator</text>
<text x="340.0" y="147.5" font-size="11.5" fill="#dddddd" text-anchor="middle">correlate by id</text>
<text x="340.0" y="162.5" font-size="11.5" fill="#dddddd" text-anchor="middle">completionSize=3</text>
<rect x="510" y="120" width="160" height="50" rx="9" fill="#fff8ef" stroke="#e8870c" stroke-width="2"/>
<text x="590.0" y="143.0" font-size="13.5" font-weight="700" fill="#111111" text-anchor="middle">Combined</text>
<text x="590.0" y="160.0" font-size="11.5" fill="#555555" text-anchor="middle">Result</text>
<rect x="740" y="120" width="100" height="50" rx="9" fill="#eef4fb" stroke="#2f6db5" stroke-width="2"/>
<text x="790.0" y="143.0" font-size="13.5" font-weight="700" fill="#111111" text-anchor="middle">Next</text>
<text x="790.0" y="160.0" font-size="11.5" fill="#555555" text-anchor="middle">Processor</text>
<path d="M170,100 L250,130" fill="none" stroke="#555" stroke-width="2" marker-end="url(#a)"/>
<path d="M170,150 L250,140" fill="none" stroke="#b8650a" stroke-width="2" marker-end="url(#am)"/>
<path d="M170,200 L250,160" fill="none" stroke="#555" stroke-width="2" marker-end="url(#a)"/>
<path d="M430,140 L510,145" fill="none" stroke="#b8650a" stroke-width="2" marker-end="url(#am)"/>
<text x="476.0" y="136.5" font-size="11" fill="#ffffff" stroke="#ffffff" stroke-width="3" paint-order="stroke" text-anchor="middle">aggregate</text>
<text x="476.0" y="136.5" font-size="11" fill="#b8650a" text-anchor="middle">aggregate</text>
<path d="M670,145 L740,145" fill="none" stroke="#555" stroke-width="2" marker-end="url(#a)"/>
<text x="350" y="210" font-size="11" fill="#888" text-anchor="middle">Waits for all correlated messages before emitting</text>
</svg>