<svg xmlns="http://www.w3.org/2000/svg" viewBox="0 0 880 300" font-family="'Red Hat Text', system-ui, sans-serif" role="img">
<defs><marker id="a" viewBox="0 0 10 10" refX="8.5" refY="5" markerWidth="9" markerHeight="9" orient="auto-start-reverse"><path d="M0,0 L10,5 L0,10 z" fill="#555"/></marker><marker id="am" viewBox="0 0 10 10" refX="8.5" refY="5" markerWidth="9" markerHeight="9" orient="auto-start-reverse"><path d="M0,0 L10,5 L0,10 z" fill="#b8650a"/></marker></defs>
<rect x="20" y="20" width="410" height="260" rx="12" fill="#fafafa" stroke="#ddd"/>
<text x="32" y="40" font-size="12" font-weight="700" fill="#555555">Competing Consumers</text>
<rect x="460" y="20" width="400" height="260" rx="12" fill="#fafafa" stroke="#ddd"/>
<text x="472" y="40" font-size="12" font-weight="700" fill="#555555">Event-Driven Consumer</text>
<rect x="50" y="88" width="140" height="34" fill="#f4f4f4" stroke="none"/>
<ellipse cx="120.0" cy="88" rx="70.0" ry="8" fill="#f4f4f4" stroke="#555555" stroke-width="1.5"/>
<ellipse cx="120.0" cy="122" rx="70.0" ry="8" fill="#f4f4f4" stroke="#555555" stroke-width="1.5"/>
<line x1="50" y1="88" x2="50" y2="122" stroke="#555555" stroke-width="1.5"/>
<line x1="190" y1="88" x2="190" y2="122" stroke="#555555" stroke-width="1.5"/>
<text x="120.0" y="103.0" font-size="13.5" font-weight="700" fill="#111111" text-anchor="middle">Kafka Topic</text>
<text x="120.0" y="120.0" font-size="11.5" fill="#555555" text-anchor="middle">3 partitions</text>
<rect x="240" y="60" width="140" height="40" rx="9" fill="#eef4fb" stroke="#2f6db5" stroke-width="2"/>
<text x="310.0" y="78.0" font-size="13.5" font-weight="700" fill="#111111" text-anchor="middle">Instance 1</text>
<text x="310.0" y="95.0" font-size="11.5" fill="#555555" text-anchor="middle">P0, P1</text>
<rect x="240" y="110" width="140" height="40" rx="9" fill="#eef4fb" stroke="#2f6db5" stroke-width="2"/>
<text x="310.0" y="128.0" font-size="13.5" font-weight="700" fill="#111111" text-anchor="middle">Instance 2</text>
<text x="310.0" y="145.0" font-size="11.5" fill="#555555" text-anchor="middle">P2</text>
<rect x="240" y="170" width="140" height="40" rx="9" fill="#f4f4f4" stroke="#666666" stroke-width="1.5"/>
<text x="310.0" y="188.0" font-size="13.5" font-weight="700" fill="#111111" text-anchor="middle">Instance 3</text>
<text x="310.0" y="205.0" font-size="11.5" fill="#555555" text-anchor="middle">(standby)</text>
<rect x="500" y="88" width="140" height="34" fill="#f4f4f4" stroke="none"/>
<ellipse cx="570.0" cy="88" rx="70.0" ry="8" fill="#f4f4f4" stroke="#555555" stroke-width="1.5"/>
<ellipse cx="570.0" cy="122" rx="70.0" ry="8" fill="#f4f4f4" stroke="#555555" stroke-width="1.5"/>
<line x1="500" y1="88" x2="500" y2="122" stroke="#555555" stroke-width="1.5"/>
<line x1="640" y1="88" x2="640" y2="122" stroke="#555555" stroke-width="1.5"/>
<text x="570.0" y="103.0" font-size="13.5" font-weight="700" fill="#111111" text-anchor="middle">Kafka Topic</text>
<text x="570.0" y="120.0" font-size="11.5" fill="#555555" text-anchor="middle">event stream</text>
<rect x="700" y="80" width="130" height="50" rx="9" fill="#fff8ef" stroke="#e8870c" stroke-width="2"/>
<g transform="translate(750.0,84) scale(0.25)"><!-- Event-Driven Consumer -->
  <rect x="40" y="40" width="40" height="30" fill="#FFF8F0" stroke="#151515" rx="3"/>
  <polyline points="56,44 53,55 62,55 58,66" fill="none" stroke="#EE0000" stroke-width="2"/>
  <line x1="60" y1="85" x2="60" y2="70" stroke="#151515"/>
  <polyline points="56,75 60,70 64,75" fill="none" stroke="#151515"/></g>
<text x="765.0" y="121.0" font-size="13.5" font-weight="700" fill="#111111" text-anchor="middle">Consumer</text>
<text x="765.0" y="138.0" font-size="11.5" fill="#555555" text-anchor="middle">callback on msg</text>
<path d="M190,95 L240,80" fill="none" stroke="#b8650a" stroke-width="2" marker-end="url(#am)"/>
<path d="M190,110 L240,130" fill="none" stroke="#555" stroke-width="2" marker-end="url(#a)"/>
<path d="M640,105 L700,105" fill="none" stroke="#b8650a" stroke-width="2" marker-end="url(#am)"/>
<text x="676.0" y="99.0" font-size="11" fill="#ffffff" stroke="#ffffff" stroke-width="3" paint-order="stroke" text-anchor="middle">push</text>
<text x="676.0" y="99.0" font-size="11" fill="#b8650a" text-anchor="middle">push</text>
<text x="220" y="240" font-size="11" fill="#555555" text-anchor="middle">Scale by adding instances</text>
<text x="700" y="170" font-size="11" fill="#555555" text-anchor="middle">Consumer reacts when message arrives</text>
</svg>