<svg xmlns="http://www.w3.org/2000/svg" viewBox="0 0 780 280" font-family="'Red Hat Text', system-ui, sans-serif" role="img">
<defs><marker id="a" viewBox="0 0 10 10" refX="8.5" refY="5" markerWidth="9" markerHeight="9" orient="auto-start-reverse"><path d="M0,0 L10,5 L0,10 z" fill="#555"/></marker><marker id="am" viewBox="0 0 10 10" refX="8.5" refY="5" markerWidth="9" markerHeight="9" orient="auto-start-reverse"><path d="M0,0 L10,5 L0,10 z" fill="#b8650a"/></marker></defs>
<rect x="20" y="10" width="350" height="260" rx="12" fill="#fafafa" stroke="#ddd"/>
<text x="32" y="30" font-size="12" font-weight="700" fill="#555555">Instance 1 (consumersCount=2)</text>
<rect x="400" y="10" width="360" height="260" rx="12" fill="#fafafa" stroke="#ddd"/>
<text x="412" y="30" font-size="12" font-weight="700" fill="#555555">Instance 2 (consumersCount=2)</text>
<rect x="50" y="50" width="140" height="40" rx="9" fill="#fff8ef" stroke="#e8870c" stroke-width="2"/>
<text x="120.0" y="75.5" font-size="13.5" font-weight="700" fill="#111111" text-anchor="middle">Thread-A</text>
<rect x="50" y="130" width="140" height="40" rx="9" fill="#fff8ef" stroke="#e8870c" stroke-width="2"/>
<text x="120.0" y="155.5" font-size="13.5" font-weight="700" fill="#111111" text-anchor="middle">Thread-B</text>
<rect x="210" y="40" width="130" height="25" rx="9" fill="#ffffff" stroke="#999999" stroke-width="1.5"/>
<text x="275.0" y="58.0" font-size="13.5" font-weight="700" fill="#111111" text-anchor="middle">P0</text>
<rect x="210" y="70" width="130" height="25" rx="9" fill="#ffffff" stroke="#999999" stroke-width="1.5"/>
<text x="275.0" y="88.0" font-size="13.5" font-weight="700" fill="#111111" text-anchor="middle">P1</text>
<rect x="210" y="100" width="130" height="25" rx="9" fill="#ffffff" stroke="#999999" stroke-width="1.5"/>
<text x="275.0" y="118.0" font-size="13.5" font-weight="700" fill="#111111" text-anchor="middle">P2</text>
<rect x="210" y="130" width="130" height="25" rx="9" fill="#ffffff" stroke="#999999" stroke-width="1.5"/>
<text x="275.0" y="148.0" font-size="13.5" font-weight="700" fill="#111111" text-anchor="middle">P3</text>
<rect x="210" y="160" width="130" height="25" rx="9" fill="#ffffff" stroke="#999999" stroke-width="1.5"/>
<text x="275.0" y="178.0" font-size="13.5" font-weight="700" fill="#111111" text-anchor="middle">P4</text>
<rect x="210" y="190" width="130" height="25" rx="9" fill="#ffffff" stroke="#999999" stroke-width="1.5"/>
<text x="275.0" y="208.0" font-size="13.5" font-weight="700" fill="#111111" text-anchor="middle">P5</text>
<rect x="430" y="50" width="140" height="40" rx="9" fill="#fff8ef" stroke="#e8870c" stroke-width="2"/>
<text x="500.0" y="75.5" font-size="13.5" font-weight="700" fill="#111111" text-anchor="middle">Thread-A</text>
<rect x="430" y="130" width="140" height="40" rx="9" fill="#fff8ef" stroke="#e8870c" stroke-width="2"/>
<text x="500.0" y="155.5" font-size="13.5" font-weight="700" fill="#111111" text-anchor="middle">Thread-B</text>
<rect x="590" y="40" width="130" height="25" rx="9" fill="#ffffff" stroke="#999999" stroke-width="1.5"/>
<text x="655.0" y="58.0" font-size="13.5" font-weight="700" fill="#111111" text-anchor="middle">P6</text>
<rect x="590" y="70" width="130" height="25" rx="9" fill="#ffffff" stroke="#999999" stroke-width="1.5"/>
<text x="655.0" y="88.0" font-size="13.5" font-weight="700" fill="#111111" text-anchor="middle">P7</text>
<rect x="590" y="100" width="130" height="25" rx="9" fill="#ffffff" stroke="#999999" stroke-width="1.5"/>
<text x="655.0" y="118.0" font-size="13.5" font-weight="700" fill="#111111" text-anchor="middle">P8</text>
<rect x="590" y="130" width="130" height="25" rx="9" fill="#ffffff" stroke="#999999" stroke-width="1.5"/>
<text x="655.0" y="148.0" font-size="13.5" font-weight="700" fill="#111111" text-anchor="middle">P9</text>
<rect x="590" y="160" width="130" height="25" rx="9" fill="#ffffff" stroke="#999999" stroke-width="1.5"/>
<text x="655.0" y="178.0" font-size="13.5" font-weight="700" fill="#111111" text-anchor="middle">P10</text>
<rect x="590" y="190" width="130" height="25" rx="9" fill="#ffffff" stroke="#999999" stroke-width="1.5"/>
<text x="655.0" y="208.0" font-size="13.5" font-weight="700" fill="#111111" text-anchor="middle">P11</text>
<path d="M190,70 L210,52" fill="none" stroke="#b8650a" stroke-width="2" marker-end="url(#am)"/>
<path d="M190,70 L210,82" fill="none" stroke="#b8650a" stroke-width="2" marker-end="url(#am)"/>
<path d="M190,70 L210,112" fill="none" stroke="#b8650a" stroke-width="2" marker-end="url(#am)"/>
<path d="M190,150 L210,142" fill="none" stroke="#b8650a" stroke-width="2" marker-end="url(#am)"/>
<path d="M190,150 L210,172" fill="none" stroke="#b8650a" stroke-width="2" marker-end="url(#am)"/>
<path d="M190,150 L210,202" fill="none" stroke="#b8650a" stroke-width="2" marker-end="url(#am)"/>
<path d="M570,70 L590,52" fill="none" stroke="#b8650a" stroke-width="2" marker-end="url(#am)"/>
<path d="M570,70 L590,82" fill="none" stroke="#b8650a" stroke-width="2" marker-end="url(#am)"/>
<path d="M570,70 L590,112" fill="none" stroke="#b8650a" stroke-width="2" marker-end="url(#am)"/>
<path d="M570,150 L590,142" fill="none" stroke="#b8650a" stroke-width="2" marker-end="url(#am)"/>
<path d="M570,150 L590,172" fill="none" stroke="#b8650a" stroke-width="2" marker-end="url(#am)"/>
<path d="M570,150 L590,202" fill="none" stroke="#b8650a" stroke-width="2" marker-end="url(#am)"/>
<text x="390" y="250" font-size="11" fill="#555555" text-anchor="middle">4 threads × 3 partitions each = 12 partitions total</text>
</svg>