<svg xmlns="http://www.w3.org/2000/svg" viewBox="0 0 880 300" font-family="'Red Hat Text', system-ui, sans-serif" role="img">
<defs><marker id="a" viewBox="0 0 10 10" refX="8.5" refY="5" markerWidth="9" markerHeight="9" orient="auto-start-reverse"><path d="M0,0 L10,5 L0,10 z" fill="#555"/></marker><marker id="am" viewBox="0 0 10 10" refX="8.5" refY="5" markerWidth="9" markerHeight="9" orient="auto-start-reverse"><path d="M0,0 L10,5 L0,10 z" fill="#b8650a"/></marker></defs>
<rect x="20" y="20" width="840" height="260" rx="12" fill="#fafafa" stroke="#ddd"/>
<text x="32" y="40" font-size="12" font-weight="700" fill="#888">Outbox Pattern — Transactional Client</text>
<rect x="50" y="80" width="130" height="50" rx="9" fill="#fff8ef" stroke="#e8870c" stroke-width="2"/>
<text x="115.0" y="103.0" font-size="13.5" font-weight="700" fill="#111111" text-anchor="middle">Application</text>
<text x="115.0" y="120.0" font-size="11.5" fill="#555555" text-anchor="middle">business logic</text>
<rect x="240" y="60" width="150" height="40" rx="9" fill="#ffffff" stroke="#111111" stroke-width="2"/>
<text x="315.0" y="78.0" font-size="13.5" font-weight="700" fill="#111111" text-anchor="middle">orders table</text>
<text x="315.0" y="95.0" font-size="11.5" fill="#555555" text-anchor="middle">INSERT order</text>
<rect x="240" y="120" width="150" height="40" rx="9" fill="#ffffff" stroke="#111111" stroke-width="2"/>
<text x="315.0" y="138.0" font-size="13.5" font-weight="700" fill="#111111" text-anchor="middle">outbox table</text>
<text x="315.0" y="155.0" font-size="11.5" fill="#555555" text-anchor="middle">INSERT event</text>
<rect x="160" y="170" width="100" height="30" rx="9" fill="#111111" stroke="#111111" stroke-width="2"/>
<text x="210.0" y="190.5" font-size="13.5" font-weight="700" fill="#ffffff" text-anchor="middle">TX COMMIT</text>
<rect x="480" y="100" width="140" height="50" rx="9" fill="#eef4fb" stroke="#2f6db5" stroke-width="2"/>
<text x="550.0" y="123.0" font-size="13.5" font-weight="700" fill="#111111" text-anchor="middle">CDC / Poller</text>
<text x="550.0" y="140.0" font-size="11.5" fill="#555555" text-anchor="middle">reads outbox</text>
<rect x="680" y="100" width="140" height="50" rx="9" fill="#fff8ef" stroke="#e8870c" stroke-width="2"/>
<text x="750.0" y="123.0" font-size="13.5" font-weight="700" fill="#111111" text-anchor="middle">Kafka</text>
<text x="750.0" y="140.0" font-size="11.5" fill="#555555" text-anchor="middle">event published</text>
<path d="M180,95 L240,80" fill="none" stroke="#b8650a" stroke-width="2" marker-end="url(#am)"/>
<path d="M180,110 L240,140" fill="none" stroke="#b8650a" stroke-width="2" marker-end="url(#am)"/>
<text x="216.0" y="119.0" font-size="11" fill="#ffffff" stroke="#ffffff" stroke-width="3" paint-order="stroke" text-anchor="middle">same TX</text>
<text x="216.0" y="119.0" font-size="11" fill="#b8650a" text-anchor="middle">same TX</text>
<path d="M390,140 L480,125" fill="none" stroke="#555" stroke-width="2" marker-end="url(#a)"/>
<text x="441.0" y="126.5" font-size="11" fill="#ffffff" stroke="#ffffff" stroke-width="3" paint-order="stroke" text-anchor="middle">poll/CDC</text>
<text x="441.0" y="126.5" font-size="11" fill="#555" text-anchor="middle">poll/CDC</text>
<path d="M620,125 L680,125" fill="none" stroke="#b8650a" stroke-width="2" marker-end="url(#am)"/>
<text x="656.0" y="119.0" font-size="11" fill="#ffffff" stroke="#ffffff" stroke-width="3" paint-order="stroke" text-anchor="middle">publish</text>
<text x="656.0" y="119.0" font-size="11" fill="#b8650a" text-anchor="middle">publish</text>
<text x="300" y="220" font-size="11" fill="#888" text-anchor="middle">Both writes in one DB transaction — atomic</text>
<text x="620" y="180" font-size="11" fill="#888" text-anchor="middle">Eventually consistent with Kafka</text>
</svg>