<svg xmlns="http://www.w3.org/2000/svg" viewBox="0 0 880 260" font-family="'Red Hat Text', system-ui, sans-serif" role="img">
<defs><marker id="a" viewBox="0 0 10 10" refX="8.5" refY="5" markerWidth="9" markerHeight="9" orient="auto-start-reverse"><path d="M0,0 L10,5 L0,10 z" fill="#555"/></marker><marker id="am" viewBox="0 0 10 10" refX="8.5" refY="5" markerWidth="9" markerHeight="9" orient="auto-start-reverse"><path d="M0,0 L10,5 L0,10 z" fill="#b8650a"/></marker></defs>
<rect x="20" y="20" width="840" height="220" rx="12" fill="#fafafa" stroke="#ddd"/>
<text x="32" y="40" font-size="12" font-weight="700" fill="#888">Messaging Gateway Pattern</text>
<rect x="50" y="80" width="130" height="50" rx="9" fill="#fff8ef" stroke="#e8870c" stroke-width="2"/>
<text x="115.0" y="103.0" font-size="13.5" font-weight="700" fill="#111111" text-anchor="middle">Application</text>
<text x="115.0" y="120.0" font-size="11.5" fill="#555555" text-anchor="middle">REST / gRPC</text>
<rect x="240" y="80" width="160" height="60" rx="9" fill="#111111" stroke="#111111" stroke-width="2"/>
<text x="320.0" y="100.5" font-size="13.5" font-weight="700" fill="#ffffff" text-anchor="middle">Messaging Gateway</text>
<text x="320.0" y="117.5" font-size="11.5" fill="#dddddd" text-anchor="middle">hides messaging</text>
<text x="320.0" y="132.5" font-size="11.5" fill="#dddddd" text-anchor="middle">from application</text>
<rect x="470" y="60" width="140" height="40" rx="9" fill="#ffffff" stroke="#111111" stroke-width="2"/>
<text x="540.0" y="78.0" font-size="13.5" font-weight="700" fill="#111111" text-anchor="middle">Kafka Producer</text>
<text x="540.0" y="95.0" font-size="11.5" fill="#555555" text-anchor="middle">eip.orders.*</text>
<rect x="470" y="120" width="140" height="40" rx="9" fill="#ffffff" stroke="#111111" stroke-width="2"/>
<text x="540.0" y="138.0" font-size="13.5" font-weight="700" fill="#111111" text-anchor="middle">Kafka Consumer</text>
<text x="540.0" y="155.0" font-size="11.5" fill="#555555" text-anchor="middle">eip.inventory.*</text>
<rect x="680" y="80" width="140" height="50" rx="9" fill="#eef4fb" stroke="#2f6db5" stroke-width="2"/>
<text x="750.0" y="103.0" font-size="13.5" font-weight="700" fill="#111111" text-anchor="middle">Messaging</text>
<text x="750.0" y="120.0" font-size="11.5" fill="#555555" text-anchor="middle">System</text>
<path d="M180,105 L240,110" fill="none" stroke="#b8650a" stroke-width="2" marker-end="url(#am)"/>
<text x="216.0" y="101.5" font-size="11" fill="#ffffff" stroke="#ffffff" stroke-width="3" paint-order="stroke" text-anchor="middle">method call</text>
<text x="216.0" y="101.5" font-size="11" fill="#b8650a" text-anchor="middle">method call</text>
<path d="M400,100 L470,80" fill="none" stroke="#555" stroke-width="2" marker-end="url(#a)"/>
<path d="M400,115 L470,140" fill="none" stroke="#555" stroke-width="2" marker-end="url(#a)"/>
<path d="M610,80 L680,95" fill="none" stroke="#b8650a" stroke-width="2" marker-end="url(#am)"/>
<path d="M610,140 L680,115" fill="none" stroke="#b8650a" stroke-width="2" marker-end="url(#am)"/>
<text x="320" y="175" font-size="11" fill="#888" text-anchor="middle">Application code never touches Kafka directly</text>
</svg>