<svg xmlns="http://www.w3.org/2000/svg" viewBox="0 0 880 260" font-family="'Red Hat Text', system-ui, sans-serif" role="img">
<defs><marker id="a" viewBox="0 0 10 10" refX="8.5" refY="5" markerWidth="9" markerHeight="9" orient="auto-start-reverse"><path d="M0,0 L10,5 L0,10 z" fill="#555"/></marker><marker id="am" viewBox="0 0 10 10" refX="8.5" refY="5" markerWidth="9" markerHeight="9" orient="auto-start-reverse"><path d="M0,0 L10,5 L0,10 z" fill="#b8650a"/></marker></defs>
<rect x="20" y="20" width="840" height="220" rx="12" fill="#fafafa" stroke="#ddd"/>
<text x="32" y="40" font-size="12" font-weight="700" fill="#555555">Control Bus — Observability</text>
<rect x="50" y="70" width="120" height="50" rx="9" fill="#fff8ef" stroke="#e8870c" stroke-width="2"/>
<text x="110.0" y="93.0" font-size="13.5" font-weight="700" fill="#111111" text-anchor="middle">Operator</text>
<text x="110.0" y="110.0" font-size="11.5" fill="#555555" text-anchor="middle">control panel</text>
<rect x="240" y="70" width="160" height="50" rx="9" fill="#fff8ef" stroke="#e8870c" stroke-width="2"/>
<g transform="translate(305.0,74) scale(0.25)"><!-- Control Bus -->
  <rect x="15" y="55" width="90" height="8" fill="#EE0000" stroke="#151515" rx="4"/>
  <line x1="30" y1="55" x2="30" y2="40" stroke="#151515" stroke-dasharray="3,2"/>
  <polygon points="30.0,24.0 33.3,27.5 37.6,29.5 35.3,33.7 34.7,38.5 30.0,37.6 25.3,38.5 24.7,33.7 22.4,29.5 26.7,27.5" fill="#FFF8F0" stroke="#151515"/>
  <circle cx="30" cy="32" r="2.0" fill="#151515"/>
  <line x1="55" y1="55" x2="55" y2="40" stroke="#151515" stroke-dasharray="3,2"/>
  <polygon points="55.0,24.0 58.3,27.5 62.6,29.5 60.3,33.7 59.7,38.5 55.0,37.6 50.3,38.5 49.7,33.7 47.4,29.5 51.7,27.5" fill="#FFF8F0" stroke="#151515"/>
  <circle cx="55" cy="32" r="2.0" fill="#151515"/>
  <line x1="80" y1="55" x2="80" y2="40" stroke="#151515" stroke-dasharray="3,2"/>
  <polygon points="80.0,24.0 83.3,27.5 87.6,29.5 85.3,33.7 84.7,38.5 80.0,37.6 75.3,38.5 74.7,33.7 72.4,29.5 76.7,27.5" fill="#FFF8F0" stroke="#151515"/>
  <circle cx="80" cy="32" r="2.0" fill="#151515"/></g>
<text x="320.0" y="111.0" font-size="13.5" font-weight="700" fill="#111111" text-anchor="middle">Control Bus</text>
<text x="320.0" y="128.0" font-size="11.5" fill="#555555" text-anchor="middle">controlbus:route</text>
<rect x="500" y="50" width="140" height="40" rx="9" fill="#ffffff" stroke="#111111" stroke-width="2"/>
<text x="570.0" y="68.0" font-size="13.5" font-weight="700" fill="#111111" text-anchor="middle">Route: order-flow</text>
<text x="570.0" y="85.0" font-size="11.5" fill="#555555" text-anchor="middle">status: started</text>
<rect x="500" y="100" width="140" height="40" rx="9" fill="#f4f4f4" stroke="#666666" stroke-width="1.5"/>
<text x="570.0" y="118.0" font-size="13.5" font-weight="700" fill="#111111" text-anchor="middle">Route: debug-tap</text>
<text x="570.0" y="135.0" font-size="11.5" fill="#555555" text-anchor="middle">status: stopped</text>
<rect x="500" y="150" width="140" height="40" rx="9" fill="#ffffff" stroke="#111111" stroke-width="2"/>
<text x="570.0" y="168.0" font-size="13.5" font-weight="700" fill="#111111" text-anchor="middle">Route: dlq-handler</text>
<text x="570.0" y="185.0" font-size="11.5" fill="#555555" text-anchor="middle">status: started</text>
<rect x="720" y="70" width="120" height="50" rx="9" fill="#eef4fb" stroke="#2f6db5" stroke-width="2"/>
<text x="780.0" y="93.0" font-size="13.5" font-weight="700" fill="#111111" text-anchor="middle">Metrics</text>
<text x="780.0" y="110.0" font-size="11.5" fill="#555555" text-anchor="middle">OTel + Grafana</text>
<path d="M170,95 L240,95" fill="none" stroke="#b8650a" stroke-width="2" marker-end="url(#am)"/>
<text x="211.0" y="89.0" font-size="11" fill="#ffffff" stroke="#ffffff" stroke-width="3" paint-order="stroke" text-anchor="middle">start/stop</text>
<text x="211.0" y="89.0" font-size="11" fill="#b8650a" text-anchor="middle">start/stop</text>
<path d="M400,85 L500,70" fill="none" stroke="#555" stroke-width="2" marker-end="url(#a)"/>
<path d="M400,95 L500,120" fill="none" stroke="#555" stroke-width="2" marker-end="url(#a)"/>
<text x="456.0" y="101.5" font-size="11" fill="#ffffff" stroke="#ffffff" stroke-width="3" paint-order="stroke" text-anchor="middle">manage</text>
<text x="456.0" y="101.5" font-size="11" fill="#555" text-anchor="middle">manage</text>
<path d="M400,105 L500,170" fill="none" stroke="#555" stroke-width="2" marker-end="url(#a)"/>
<path d="M640,90 L720,90" fill="none" stroke="#555" stroke-width="2" marker-end="url(#a)"/>
<text x="686.0" y="84.0" font-size="11" fill="#ffffff" stroke="#ffffff" stroke-width="3" paint-order="stroke" text-anchor="middle">export</text>
<text x="686.0" y="84.0" font-size="11" fill="#555" text-anchor="middle">export</text>
<text x="440" y="215" font-size="11" fill="#555555" text-anchor="middle">Start, stop, and query routes at runtime without redeployment</text>
</svg>