<svg xmlns="http://www.w3.org/2000/svg" viewBox="0 0 880 260" font-family="'Red Hat Text', system-ui, sans-serif" role="img">
<defs><marker id="a" viewBox="0 0 10 10" refX="8.5" refY="5" markerWidth="9" markerHeight="9" orient="auto-start-reverse"><path d="M0,0 L10,5 L0,10 z" fill="#555"/></marker><marker id="am" viewBox="0 0 10 10" refX="8.5" refY="5" markerWidth="9" markerHeight="9" orient="auto-start-reverse"><path d="M0,0 L10,5 L0,10 z" fill="#b8650a"/></marker></defs>
<rect x="20" y="20" width="840" height="220" rx="12" fill="#fafafa" stroke="#ddd"/>
<text x="32" y="40" font-size="12" font-weight="700" fill="#888">Control Bus — Observability</text>
<rect x="50" y="70" width="120" height="50" rx="9" fill="#fff8ef" stroke="#e8870c" stroke-width="2"/>
<text x="110.0" y="93.0" font-size="13.5" font-weight="700" fill="#111111" text-anchor="middle">Operator</text>
<text x="110.0" y="110.0" font-size="11.5" fill="#555555" text-anchor="middle">control panel</text>
<rect x="240" y="70" width="160" height="50" rx="9" fill="#111111" stroke="#111111" stroke-width="2"/>
<text x="320.0" y="93.0" font-size="13.5" font-weight="700" fill="#ffffff" text-anchor="middle">Control Bus</text>
<text x="320.0" y="110.0" font-size="11.5" fill="#dddddd" text-anchor="middle">controlbus:route</text>
<rect x="500" y="50" width="140" height="40" rx="9" fill="#ffffff" stroke="#111111" stroke-width="2"/>
<text x="570.0" y="68.0" font-size="13.5" font-weight="700" fill="#111111" text-anchor="middle">Route: order-flow</text>
<text x="570.0" y="85.0" font-size="11.5" fill="#555555" text-anchor="middle">status: started</text>
<rect x="500" y="100" width="140" height="40" rx="9" fill="#f4f4f4" stroke="#888888" stroke-width="1.5"/>
<text x="570.0" y="118.0" font-size="13.5" font-weight="700" fill="#111111" text-anchor="middle">Route: debug-tap</text>
<text x="570.0" y="135.0" font-size="11.5" fill="#555555" text-anchor="middle">status: stopped</text>
<rect x="500" y="150" width="140" height="40" rx="9" fill="#ffffff" stroke="#111111" stroke-width="2"/>
<text x="570.0" y="168.0" font-size="13.5" font-weight="700" fill="#111111" text-anchor="middle">Route: dlq-handler</text>
<text x="570.0" y="185.0" font-size="11.5" fill="#555555" text-anchor="middle">status: started</text>
<rect x="720" y="70" width="120" height="50" rx="9" fill="#eef4fb" stroke="#2f6db5" stroke-width="2"/>
<text x="780.0" y="93.0" font-size="13.5" font-weight="700" fill="#111111" text-anchor="middle">Metrics</text>
<text x="780.0" y="110.0" font-size="11.5" fill="#555555" text-anchor="middle">OTel + Grafana</text>
<path d="M170,95 L240,95" fill="none" stroke="#b8650a" stroke-width="2" marker-end="url(#am)"/>
<text x="211.0" y="89.0" font-size="11" fill="#ffffff" stroke="#ffffff" stroke-width="3" paint-order="stroke" text-anchor="middle">start/stop</text>
<text x="211.0" y="89.0" font-size="11" fill="#b8650a" text-anchor="middle">start/stop</text>
<path d="M400,85 L500,70" fill="none" stroke="#555" stroke-width="2" marker-end="url(#a)"/>
<path d="M400,95 L500,120" fill="none" stroke="#555" stroke-width="2" marker-end="url(#a)"/>
<text x="456.0" y="101.5" font-size="11" fill="#ffffff" stroke="#ffffff" stroke-width="3" paint-order="stroke" text-anchor="middle">manage</text>
<text x="456.0" y="101.5" font-size="11" fill="#555" text-anchor="middle">manage</text>
<path d="M400,105 L500,170" fill="none" stroke="#555" stroke-width="2" marker-end="url(#a)"/>
<path d="M640,90 L720,90" fill="none" stroke="#555" stroke-width="2" marker-end="url(#a)"/>
<text x="686.0" y="84.0" font-size="11" fill="#ffffff" stroke="#ffffff" stroke-width="3" paint-order="stroke" text-anchor="middle">export</text>
<text x="686.0" y="84.0" font-size="11" fill="#555" text-anchor="middle">export</text>
<text x="440" y="215" font-size="11" fill="#888" text-anchor="middle">Start, stop, and query routes at runtime without redeployment</text>
</svg>