<svg xmlns="http://www.w3.org/2000/svg" viewBox="0 0 740 340" font-family="'Red Hat Text', system-ui, sans-serif" role="img">
<defs><marker id="a" viewBox="0 0 10 10" refX="8.5" refY="5" markerWidth="9" markerHeight="9" orient="auto-start-reverse"><path d="M0,0 L10,5 L0,10 z" fill="#555"/></marker><marker id="am" viewBox="0 0 10 10" refX="8.5" refY="5" markerWidth="9" markerHeight="9" orient="auto-start-reverse"><path d="M0,0 L10,5 L0,10 z" fill="#b8650a"/></marker></defs>
<rect x="20" y="10" width="340" height="140" rx="12" fill="#fafafa" stroke="#ddd"/>
<text x="32" y="30" font-size="12" font-weight="700" fill="#555555">Before rebalance (2 consumers)</text>
<rect x="400" y="10" width="320" height="140" rx="12" fill="#fafafa" stroke="#ddd"/>
<text x="412" y="30" font-size="12" font-weight="700" fill="#555555">After C joins</text>
<rect x="400" y="170" width="320" height="160" rx="12" fill="#fafafa" stroke="#ddd"/>
<text x="412" y="190" font-size="12" font-weight="700" fill="#555555">After B crashes</text>
<rect x="50" y="45" width="130" height="35" rx="9" fill="#fff8ef" stroke="#e8870c" stroke-width="2"/>
<text x="115.0" y="68.0" font-size="13.5" font-weight="700" fill="#111111" text-anchor="middle">Consumer A</text>
<rect x="50" y="95" width="130" height="35" rx="9" fill="#fff8ef" stroke="#e8870c" stroke-width="2"/>
<text x="115.0" y="118.0" font-size="13.5" font-weight="700" fill="#111111" text-anchor="middle">Consumer B</text>
<rect x="200" y="40" width="60" height="25" rx="9" fill="#ffffff" stroke="#999999" stroke-width="1.5"/>
<text x="230.0" y="58.0" font-size="13.5" font-weight="700" fill="#111111" text-anchor="middle">P0</text>
<rect x="270" y="40" width="60" height="25" rx="9" fill="#ffffff" stroke="#999999" stroke-width="1.5"/>
<text x="300.0" y="58.0" font-size="13.5" font-weight="700" fill="#111111" text-anchor="middle">P1</text>
<rect x="200" y="100" width="60" height="25" rx="9" fill="#ffffff" stroke="#999999" stroke-width="1.5"/>
<text x="230.0" y="118.0" font-size="13.5" font-weight="700" fill="#111111" text-anchor="middle">P2</text>
<rect x="430" y="40" width="130" height="30" rx="9" fill="#fff8ef" stroke="#e8870c" stroke-width="2"/>
<text x="495.0" y="60.5" font-size="13.5" font-weight="700" fill="#111111" text-anchor="middle">Consumer A</text>
<rect x="430" y="75" width="130" height="30" rx="9" fill="#fff8ef" stroke="#e8870c" stroke-width="2"/>
<text x="495.0" y="95.5" font-size="13.5" font-weight="700" fill="#111111" text-anchor="middle">Consumer B</text>
<rect x="430" y="110" width="130" height="30" rx="9" fill="#fff8ef" stroke="#e8870c" stroke-width="2"/>
<text x="495.0" y="130.5" font-size="13.5" font-weight="700" fill="#111111" text-anchor="middle">Consumer C</text>
<rect x="590" y="45" width="60" height="25" rx="9" fill="#ffffff" stroke="#999999" stroke-width="1.5"/>
<text x="620.0" y="63.0" font-size="13.5" font-weight="700" fill="#111111" text-anchor="middle">P0</text>
<rect x="590" y="80" width="60" height="25" rx="9" fill="#ffffff" stroke="#999999" stroke-width="1.5"/>
<text x="620.0" y="98.0" font-size="13.5" font-weight="700" fill="#111111" text-anchor="middle">P1</text>
<rect x="590" y="115" width="60" height="25" rx="9" fill="#ffffff" stroke="#999999" stroke-width="1.5"/>
<text x="620.0" y="133.0" font-size="13.5" font-weight="700" fill="#111111" text-anchor="middle">P2</text>
<rect x="430" y="200" width="130" height="35" rx="9" fill="#fff8ef" stroke="#e8870c" stroke-width="2"/>
<text x="495.0" y="223.0" font-size="13.5" font-weight="700" fill="#111111" text-anchor="middle">Consumer A</text>
<rect x="430" y="265" width="130" height="35" rx="9" fill="#fff8ef" stroke="#e8870c" stroke-width="2"/>
<text x="495.0" y="288.0" font-size="13.5" font-weight="700" fill="#111111" text-anchor="middle">Consumer C</text>
<rect x="590" y="195" width="60" height="25" rx="9" fill="#ffffff" stroke="#999999" stroke-width="1.5"/>
<text x="620.0" y="213.0" font-size="13.5" font-weight="700" fill="#111111" text-anchor="middle">P0</text>
<rect x="660" y="195" width="60" height="25" rx="9" fill="#ffffff" stroke="#999999" stroke-width="1.5"/>
<text x="690.0" y="213.0" font-size="13.5" font-weight="700" fill="#111111" text-anchor="middle">P1</text>
<rect x="590" y="270" width="60" height="25" rx="9" fill="#ffffff" stroke="#999999" stroke-width="1.5"/>
<text x="620.0" y="288.0" font-size="13.5" font-weight="700" fill="#111111" text-anchor="middle">P2</text>
<path d="M180,57 L200,52" fill="none" stroke="#b8650a" stroke-width="2" marker-end="url(#am)"/>
<path d="M180,62 L200,52" fill="none" stroke="#b8650a" stroke-width="2" marker-end="url(#am)"/>
<path d="M180,112 L200,112" fill="none" stroke="#b8650a" stroke-width="2" marker-end="url(#am)"/>
<path d="M560,55 L590,57" fill="none" stroke="#b8650a" stroke-width="2" marker-end="url(#am)"/>
<path d="M560,90 L590,92" fill="none" stroke="#b8650a" stroke-width="2" marker-end="url(#am)"/>
<path d="M560,125 L590,127" fill="none" stroke="#b8650a" stroke-width="2" marker-end="url(#am)"/>
<path d="M560,217 L590,207" fill="none" stroke="#b8650a" stroke-width="2" marker-end="url(#am)"/>
<path d="M560,217 L590,207" fill="none" stroke="#b8650a" stroke-width="2" marker-end="url(#am)"/>
<path d="M560,282 L590,282" fill="none" stroke="#b8650a" stroke-width="2" marker-end="url(#am)"/>
<text x="200" y="145" font-size="11" fill="#555555" text-anchor="middle">A: P0, P1 — B: P2</text>
<text x="540" y="150" font-size="11" fill="#555555" text-anchor="middle">A: P0 — B: P1 — C: P2</text>
<text x="540" y="315" font-size="11" fill="#555555" text-anchor="middle">A: P0, P1 — C: P2</text>
</svg>