<svg xmlns="http://www.w3.org/2000/svg" viewBox="0 0 900 320" font-family="'Red Hat Text', system-ui, sans-serif" role="img">
<defs><marker id="a" viewBox="0 0 10 10" refX="8.5" refY="5" markerWidth="9" markerHeight="9" orient="auto-start-reverse"><path d="M0,0 L10,5 L0,10 z" fill="#555"/></marker><marker id="am" viewBox="0 0 10 10" refX="8.5" refY="5" markerWidth="9" markerHeight="9" orient="auto-start-reverse"><path d="M0,0 L10,5 L0,10 z" fill="#b8650a"/></marker></defs>
<rect x="20" y="20" width="860" height="280" rx="12" fill="#fafafa" stroke="#ddd"/>
<text x="32" y="40" font-size="12" font-weight="700" fill="#888">Kafka Cluster (KRaft)</text>
<rect x="50" y="70" width="120" height="50" rx="9" fill="#fff8ef" stroke="#e8870c" stroke-width="2"/>
<text x="110.0" y="93.0" font-size="13.5" font-weight="700" fill="#111111" text-anchor="middle">Producer</text>
<text x="110.0" y="110.0" font-size="11.5" fill="#555555" text-anchor="middle">acks=all</text>
<rect x="50" y="180" width="120" height="50" rx="9" fill="#eef4fb" stroke="#2f6db5" stroke-width="2"/>
<text x="110.0" y="203.0" font-size="13.5" font-weight="700" fill="#111111" text-anchor="middle">Consumer</text>
<text x="110.0" y="220.0" font-size="11.5" fill="#555555" text-anchor="middle">group.id=svc</text>
<rect x="240" y="60" width="130" height="40" rx="9" fill="#ffffff" stroke="#111111" stroke-width="2"/>
<text x="305.0" y="78.0" font-size="13.5" font-weight="700" fill="#111111" text-anchor="middle">Broker 1</text>
<text x="305.0" y="95.0" font-size="11.5" fill="#555555" text-anchor="middle">controller</text>
<rect x="240" y="110" width="130" height="40" rx="9" fill="#ffffff" stroke="#111111" stroke-width="2"/>
<text x="305.0" y="128.0" font-size="13.5" font-weight="700" fill="#111111" text-anchor="middle">Broker 2</text>
<text x="305.0" y="145.0" font-size="11.5" fill="#555555" text-anchor="middle">follower</text>
<rect x="240" y="160" width="130" height="40" rx="9" fill="#ffffff" stroke="#111111" stroke-width="2"/>
<text x="305.0" y="178.0" font-size="13.5" font-weight="700" fill="#111111" text-anchor="middle">Broker 3</text>
<text x="305.0" y="195.0" font-size="11.5" fill="#555555" text-anchor="middle">follower</text>
<rect x="440" y="55" width="90" height="35" rx="9" fill="#111111" stroke="#111111" stroke-width="2"/>
<text x="485.0" y="78.0" font-size="13.5" font-weight="700" fill="#ffffff" text-anchor="middle">P0</text>
<rect x="540" y="55" width="90" height="35" rx="9" fill="#111111" stroke="#111111" stroke-width="2"/>
<text x="585.0" y="78.0" font-size="13.5" font-weight="700" fill="#ffffff" text-anchor="middle">P1</text>
<rect x="640" y="55" width="90" height="35" rx="9" fill="#111111" stroke="#111111" stroke-width="2"/>
<text x="685.0" y="78.0" font-size="13.5" font-weight="700" fill="#ffffff" text-anchor="middle">P2</text>
<rect x="440" y="100" width="90" height="35" rx="9" fill="#f4f4f4" stroke="#888888" stroke-width="1.5"/>
<text x="485.0" y="123.0" font-size="13.5" font-weight="700" fill="#111111" text-anchor="middle">P0 replica</text>
<rect x="540" y="100" width="90" height="35" rx="9" fill="#f4f4f4" stroke="#888888" stroke-width="1.5"/>
<text x="585.0" y="123.0" font-size="13.5" font-weight="700" fill="#111111" text-anchor="middle">P1 replica</text>
<rect x="640" y="100" width="90" height="35" rx="9" fill="#f4f4f4" stroke="#888888" stroke-width="1.5"/>
<text x="685.0" y="123.0" font-size="13.5" font-weight="700" fill="#111111" text-anchor="middle">P2 replica</text>
<rect x="440" y="150" width="90" height="35" rx="9" fill="#f4f4f4" stroke="#888888" stroke-width="1.5"/>
<text x="485.0" y="173.0" font-size="13.5" font-weight="700" fill="#111111" text-anchor="middle">P0 replica</text>
<rect x="540" y="150" width="90" height="35" rx="9" fill="#f4f4f4" stroke="#888888" stroke-width="1.5"/>
<text x="585.0" y="173.0" font-size="13.5" font-weight="700" fill="#111111" text-anchor="middle">P1 replica</text>
<rect x="640" y="150" width="90" height="35" rx="9" fill="#f4f4f4" stroke="#888888" stroke-width="1.5"/>
<text x="685.0" y="173.0" font-size="13.5" font-weight="700" fill="#111111" text-anchor="middle">P2 replica</text>
<rect x="780" y="60" width="80" height="40" rx="9" fill="#eef4fb" stroke="#2f6db5" stroke-width="2"/>
<text x="820.0" y="78.0" font-size="13.5" font-weight="700" fill="#111111" text-anchor="middle">C1</text>
<text x="820.0" y="95.0" font-size="11.5" fill="#555555" text-anchor="middle">P0, P1</text>
<rect x="780" y="120" width="80" height="40" rx="9" fill="#eef4fb" stroke="#2f6db5" stroke-width="2"/>
<text x="820.0" y="138.0" font-size="13.5" font-weight="700" fill="#111111" text-anchor="middle">C2</text>
<text x="820.0" y="155.0" font-size="11.5" fill="#555555" text-anchor="middle">P2</text>
<rect x="780" y="190" width="80" height="40" rx="9" fill="#f4f4f4" stroke="#888888" stroke-width="1.5"/>
<text x="820.0" y="208.0" font-size="13.5" font-weight="700" fill="#111111" text-anchor="middle">C3</text>
<text x="820.0" y="225.0" font-size="11.5" fill="#555555" text-anchor="middle">standby</text>
<path d="M170,95 L240,80" fill="none" stroke="#b8650a" stroke-width="2" marker-end="url(#am)"/>
<text x="211.0" y="81.5" font-size="11" fill="#ffffff" stroke="#ffffff" stroke-width="3" paint-order="stroke" text-anchor="middle">write</text>
<text x="211.0" y="81.5" font-size="11" fill="#b8650a" text-anchor="middle">write</text>
<path d="M170,205 L240,180" fill="none" stroke="#555" stroke-width="2" marker-end="url(#a)"/>
<text x="211.0" y="186.5" font-size="11" fill="#ffffff" stroke="#ffffff" stroke-width="3" paint-order="stroke" text-anchor="middle">read</text>
<text x="211.0" y="186.5" font-size="11" fill="#555" text-anchor="middle">read</text>
<path d="M730,73 L780,80" fill="none" stroke="#555" stroke-width="2" marker-end="url(#a)"/>
<path d="M730,73 L780,140" fill="none" stroke="#555" stroke-width="2" marker-end="url(#a)"/>
<text x="761.0" y="100.5" font-size="11" fill="#ffffff" stroke="#ffffff" stroke-width="3" paint-order="stroke" text-anchor="middle">assign</text>
<text x="761.0" y="100.5" font-size="11" fill="#555" text-anchor="middle">assign</text>
<text x="560" y="210" font-size="11" fill="#888" text-anchor="middle">3 partitions × 3 replicas = 9 segment copies</text>
<text x="560" y="240" font-size="11" fill="#888" text-anchor="middle">min.insync.replicas=2 for durability</text>
</svg>