<svg xmlns="http://www.w3.org/2000/svg" viewBox="0 0 900 320" font-family="'Red Hat Text', system-ui, sans-serif" role="img">
<defs><marker id="a" viewBox="0 0 10 10" refX="8.5" refY="5" markerWidth="9" markerHeight="9" orient="auto-start-reverse"><path d="M0,0 L10,5 L0,10 z" fill="#555"/></marker><marker id="am" viewBox="0 0 10 10" refX="8.5" refY="5" markerWidth="9" markerHeight="9" orient="auto-start-reverse"><path d="M0,0 L10,5 L0,10 z" fill="#b8650a"/></marker></defs>
<rect x="20" y="20" width="860" height="280" rx="12" fill="#fafafa" stroke="#ddd"/>
<text x="32" y="40" font-size="12" font-weight="700" fill="#555555">Pulsar Cluster</text>
<rect x="50" y="80" width="120" height="50" rx="9" fill="#fff8ef" stroke="#e8870c" stroke-width="2"/>
<text x="110.0" y="103.0" font-size="13.5" font-weight="700" fill="#111111" text-anchor="middle">Producer</text>
<text x="110.0" y="120.0" font-size="11.5" fill="#555555" text-anchor="middle">tenant/ns/topic</text>
<rect x="50" y="190" width="120" height="50" rx="9" fill="#eef4fb" stroke="#2f6db5" stroke-width="2"/>
<text x="110.0" y="213.0" font-size="13.5" font-weight="700" fill="#111111" text-anchor="middle">Consumer</text>
<text x="110.0" y="230.0" font-size="11.5" fill="#555555" text-anchor="middle">subscription</text>
<rect x="240" y="60" width="130" height="50" rx="9" fill="#ffffff" stroke="#111111" stroke-width="2"/>
<text x="305.0" y="83.0" font-size="13.5" font-weight="700" fill="#111111" text-anchor="middle">Broker 1</text>
<text x="305.0" y="100.0" font-size="11.5" fill="#555555" text-anchor="middle">stateless</text>
<rect x="240" y="130" width="130" height="50" rx="9" fill="#ffffff" stroke="#111111" stroke-width="2"/>
<text x="305.0" y="153.0" font-size="13.5" font-weight="700" fill="#111111" text-anchor="middle">Broker 2</text>
<text x="305.0" y="170.0" font-size="11.5" fill="#555555" text-anchor="middle">stateless</text>
<rect x="450" y="60" width="140" height="50" rx="9" fill="#111111" stroke="#111111" stroke-width="2"/>
<text x="520.0" y="83.0" font-size="13.5" font-weight="700" fill="#ffffff" text-anchor="middle">BookKeeper</text>
<text x="520.0" y="100.0" font-size="11.5" fill="#dddddd" text-anchor="middle">bookie 1</text>
<rect x="450" y="130" width="140" height="50" rx="9" fill="#111111" stroke="#111111" stroke-width="2"/>
<text x="520.0" y="153.0" font-size="13.5" font-weight="700" fill="#ffffff" text-anchor="middle">BookKeeper</text>
<text x="520.0" y="170.0" font-size="11.5" fill="#dddddd" text-anchor="middle">bookie 2</text>
<rect x="450" y="200" width="140" height="50" rx="9" fill="#111111" stroke="#111111" stroke-width="2"/>
<text x="520.0" y="223.0" font-size="13.5" font-weight="700" fill="#ffffff" text-anchor="middle">BookKeeper</text>
<text x="520.0" y="240.0" font-size="11.5" fill="#dddddd" text-anchor="middle">bookie 3</text>
<rect x="680" y="90" width="160" height="60" rx="9" fill="#f4f4f4" stroke="#666666" stroke-width="1.5"/>
<text x="760.0" y="110.5" font-size="13.5" font-weight="700" fill="#111111" text-anchor="middle">Tenant: eip</text>
<text x="760.0" y="127.5" font-size="11.5" fill="#555555" text-anchor="middle">ns: shipping</text>
<text x="760.0" y="142.5" font-size="11.5" fill="#555555" text-anchor="middle">topic: orders.placed</text>
<path d="M170,105 L240,85" fill="none" stroke="#b8650a" stroke-width="2" marker-end="url(#am)"/>
<text x="211.0" y="89.0" font-size="11" fill="#ffffff" stroke="#ffffff" stroke-width="3" paint-order="stroke" text-anchor="middle">publish</text>
<text x="211.0" y="89.0" font-size="11" fill="#b8650a" text-anchor="middle">publish</text>
<path d="M170,215 L240,155" fill="none" stroke="#555" stroke-width="2" marker-end="url(#a)"/>
<text x="211.0" y="179.0" font-size="11" fill="#ffffff" stroke="#ffffff" stroke-width="3" paint-order="stroke" text-anchor="middle">subscribe</text>
<text x="211.0" y="179.0" font-size="11" fill="#555" text-anchor="middle">subscribe</text>
<path d="M370,85 L450,85" fill="none" stroke="#555" stroke-width="2" marker-end="url(#a)"/>
<text x="416.0" y="79.0" font-size="11" fill="#ffffff" stroke="#ffffff" stroke-width="3" paint-order="stroke" text-anchor="middle">store</text>
<text x="416.0" y="79.0" font-size="11" fill="#555" text-anchor="middle">store</text>
<path d="M370,155 L450,155" fill="none" stroke="#555" stroke-width="2" marker-end="url(#a)"/>
<text x="416.0" y="149.0" font-size="11" fill="#ffffff" stroke="#ffffff" stroke-width="3" paint-order="stroke" text-anchor="middle">store</text>
<text x="416.0" y="149.0" font-size="11" fill="#555" text-anchor="middle">store</text>
<path d="M590,85 L680,110" fill="none" stroke="#b8650a" stroke-width="2" marker-end="url(#am)"/>
<path d="M590,155 L680,130" fill="none" stroke="#555" stroke-width="2" marker-end="url(#a)"/>
<text x="560" y="270" font-size="11" fill="#555555" text-anchor="middle">Stateless brokers + BookKeeper storage = independent scaling</text>
</svg>