<svg xmlns="http://www.w3.org/2000/svg" viewBox="0 0 820 380" font-family="'Red Hat Text', system-ui, sans-serif" role="img">
<defs><marker id="a" viewBox="0 0 10 10" refX="8.5" refY="5" markerWidth="9" markerHeight="9" orient="auto-start-reverse"><path d="M0,0 L10,5 L0,10 z" fill="#555"/></marker><marker id="am" viewBox="0 0 10 10" refX="8.5" refY="5" markerWidth="9" markerHeight="9" orient="auto-start-reverse"><path d="M0,0 L10,5 L0,10 z" fill="#b8650a"/></marker></defs>
<rect x="10" y="10" width="400" height="170" rx="12" fill="#fafafa" stroke="#ddd"/>
<text x="22" y="30" font-size="12" font-weight="700" fill="#888">Caching (Content Enricher)</text>
<rect x="420" y="10" width="390" height="170" rx="12" fill="#fafafa" stroke="#ddd"/>
<text x="432" y="30" font-size="12" font-weight="700" fill="#888">Idempotent Store</text>
<rect x="10" y="190" width="400" height="180" rx="12" fill="#fafafa" stroke="#ddd"/>
<text x="22" y="210" font-size="12" font-weight="700" fill="#888">Pub/Sub Notifications</text>
<rect x="420" y="190" width="390" height="180" rx="12" fill="#fafafa" stroke="#ddd"/>
<text x="432" y="210" font-size="12" font-weight="700" fill="#888">Distributed Locking</text>
<rect x="30" y="45" width="130" height="45" rx="9" fill="#eef4fb" stroke="#2f6db5" stroke-width="2"/>
<text x="95.0" y="65.5" font-size="13.5" font-weight="700" fill="#111111" text-anchor="middle">Enricher Route</text>
<text x="95.0" y="82.5" font-size="11.5" fill="#555555" text-anchor="middle">kafka consumer</text>
<rect x="190" y="40" width="140" height="50" rx="9" fill="#fff8ef" stroke="#e8870c" stroke-width="2"/>
<text x="260.0" y="63.0" font-size="13.5" font-weight="700" fill="#111111" text-anchor="middle">Redis Cache</text>
<text x="260.0" y="80.0" font-size="11.5" fill="#555555" text-anchor="middle">GET customer:{id}</text>
<rect x="190" y="110" width="140" height="40" rx="9" fill="#ffffff" stroke="#999999" stroke-width="1.5"/>
<text x="260.0" y="128.0" font-size="13.5" font-weight="700" fill="#111111" text-anchor="middle">PostgreSQL</text>
<text x="260.0" y="145.0" font-size="11.5" fill="#555555" text-anchor="middle">cache miss fallback</text>
<rect x="360" y="70" width="60" height="30" rx="9" fill="#f4f4f4" stroke="#888888" stroke-width="1.5"/>
<text x="390.0" y="83.0" font-size="13.5" font-weight="700" fill="#111111" text-anchor="middle">SETEX</text>
<text x="390.0" y="100.0" font-size="11.5" fill="#555555" text-anchor="middle">TTL 600s</text>
<rect x="440" y="45" width="155" height="45" rx="9" fill="#eef4fb" stroke="#2f6db5" stroke-width="2"/>
<text x="517.5" y="65.5" font-size="13.5" font-weight="700" fill="#111111" text-anchor="middle">Kafka Consumer</text>
<text x="517.5" y="82.5" font-size="11.5" fill="#555555" text-anchor="middle">eip.payments.required</text>
<rect x="630" y="40" width="130" height="50" rx="9" fill="#fff8ef" stroke="#e8870c" stroke-width="2"/>
<text x="695.0" y="63.0" font-size="13.5" font-weight="700" fill="#111111" text-anchor="middle">Redis Set</text>
<text x="695.0" y="80.0" font-size="11.5" fill="#555555" text-anchor="middle">idempotent-keys</text>
<rect x="630" y="110" width="130" height="40" rx="9" fill="#f4f4f4" stroke="#888888" stroke-width="1.5"/>
<text x="695.0" y="128.0" font-size="13.5" font-weight="700" fill="#111111" text-anchor="middle">process-payment</text>
<text x="695.0" y="145.0" font-size="11.5" fill="#555555" text-anchor="middle">deduplicated</text>
<rect x="30" y="225" width="130" height="45" rx="9" fill="#eef4fb" stroke="#2f6db5" stroke-width="2"/>
<text x="95.0" y="245.5" font-size="13.5" font-weight="700" fill="#111111" text-anchor="middle">Cache Writer</text>
<text x="95.0" y="262.5" font-size="11.5" fill="#555555" text-anchor="middle">customer update</text>
<rect x="190" y="220" width="140" height="50" rx="9" fill="#fff8ef" stroke="#e8870c" stroke-width="2"/>
<text x="260.0" y="243.0" font-size="13.5" font-weight="700" fill="#111111" text-anchor="middle">PUBLISH</text>
<text x="260.0" y="260.0" font-size="11.5" fill="#555555" text-anchor="middle">cache-invalidation</text>
<rect x="190" y="300" width="140" height="50" rx="9" fill="#fff8ef" stroke="#e8870c" stroke-width="2"/>
<text x="260.0" y="323.0" font-size="13.5" font-weight="700" fill="#111111" text-anchor="middle">SUBSCRIBE</text>
<text x="260.0" y="340.0" font-size="11.5" fill="#555555" text-anchor="middle">cache-invalidation</text>
<rect x="360" y="305" width="100" height="40" rx="9" fill="#f4f4f4" stroke="#888888" stroke-width="1.5"/>
<text x="410.0" y="323.0" font-size="13.5" font-weight="700" fill="#111111" text-anchor="middle">Invalidate</text>
<text x="410.0" y="340.0" font-size="11.5" fill="#555555" text-anchor="middle">local cache</text>
<rect x="440" y="225" width="130" height="45" rx="9" fill="#eef4fb" stroke="#2f6db5" stroke-width="2"/>
<text x="505.0" y="245.5" font-size="13.5" font-weight="700" fill="#111111" text-anchor="middle">Quartz Trigger</text>
<text x="505.0" y="262.5" font-size="11.5" fill="#555555" text-anchor="middle">nightly cron</text>
<rect x="610" y="220" width="145" height="50" rx="9" fill="#fff8ef" stroke="#e8870c" stroke-width="2"/>
<text x="682.5" y="243.0" font-size="13.5" font-weight="700" fill="#111111" text-anchor="middle">SET NX EX</text>
<text x="682.5" y="260.0" font-size="11.5" fill="#555555" text-anchor="middle">lock:nightly-export</text>
<rect x="610" y="300" width="130" height="40" rx="9" fill="#f4f4f4" stroke="#888888" stroke-width="1.5"/>
<text x="675.0" y="318.0" font-size="13.5" font-weight="700" fill="#111111" text-anchor="middle">Nightly Export</text>
<text x="675.0" y="335.0" font-size="11.5" fill="#555555" text-anchor="middle">single instance</text>
<rect x="440" y="310" width="110" height="35" rx="9" fill="#ffffff" stroke="#999999" stroke-width="1.5" stroke-dasharray="6 4"/>
<text x="495.0" y="325.5" font-size="13.5" font-weight="700" fill="#111111" text-anchor="middle">Instance B</text>
<text x="495.0" y="342.5" font-size="11.5" fill="#555555" text-anchor="middle">lock denied</text>
<path d="M160,68 L190,65" fill="none" stroke="#b8650a" stroke-width="2" marker-end="url(#am)"/>
<path d="M260,90 L260,110" fill="none" stroke="#555" stroke-width="2" marker-end="url(#a)"/>
<text x="266.0" y="94.0" font-size="11" fill="#ffffff" stroke="#ffffff" stroke-width="3" paint-order="stroke" text-anchor="middle">miss</text>
<text x="266.0" y="94.0" font-size="11" fill="#555" text-anchor="middle">miss</text>
<path d="M330,65 L360,80" fill="none" stroke="#555" stroke-width="2" marker-end="url(#a)"/>
<path d="M595,68 L630,65" fill="none" stroke="#b8650a" stroke-width="2" marker-end="url(#am)"/>
<path d="M695,90 L695,110" fill="none" stroke="#555" stroke-width="2" marker-end="url(#a)"/>
<text x="701.0" y="94.0" font-size="11" fill="#ffffff" stroke="#ffffff" stroke-width="3" paint-order="stroke" text-anchor="middle">new</text>
<text x="701.0" y="94.0" font-size="11" fill="#555" text-anchor="middle">new</text>
<path d="M160,248 L190,248" fill="none" stroke="#b8650a" stroke-width="2" marker-end="url(#am)"/>
<path d="M260,270 L260,300" fill="none" stroke="#555" stroke-width="2" marker-end="url(#a)"/>
<text x="266.0" y="279.0" font-size="11" fill="#ffffff" stroke="#ffffff" stroke-width="3" paint-order="stroke" text-anchor="middle">notify</text>
<text x="266.0" y="279.0" font-size="11" fill="#555" text-anchor="middle">notify</text>
<path d="M330,325 L360,325" fill="none" stroke="#555" stroke-width="2" marker-end="url(#a)"/>
<path d="M570,248 L610,248" fill="none" stroke="#b8650a" stroke-width="2" marker-end="url(#am)"/>
<path d="M680,270 L680,300" fill="none" stroke="#555" stroke-width="2" marker-end="url(#a)"/>
<text x="686.0" y="279.0" font-size="11" fill="#ffffff" stroke="#ffffff" stroke-width="3" paint-order="stroke" text-anchor="middle">acquired</text>
<text x="686.0" y="279.0" font-size="11" fill="#555" text-anchor="middle">acquired</text>
<path d="M550,330 L610,320" fill="none" stroke="#555" stroke-width="2" stroke-dasharray="5 4" marker-end="url(#a)"/>
<text x="586.0" y="319.0" font-size="11" fill="#ffffff" stroke="#ffffff" stroke-width="3" paint-order="stroke" text-anchor="middle">blocked</text>
<text x="586.0" y="319.0" font-size="11" fill="#555" text-anchor="middle">blocked</text>
<text x="140" y="175" font-size="10" fill="#888" text-anchor="start">Redis 7 on port 6379</text>
</svg>