<svg xmlns="http://www.w3.org/2000/svg" viewBox="0 0 900 260" font-family="'Red Hat Text', system-ui, sans-serif" role="img">
<defs><marker id="a" viewBox="0 0 10 10" refX="8.5" refY="5" markerWidth="9" markerHeight="9" orient="auto-start-reverse"><path d="M0,0 L10,5 L0,10 z" fill="#555"/></marker><marker id="am" viewBox="0 0 10 10" refX="8.5" refY="5" markerWidth="9" markerHeight="9" orient="auto-start-reverse"><path d="M0,0 L10,5 L0,10 z" fill="#b8650a"/></marker></defs>
<rect x="20" y="20" width="860" height="220" rx="12" fill="#fafafa" stroke="#ddd"/>
<text x="32" y="40" font-size="12" font-weight="700" fill="#888">JBang → Quarkus Promotion Workflow</text>
<rect x="40" y="80" width="140" height="60" rx="9" fill="#fff8ef" stroke="#e8870c" stroke-width="2"/>
<text x="110.0" y="100.5" font-size="13.5" font-weight="700" fill="#111111" text-anchor="middle">JBang / camel run</text>
<text x="110.0" y="117.5" font-size="11.5" fill="#555555" text-anchor="middle">camel run --dev</text>
<text x="110.0" y="132.5" font-size="11.5" fill="#555555" text-anchor="middle">fast prototype</text>
<rect x="240" y="80" width="140" height="60" rx="9" fill="#111111" stroke="#111111" stroke-width="2"/>
<text x="310.0" y="100.5" font-size="13.5" font-weight="700" fill="#ffffff" text-anchor="middle">camel export</text>
<text x="310.0" y="117.5" font-size="11.5" fill="#dddddd" text-anchor="middle">--runtime=quarkus</text>
<text x="310.0" y="132.5" font-size="11.5" fill="#dddddd" text-anchor="middle">generate project</text>
<rect x="440" y="80" width="150" height="60" rx="9" fill="#ffffff" stroke="#111111" stroke-width="2"/>
<text x="515.0" y="100.5" font-size="13.5" font-weight="700" fill="#111111" text-anchor="middle">Quarkus Project</text>
<text x="515.0" y="117.5" font-size="11.5" fill="#555555" text-anchor="middle">mvn quarkus:dev</text>
<text x="515.0" y="132.5" font-size="11.5" fill="#555555" text-anchor="middle">full IDE support</text>
<rect x="650" y="80" width="150" height="60" rx="9" fill="#eef4fb" stroke="#2f6db5" stroke-width="2"/>
<text x="725.0" y="100.5" font-size="13.5" font-weight="700" fill="#111111" text-anchor="middle">Native Binary</text>
<text x="725.0" y="117.5" font-size="11.5" fill="#555555" text-anchor="middle">~20ms startup</text>
<text x="725.0" y="132.5" font-size="11.5" fill="#555555" text-anchor="middle">~50MB memory</text>
<path d="M180,110 L240,110" fill="none" stroke="#b8650a" stroke-width="2" marker-end="url(#am)"/>
<text x="216.0" y="104.0" font-size="11" fill="#ffffff" stroke="#ffffff" stroke-width="3" paint-order="stroke" text-anchor="middle">promote</text>
<text x="216.0" y="104.0" font-size="11" fill="#b8650a" text-anchor="middle">promote</text>
<path d="M380,110 L440,110" fill="none" stroke="#b8650a" stroke-width="2" marker-end="url(#am)"/>
<text x="416.0" y="104.0" font-size="11" fill="#ffffff" stroke="#ffffff" stroke-width="3" paint-order="stroke" text-anchor="middle">develop</text>
<text x="416.0" y="104.0" font-size="11" fill="#b8650a" text-anchor="middle">develop</text>
<path d="M590,110 L650,110" fill="none" stroke="#b8650a" stroke-width="2" marker-end="url(#am)"/>
<text x="626.0" y="104.0" font-size="11" fill="#ffffff" stroke="#ffffff" stroke-width="3" paint-order="stroke" text-anchor="middle">build native</text>
<text x="626.0" y="104.0" font-size="11" fill="#b8650a" text-anchor="middle">build native</text>
<text x="450" y="180" font-size="11" fill="#888" text-anchor="middle">Prototype fast → promote to production-grade → deploy native</text>
</svg>