<svg xmlns="http://www.w3.org/2000/svg" viewBox="0 0 820 280" font-family="'Red Hat Text', system-ui, sans-serif" role="img">
<defs><marker id="a" viewBox="0 0 10 10" refX="8.5" refY="5" markerWidth="9" markerHeight="9" orient="auto-start-reverse"><path d="M0,0 L10,5 L0,10 z" fill="#555"/></marker><marker id="am" viewBox="0 0 10 10" refX="8.5" refY="5" markerWidth="9" markerHeight="9" orient="auto-start-reverse"><path d="M0,0 L10,5 L0,10 z" fill="#b8650a"/></marker></defs>
<rect x="10" y="10" width="800" height="260" rx="12" fill="#fafafa" stroke="#ddd"/>
<text x="22" y="30" font-size="12" font-weight="700" fill="#888">Drools Rule-Based Content Router</text>
<rect x="30" y="50" width="145" height="50" rx="9" fill="#eef4fb" stroke="#2f6db5" stroke-width="2"/>
<text x="102.5" y="73.0" font-size="13.5" font-weight="700" fill="#111111" text-anchor="middle">Kafka Consumer</text>
<text x="102.5" y="90.0" font-size="11.5" fill="#555555" text-anchor="middle">eip.orders.placed</text>
<rect x="220" y="55" width="160" height="50" rx="9" fill="#fff8ef" stroke="#e8870c" stroke-width="2"/>
<text x="300.0" y="78.0" font-size="13.5" font-weight="700" fill="#111111" text-anchor="middle">RuleBasedRouter</text>
<text x="300.0" y="95.0" font-size="11.5" fill="#555555" text-anchor="middle">.bean(ruleBasedRouter)</text>
<rect x="430" y="30" width="160" height="50" rx="9" fill="#111111" stroke="#111111" stroke-width="2"/>
<text x="510.0" y="53.0" font-size="13.5" font-weight="700" fill="#ffffff" text-anchor="middle">Drools Rule Unit</text>
<text x="510.0" y="70.0" font-size="11.5" fill="#dddddd" text-anchor="middle">OrderRoutingUnit</text>
<rect x="430" y="95" width="140" height="40" rx="9" fill="#f4f4f4" stroke="#888888" stroke-width="1.5"/>
<text x="500.0" y="113.0" font-size="13.5" font-weight="700" fill="#111111" text-anchor="middle">DRL Rules</text>
<text x="500.0" y="130.0" font-size="11.5" fill="#555555" text-anchor="middle">order-routing.drl</text>
<rect x="430" y="150" width="140" height="40" rx="9" fill="#f4f4f4" stroke="#888888" stroke-width="1.5"/>
<text x="500.0" y="168.0" font-size="13.5" font-weight="700" fill="#111111" text-anchor="middle">Decision Table</text>
<text x="500.0" y="185.0" font-size="11.5" fill="#555555" text-anchor="middle">.xls / .csv</text>
<rect x="650" y="35" width="100" height="35" rx="9" fill="#fff8ef" stroke="#e8870c" stroke-width="2"/>
<text x="700.0" y="58.0" font-size="13.5" font-weight="700" fill="#111111" text-anchor="middle">hazmat</text>
<rect x="650" y="80" width="110" height="40" rx="9" fill="#eef4fb" stroke="#2f6db5" stroke-width="2"/>
<text x="705.0" y="98.0" font-size="13.5" font-weight="700" fill="#111111" text-anchor="middle">fraud-review</text>
<text x="705.0" y="115.0" font-size="11.5" fill="#555555" text-anchor="middle">international</text>
<rect x="650" y="130" width="100" height="35" rx="9" fill="#eef4fb" stroke="#2f6db5" stroke-width="2"/>
<text x="700.0" y="153.0" font-size="13.5" font-weight="700" fill="#111111" text-anchor="middle">express</text>
<rect x="650" y="180" width="100" height="35" rx="9" fill="#f4f4f4" stroke="#888888" stroke-width="1.5"/>
<text x="700.0" y="203.0" font-size="13.5" font-weight="700" fill="#111111" text-anchor="middle">standard</text>
<rect x="650" y="230" width="150" height="30" rx="9" fill="#ffffff" stroke="#999999" stroke-width="1.5" stroke-dasharray="6 4"/>
<text x="725.0" y="250.5" font-size="13.5" font-weight="700" fill="#111111" text-anchor="middle">toD(direct:{decision})</text>
<path d="M175,75 L220,75" fill="none" stroke="#b8650a" stroke-width="2" marker-end="url(#am)"/>
<path d="M380,80 L430,55" fill="none" stroke="#555" stroke-width="2" marker-end="url(#a)"/>
<text x="411.0" y="61.5" font-size="11" fill="#ffffff" stroke="#ffffff" stroke-width="3" paint-order="stroke" text-anchor="middle">fire()</text>
<text x="411.0" y="61.5" font-size="11" fill="#555" text-anchor="middle">fire()</text>
<path d="M430,80 L430,95" fill="none" stroke="#555" stroke-width="2" stroke-dasharray="5 4" marker-end="url(#a)"/>
<path d="M430,135 L430,150" fill="none" stroke="#555" stroke-width="2" stroke-dasharray="5 4" marker-end="url(#a)"/>
<path d="M590,55 L650,52" fill="none" stroke="#555" stroke-width="2" marker-end="url(#a)"/>
<path d="M590,60 L650,100" fill="none" stroke="#555" stroke-width="2" marker-end="url(#a)"/>
<path d="M590,65 L650,148" fill="none" stroke="#555" stroke-width="2" marker-end="url(#a)"/>
<path d="M590,70 L650,198" fill="none" stroke="#555" stroke-width="2" marker-end="url(#a)"/>
<text x="440" y="210" font-size="10" fill="#888" text-anchor="start">Rules evaluated in salience order</text>
</svg>