<svg xmlns="http://www.w3.org/2000/svg" viewBox="0 0 880 320" font-family="'Red Hat Text', system-ui, sans-serif" role="img">
<defs><marker id="a" viewBox="0 0 10 10" refX="8.5" refY="5" markerWidth="9" markerHeight="9" orient="auto-start-reverse"><path d="M0,0 L10,5 L0,10 z" fill="#555"/></marker><marker id="am" viewBox="0 0 10 10" refX="8.5" refY="5" markerWidth="9" markerHeight="9" orient="auto-start-reverse"><path d="M0,0 L10,5 L0,10 z" fill="#b8650a"/></marker></defs>
<rect x="10" y="10" width="860" height="300" rx="12" fill="#fafafa" stroke="#ddd"/>
<text x="22" y="30" font-size="12" font-weight="700" fill="#888">Order Fulfillment Workflow (Serverless Workflow spec)</text>
<rect x="30" y="60" width="130" height="45" rx="9" fill="#eef4fb" stroke="#2f6db5" stroke-width="2"/>
<text x="95.0" y="80.5" font-size="13.5" font-weight="700" fill="#111111" text-anchor="middle">ValidateOrder</text>
<text x="95.0" y="97.5" font-size="11.5" fill="#555555" text-anchor="middle">operation</text>
<rect x="200" y="60" width="135" height="45" rx="9" fill="#eef4fb" stroke="#2f6db5" stroke-width="2"/>
<text x="267.5" y="80.5" font-size="13.5" font-weight="700" fill="#111111" text-anchor="middle">CheckInventory</text>
<text x="267.5" y="97.5" font-size="11.5" fill="#555555" text-anchor="middle">operation</text>
<rect x="380" y="55" width="145" height="50" rx="9" fill="#fff8ef" stroke="#e8870c" stroke-width="2"/>
<text x="452.5" y="78.0" font-size="13.5" font-weight="700" fill="#111111" text-anchor="middle">InventoryDecision</text>
<text x="452.5" y="95.0" font-size="11.5" fill="#555555" text-anchor="middle">switch</text>
<rect x="570" y="40" width="140" height="45" rx="9" fill="#eef4fb" stroke="#2f6db5" stroke-width="2"/>
<text x="640.0" y="60.5" font-size="13.5" font-weight="700" fill="#111111" text-anchor="middle">ProcessPayment</text>
<text x="640.0" y="77.5" font-size="11.5" fill="#555555" text-anchor="middle">operation</text>
<rect x="750" y="40" width="120" height="40" rx="9" fill="#111111" stroke="#111111" stroke-width="2"/>
<text x="810.0" y="58.0" font-size="13.5" font-weight="700" fill="#ffffff" text-anchor="middle">ScheduleShipping</text>
<text x="810.0" y="75.0" font-size="11.5" fill="#dddddd" text-anchor="middle">end state</text>
<rect x="570" y="120" width="130" height="40" rx="9" fill="#111111" stroke="#111111" stroke-width="2"/>
<text x="635.0" y="138.0" font-size="13.5" font-weight="700" fill="#ffffff" text-anchor="middle">BackorderNotify</text>
<text x="635.0" y="155.0" font-size="11.5" fill="#dddddd" text-anchor="middle">end state</text>
<rect x="750" y="120" width="120" height="40" rx="9" fill="#111111" stroke="#111111" stroke-width="2"/>
<text x="810.0" y="138.0" font-size="13.5" font-weight="700" fill="#ffffff" text-anchor="middle">PaymentFailed</text>
<text x="810.0" y="155.0" font-size="11.5" fill="#dddddd" text-anchor="middle">end state</text>
<rect x="30" y="200" width="130" height="40" rx="9" fill="#f4f4f4" stroke="#888888" stroke-width="1.5"/>
<text x="95.0" y="218.0" font-size="13.5" font-weight="700" fill="#111111" text-anchor="middle">CDI Beans</text>
<text x="95.0" y="235.0" font-size="11.5" fill="#555555" text-anchor="middle">service functions</text>
<rect x="200" y="200" width="150" height="45" rx="9" fill="#eef4fb" stroke="#2f6db5" stroke-width="2"/>
<text x="275.0" y="220.5" font-size="13.5" font-weight="700" fill="#111111" text-anchor="middle">ProducerTemplate</text>
<text x="275.0" y="237.5" font-size="11.5" fill="#555555" text-anchor="middle">Camel integration</text>
<rect x="400" y="205" width="150" height="40" rx="9" fill="#fff8ef" stroke="#e8870c" stroke-width="2"/>
<text x="475.0" y="223.0" font-size="13.5" font-weight="700" fill="#111111" text-anchor="middle">Camel Routes</text>
<text x="475.0" y="240.0" font-size="11.5" fill="#555555" text-anchor="middle">direct:check-inventory</text>
<rect x="600" y="210" width="130" height="35" rx="9" fill="#ffffff" stroke="#999999" stroke-width="1.5"/>
<text x="665.0" y="225.5" font-size="13.5" font-weight="700" fill="#111111" text-anchor="middle">Kafka / DB</text>
<text x="665.0" y="242.5" font-size="11.5" fill="#555555" text-anchor="middle">external systems</text>
<rect x="30" y="270" width="120" height="35" rx="9" fill="#ffffff" stroke="#999999" stroke-width="1.5"/>
<text x="90.0" y="285.5" font-size="13.5" font-weight="700" fill="#111111" text-anchor="middle">Kogito</text>
<text x="90.0" y="302.5" font-size="11.5" fill="#555555" text-anchor="middle">state persistence</text>
<path d="M160,82 L200,82" fill="none" stroke="#b8650a" stroke-width="2" marker-end="url(#am)"/>
<path d="M335,82 L380,80" fill="none" stroke="#555" stroke-width="2" marker-end="url(#a)"/>
<path d="M525,72 L570,62" fill="none" stroke="#555" stroke-width="2" marker-end="url(#a)"/>
<text x="553.5" y="61.0" font-size="11" fill="#ffffff" stroke="#ffffff" stroke-width="3" paint-order="stroke" text-anchor="middle">available</text>
<text x="553.5" y="61.0" font-size="11" fill="#555" text-anchor="middle">available</text>
<path d="M525,88 L570,140" fill="none" stroke="#555" stroke-width="2" marker-end="url(#a)"/>
<text x="553.5" y="108.0" font-size="11" fill="#ffffff" stroke="#ffffff" stroke-width="3" paint-order="stroke" text-anchor="middle">unavailable</text>
<text x="553.5" y="108.0" font-size="11" fill="#555" text-anchor="middle">unavailable</text>
<path d="M710,62 L750,60" fill="none" stroke="#555" stroke-width="2" marker-end="url(#a)"/>
<path d="M710,85 L750,140" fill="none" stroke="#555" stroke-width="2" stroke-dasharray="5 4" marker-end="url(#a)"/>
<text x="736.0" y="106.5" font-size="11" fill="#ffffff" stroke="#ffffff" stroke-width="3" paint-order="stroke" text-anchor="middle">error</text>
<text x="736.0" y="106.5" font-size="11" fill="#555" text-anchor="middle">error</text>
<path d="M160,220 L200,220" fill="none" stroke="#555" stroke-width="2" marker-end="url(#a)"/>
<path d="M350,222 L400,222" fill="none" stroke="#b8650a" stroke-width="2" marker-end="url(#am)"/>
<path d="M550,225 L600,225" fill="none" stroke="#555" stroke-width="2" marker-end="url(#a)"/>
<text x="380" y="115" font-size="10" fill="#b8650a" text-anchor="start">dataConditions</text>
<text x="200" y="265" font-size="10" fill="#888" text-anchor="start">Workflow functions call CDI beans that invoke Camel routes</text>
</svg>