<svg xmlns="http://www.w3.org/2000/svg" viewBox="0 0 700 260" font-family="'Red Hat Text', system-ui, sans-serif" role="img">
<defs><marker id="a" viewBox="0 0 10 10" refX="8.5" refY="5" markerWidth="9" markerHeight="9" orient="auto-start-reverse"><path d="M0,0 L10,5 L0,10 z" fill="#555"/></marker><marker id="am" viewBox="0 0 10 10" refX="8.5" refY="5" markerWidth="9" markerHeight="9" orient="auto-start-reverse"><path d="M0,0 L10,5 L0,10 z" fill="#b8650a"/></marker></defs>
<rect x="20" y="10" width="660" height="240" rx="12" fill="#fafafa" stroke="#ddd"/>
<text x="32" y="30" font-size="12" font-weight="700" fill="#555555">Trace: abc123</text>
<rect x="50" y="50" width="280" height="35" rx="9" fill="#fff8ef" stroke="#e8870c" stroke-width="2"/>
<text x="190.0" y="73.0" font-size="13.5" font-weight="700" fill="#111111" text-anchor="middle">order-service: POST /api/orders  200ms</text>
<rect x="80" y="95" width="220" height="30" rx="9" fill="#ffffff" stroke="#999999" stroke-width="1.5"/>
<text x="190.0" y="115.5" font-size="13.5" font-weight="700" fill="#111111" text-anchor="middle">route:create-order  50ms</text>
<rect x="80" y="130" width="250" height="30" rx="9" fill="#ffffff" stroke="#999999" stroke-width="1.5"/>
<text x="205.0" y="150.5" font-size="13.5" font-weight="700" fill="#111111" text-anchor="middle">sql:INSERT INTO orders  30ms</text>
<rect x="80" y="165" width="280" height="30" rx="9" fill="#eef4fb" stroke="#2f6db5" stroke-width="2"/>
<text x="220.0" y="185.5" font-size="13.5" font-weight="700" fill="#111111" text-anchor="middle">kafka:eip.orders.placed PRODUCE  10ms</text>
<rect x="370" y="165" width="290" height="30" rx="9" fill="#eef4fb" stroke="#2f6db5" stroke-width="2"/>
<text x="515.0" y="185.5" font-size="13.5" font-weight="700" fill="#111111" text-anchor="middle">inventory: kafka CONSUME  45ms</text>
<rect x="400" y="200" width="230" height="30" rx="9" fill="#ffffff" stroke="#999999" stroke-width="1.5"/>
<text x="515.0" y="220.5" font-size="13.5" font-weight="700" fill="#111111" text-anchor="middle">route:check-inventory  40ms</text>
<path d="M360,180 L370,180" fill="none" stroke="#b8650a" stroke-width="2" marker-end="url(#am)"/>
<text x="500" y="45" font-size="11" fill="#555555" text-anchor="middle">spans propagated via Kafka headers</text>
</svg>