<svg xmlns="http://www.w3.org/2000/svg" viewBox="0 0 900 340" font-family="'Red Hat Text', system-ui, sans-serif" role="img">
<defs><marker id="a" viewBox="0 0 10 10" refX="8.5" refY="5" markerWidth="9" markerHeight="9" orient="auto-start-reverse"><path d="M0,0 L10,5 L0,10 z" fill="#555"/></marker><marker id="am" viewBox="0 0 10 10" refX="8.5" refY="5" markerWidth="9" markerHeight="9" orient="auto-start-reverse"><path d="M0,0 L10,5 L0,10 z" fill="#b8650a"/></marker></defs>
<rect x="20" y="20" width="860" height="300" rx="12" fill="#fafafa" stroke="#ddd"/>
<text x="32" y="40" font-size="12" font-weight="700" fill="#888">Loan Broker — Scatter-Gather</text>
<rect x="40" y="80" width="110" height="50" rx="9" fill="#fff8ef" stroke="#e8870c" stroke-width="2"/>
<text x="95.0" y="103.0" font-size="13.5" font-weight="700" fill="#111111" text-anchor="middle">Customer</text>
<text x="95.0" y="120.0" font-size="11.5" fill="#555555" text-anchor="middle">loan request</text>
<rect x="190" y="80" width="110" height="50" rx="9" fill="#111111" stroke="#111111" stroke-width="2"/>
<text x="245.0" y="103.0" font-size="13.5" font-weight="700" fill="#ffffff" text-anchor="middle">Gateway</text>
<text x="245.0" y="120.0" font-size="11.5" fill="#dddddd" text-anchor="middle">REST → Kafka</text>
<rect x="340" y="80" width="120" height="50" rx="9" fill="#111111" stroke="#111111" stroke-width="2"/>
<text x="400.0" y="103.0" font-size="13.5" font-weight="700" fill="#ffffff" text-anchor="middle">Enricher</text>
<text x="400.0" y="120.0" font-size="11.5" fill="#dddddd" text-anchor="middle">credit bureau</text>
<rect x="500" y="80" width="130" height="50" rx="9" fill="#111111" stroke="#111111" stroke-width="2"/>
<text x="565.0" y="103.0" font-size="13.5" font-weight="700" fill="#ffffff" text-anchor="middle">Recipient List</text>
<text x="565.0" y="120.0" font-size="11.5" fill="#dddddd" text-anchor="middle">select banks</text>
<rect x="680" y="50" width="100" height="40" rx="9" fill="#ffffff" stroke="#111111" stroke-width="2"/>
<text x="730.0" y="75.5" font-size="13.5" font-weight="700" fill="#111111" text-anchor="middle">Bank A</text>
<rect x="680" y="100" width="100" height="40" rx="9" fill="#ffffff" stroke="#111111" stroke-width="2"/>
<text x="730.0" y="125.5" font-size="13.5" font-weight="700" fill="#111111" text-anchor="middle">Bank B</text>
<rect x="680" y="150" width="100" height="40" rx="9" fill="#ffffff" stroke="#111111" stroke-width="2"/>
<text x="730.0" y="175.5" font-size="13.5" font-weight="700" fill="#111111" text-anchor="middle">Bank C</text>
<rect x="680" y="200" width="100" height="40" rx="9" fill="#ffffff" stroke="#111111" stroke-width="2"/>
<text x="730.0" y="225.5" font-size="13.5" font-weight="700" fill="#111111" text-anchor="middle">Bank D</text>
<rect x="500" y="250" width="130" height="50" rx="9" fill="#111111" stroke="#111111" stroke-width="2"/>
<text x="565.0" y="273.0" font-size="13.5" font-weight="700" fill="#ffffff" text-anchor="middle">Aggregator</text>
<text x="565.0" y="290.0" font-size="11.5" fill="#dddddd" text-anchor="middle">best offer</text>
<rect x="340" y="250" width="120" height="50" rx="9" fill="#fff8ef" stroke="#e8870c" stroke-width="2"/>
<text x="400.0" y="273.0" font-size="13.5" font-weight="700" fill="#111111" text-anchor="middle">Best Rate</text>
<text x="400.0" y="290.0" font-size="11.5" fill="#555555" text-anchor="middle">result</text>
<path d="M150,105 L190,105" fill="none" stroke="#b8650a" stroke-width="2" marker-end="url(#am)"/>
<path d="M300,105 L340,105" fill="none" stroke="#555" stroke-width="2" marker-end="url(#a)"/>
<path d="M460,105 L500,105" fill="none" stroke="#555" stroke-width="2" marker-end="url(#a)"/>
<path d="M630,95 L680,70" fill="none" stroke="#555" stroke-width="2" marker-end="url(#a)"/>
<path d="M630,100 L680,120" fill="none" stroke="#555" stroke-width="2" marker-end="url(#a)"/>
<path d="M630,105 L680,170" fill="none" stroke="#b8650a" stroke-width="2" marker-end="url(#am)"/>
<text x="661.0" y="131.5" font-size="11" fill="#ffffff" stroke="#ffffff" stroke-width="3" paint-order="stroke" text-anchor="middle">scatter</text>
<text x="661.0" y="131.5" font-size="11" fill="#b8650a" text-anchor="middle">scatter</text>
<path d="M630,110 L680,220" fill="none" stroke="#555" stroke-width="2" marker-end="url(#a)"/>
<path d="M780,70 L780,250" fill="none" stroke="#555" stroke-width="2" marker-end="url(#a)"/>
<path d="M780,250 L630,275" fill="none" stroke="#555" stroke-width="2" marker-end="url(#a)"/>
<text x="711.0" y="256.5" font-size="11" fill="#ffffff" stroke="#ffffff" stroke-width="3" paint-order="stroke" text-anchor="middle">gather</text>
<text x="711.0" y="256.5" font-size="11" fill="#555" text-anchor="middle">gather</text>
<path d="M500,275 L460,275" fill="none" stroke="#b8650a" stroke-width="2" marker-end="url(#am)"/>
<text x="180" y="290" font-size="11" fill="#888" text-anchor="start">Customer gets best rate from all qualifying banks</text>
</svg>