<svg xmlns="http://www.w3.org/2000/svg" viewBox="0 0 900 340" font-family="'Red Hat Text', system-ui, sans-serif" role="img">
<defs><marker id="a" viewBox="0 0 10 10" refX="8.5" refY="5" markerWidth="9" markerHeight="9" orient="auto-start-reverse"><path d="M0,0 L10,5 L0,10 z" fill="#555"/></marker><marker id="am" viewBox="0 0 10 10" refX="8.5" refY="5" markerWidth="9" markerHeight="9" orient="auto-start-reverse"><path d="M0,0 L10,5 L0,10 z" fill="#b8650a"/></marker></defs>
<rect x="20" y="20" width="860" height="300" rx="12" fill="#fafafa" stroke="#ddd"/>
<text x="32" y="40" font-size="12" font-weight="700" fill="#555555">Loan Broker — Scatter-Gather</text>
<rect x="40" y="80" width="110" height="50" rx="9" fill="#fff8ef" stroke="#e8870c" stroke-width="2"/>
<text x="95.0" y="103.0" font-size="13.5" font-weight="700" fill="#111111" text-anchor="middle">Customer</text>
<text x="95.0" y="120.0" font-size="11.5" fill="#555555" text-anchor="middle">loan request</text>
<rect x="190" y="80" width="110" height="50" rx="9" fill="#fff8ef" stroke="#e8870c" stroke-width="2"/>
<g transform="translate(230.0,84) scale(0.25)"><!-- Messaging Gateway -->
  <rect x="35" y="38" width="50" height="35" fill="#FFF8F0" stroke="#151515" rx="3"/>
  <path d="M 43,65 L 43,48 Q 60,38 77,48 L 77,65" fill="none" stroke="#EE0000" stroke-width="1.5"/>
  <line x1="60" y1="48" x2="60" y2="65" stroke="#EE0000" stroke-dasharray="3,2"/></g>
<text x="245.0" y="121.0" font-size="13.5" font-weight="700" fill="#111111" text-anchor="middle">Gateway</text>
<text x="245.0" y="138.0" font-size="11.5" fill="#555555" text-anchor="middle">REST → Kafka</text>
<rect x="340" y="80" width="120" height="50" rx="9" fill="#fff8ef" stroke="#e8870c" stroke-width="2"/>
<g transform="translate(385.0,84) scale(0.25)"><!-- Content Enricher -->
  <rect x="38" y="38" width="44" height="34" fill="#FFF8F0" stroke="#151515" rx="3"/>
  <line x1="52" y1="55" x2="68" y2="55" stroke="#EE0000" stroke-width="2.5"/>
  <line x1="60" y1="47" x2="60" y2="63" stroke="#EE0000" stroke-width="2.5"/>
  <line x1="5" y1="55" x2="38" y2="55" stroke="#151515"/>
  <polyline points="33.0,57.5 38,55 33.0,52.5" stroke="#151515" fill="none"/>
  <line x1="82" y1="55" x2="115" y2="55" stroke="#151515"/>
  <polyline points="110.0,57.5 115,55 110.0,52.5" stroke="#151515" fill="none"/></g>
<text x="400.0" y="121.0" font-size="13.5" font-weight="700" fill="#111111" text-anchor="middle">Enricher</text>
<text x="400.0" y="138.0" font-size="11.5" fill="#555555" text-anchor="middle">credit bureau</text>
<rect x="500" y="80" width="130" height="50" rx="9" fill="#fff8ef" stroke="#e8870c" stroke-width="2"/>
<g transform="translate(550.0,84) scale(0.25)"><!-- Recipient List -->
  <polygon points="45,35 65,55 45,75 25,55" fill="#FFF8F0" stroke="#151515"/>
  <line x1="65" y1="45" x2="95" y2="30" stroke="#151515"/>
  <polyline points="91.6,34.5 95,30 89.4,30.0" stroke="#151515" fill="none"/>
  <line x1="65" y1="55" x2="95" y2="55" stroke="#151515"/>
  <polyline points="90.0,57.5 95,55 90.0,52.5" stroke="#151515" fill="none"/>
  <line x1="65" y1="65" x2="95" y2="80" stroke="#151515"/>
  <polyline points="89.4,80.0 95,80 91.6,75.5" stroke="#151515" fill="none"/>
  <line x1="38" y1="50" x2="52" y2="50" stroke="#EE0000" stroke-width="1.5"/>
  <line x1="38" y1="55" x2="52" y2="55" stroke="#EE0000" stroke-width="1.5"/>
  <line x1="38" y1="60" x2="52" y2="60" stroke="#EE0000" stroke-width="1.5"/>
  <line x1="5" y1="55" x2="25" y2="55" stroke="#151515"/>
  <polyline points="20.0,57.5 25,55 20.0,52.5" stroke="#151515" fill="none"/></g>
<text x="565.0" y="121.0" font-size="13.5" font-weight="700" fill="#111111" text-anchor="middle">Recipient List</text>
<text x="565.0" y="138.0" font-size="11.5" fill="#555555" text-anchor="middle">select banks</text>
<rect x="680" y="50" width="100" height="40" rx="9" fill="#ffffff" stroke="#111111" stroke-width="2"/>
<text x="730.0" y="75.5" font-size="13.5" font-weight="700" fill="#111111" text-anchor="middle">Bank A</text>
<rect x="680" y="100" width="100" height="40" rx="9" fill="#ffffff" stroke="#111111" stroke-width="2"/>
<text x="730.0" y="125.5" font-size="13.5" font-weight="700" fill="#111111" text-anchor="middle">Bank B</text>
<rect x="680" y="150" width="100" height="40" rx="9" fill="#ffffff" stroke="#111111" stroke-width="2"/>
<text x="730.0" y="175.5" font-size="13.5" font-weight="700" fill="#111111" text-anchor="middle">Bank C</text>
<rect x="680" y="200" width="100" height="40" rx="9" fill="#ffffff" stroke="#111111" stroke-width="2"/>
<text x="730.0" y="225.5" font-size="13.5" font-weight="700" fill="#111111" text-anchor="middle">Bank D</text>
<rect x="500" y="250" width="130" height="50" rx="9" fill="#fff8ef" stroke="#e8870c" stroke-width="2"/>
<g transform="translate(550.0,254) scale(0.25)"><!-- Aggregator -->
  <circle cx="75" cy="60" r="12" fill="#FFF8F0" stroke="#151515"/>
  <line x1="10" y1="30" x2="63" y2="52" stroke="#151515"/>
  <polyline points="57.4,52.4 63,52 59.3,47.8" stroke="#151515" fill="none"/>
  <line x1="10" y1="60" x2="63" y2="60" stroke="#151515"/>
  <polyline points="58.0,62.5 63,60 58.0,57.5" stroke="#151515" fill="none"/>
  <line x1="10" y1="90" x2="63" y2="68" stroke="#151515"/>
  <polyline points="59.3,72.2 63,68 57.4,67.6" stroke="#151515" fill="none"/>
  <line x1="87" y1="60" x2="112" y2="60" stroke="#151515"/>
  <polyline points="107.0,62.5 112,60 107.0,57.5" stroke="#151515" fill="none"/>
  <text x="75" y="65" text-anchor="middle" font-size="14" font-family="sans-serif" fill="#EE0000" stroke="none">&#x03A3;</text></g>
<text x="565.0" y="291.0" font-size="13.5" font-weight="700" fill="#111111" text-anchor="middle">Aggregator</text>
<text x="565.0" y="308.0" font-size="11.5" fill="#555555" text-anchor="middle">best offer</text>
<rect x="340" y="250" width="120" height="50" rx="9" fill="#fff8ef" stroke="#e8870c" stroke-width="2"/>
<text x="400.0" y="273.0" font-size="13.5" font-weight="700" fill="#111111" text-anchor="middle">Best Rate</text>
<text x="400.0" y="290.0" font-size="11.5" fill="#555555" text-anchor="middle">result</text>
<path d="M150,105 L190,105" fill="none" stroke="#b8650a" stroke-width="2" marker-end="url(#am)"/>
<path d="M300,105 L340,105" fill="none" stroke="#555" stroke-width="2" marker-end="url(#a)"/>
<path d="M460,105 L500,105" fill="none" stroke="#555" stroke-width="2" marker-end="url(#a)"/>
<path d="M630,95 L680,70" fill="none" stroke="#555" stroke-width="2" marker-end="url(#a)"/>
<path d="M630,100 L680,120" fill="none" stroke="#555" stroke-width="2" marker-end="url(#a)"/>
<path d="M630,105 L680,170" fill="none" stroke="#b8650a" stroke-width="2" marker-end="url(#am)"/>
<text x="661.0" y="131.5" font-size="11" fill="#ffffff" stroke="#ffffff" stroke-width="3" paint-order="stroke" text-anchor="middle">scatter</text>
<text x="661.0" y="131.5" font-size="11" fill="#b8650a" text-anchor="middle">scatter</text>
<path d="M630,110 L680,220" fill="none" stroke="#555" stroke-width="2" marker-end="url(#a)"/>
<path d="M780,70 L780,250" fill="none" stroke="#555" stroke-width="2" marker-end="url(#a)"/>
<path d="M780,250 L630,275" fill="none" stroke="#555" stroke-width="2" marker-end="url(#a)"/>
<text x="711.0" y="256.5" font-size="11" fill="#ffffff" stroke="#ffffff" stroke-width="3" paint-order="stroke" text-anchor="middle">gather</text>
<text x="711.0" y="256.5" font-size="11" fill="#555" text-anchor="middle">gather</text>
<path d="M500,275 L460,275" fill="none" stroke="#b8650a" stroke-width="2" marker-end="url(#am)"/>
<text x="180" y="290" font-size="11" fill="#555555" text-anchor="start">Customer gets best rate from all qualifying banks</text>
</svg>