<svg xmlns="http://www.w3.org/2000/svg" viewBox="0 0 900 340" font-family="'Red Hat Text', system-ui, sans-serif" role="img">
<defs><marker id="a" viewBox="0 0 10 10" refX="8.5" refY="5" markerWidth="9" markerHeight="9" orient="auto-start-reverse"><path d="M0,0 L10,5 L0,10 z" fill="#555"/></marker><marker id="am" viewBox="0 0 10 10" refX="8.5" refY="5" markerWidth="9" markerHeight="9" orient="auto-start-reverse"><path d="M0,0 L10,5 L0,10 z" fill="#b8650a"/></marker></defs>
<rect x="20" y="20" width="860" height="300" rx="12" fill="#fafafa" stroke="#ddd"/>
<text x="32" y="40" font-size="12" font-weight="700" fill="#888">Bond Trading — Market Data Distribution</text>
<rect x="40" y="60" width="110" height="45" rx="9" fill="#ffffff" stroke="#111111" stroke-width="2"/>
<text x="95.0" y="80.5" font-size="13.5" font-weight="700" fill="#111111" text-anchor="middle">Bloomberg</text>
<text x="95.0" y="97.5" font-size="11.5" fill="#555555" text-anchor="middle">feed</text>
<rect x="40" y="115" width="110" height="45" rx="9" fill="#ffffff" stroke="#111111" stroke-width="2"/>
<text x="95.0" y="135.5" font-size="13.5" font-weight="700" fill="#111111" text-anchor="middle">Reuters</text>
<text x="95.0" y="152.5" font-size="11.5" fill="#555555" text-anchor="middle">feed</text>
<rect x="40" y="170" width="110" height="45" rx="9" fill="#ffffff" stroke="#111111" stroke-width="2"/>
<text x="95.0" y="190.5" font-size="13.5" font-weight="700" fill="#111111" text-anchor="middle">Exchange</text>
<text x="95.0" y="207.5" font-size="11.5" fill="#555555" text-anchor="middle">feed</text>
<rect x="200" y="100" width="140" height="60" rx="9" fill="#111111" stroke="#111111" stroke-width="2"/>
<text x="270.0" y="120.5" font-size="13.5" font-weight="700" fill="#ffffff" text-anchor="middle">Channel Adapters</text>
<text x="270.0" y="137.5" font-size="11.5" fill="#dddddd" text-anchor="middle">+ Normalizer</text>
<text x="270.0" y="152.5" font-size="11.5" fill="#dddddd" text-anchor="middle">canonical format</text>
<rect x="400" y="110" width="140" height="50" rx="9" fill="#fff8ef" stroke="#e8870c" stroke-width="2"/>
<text x="470.0" y="133.0" font-size="13.5" font-weight="700" fill="#111111" text-anchor="middle">Best Price</text>
<text x="470.0" y="150.0" font-size="11.5" fill="#555555" text-anchor="middle">Aggregator</text>
<rect x="600" y="60" width="120" height="40" rx="9" fill="#eef4fb" stroke="#2f6db5" stroke-width="2"/>
<text x="660.0" y="78.0" font-size="13.5" font-weight="700" fill="#111111" text-anchor="middle">Desk A</text>
<text x="660.0" y="95.0" font-size="11.5" fill="#555555" text-anchor="middle">govt bonds</text>
<rect x="600" y="110" width="120" height="40" rx="9" fill="#eef4fb" stroke="#2f6db5" stroke-width="2"/>
<text x="660.0" y="128.0" font-size="13.5" font-weight="700" fill="#111111" text-anchor="middle">Desk B</text>
<text x="660.0" y="145.0" font-size="11.5" fill="#555555" text-anchor="middle">corporate</text>
<rect x="600" y="160" width="120" height="40" rx="9" fill="#eef4fb" stroke="#2f6db5" stroke-width="2"/>
<text x="660.0" y="178.0" font-size="13.5" font-weight="700" fill="#111111" text-anchor="middle">Desk C</text>
<text x="660.0" y="195.0" font-size="11.5" fill="#555555" text-anchor="middle">short-term</text>
<rect x="600" y="240" width="120" height="50" rx="9" fill="#111111" stroke="#111111" stroke-width="2"/>
<text x="660.0" y="263.0" font-size="13.5" font-weight="700" fill="#ffffff" text-anchor="middle">Trade Engine</text>
<text x="660.0" y="280.0" font-size="11.5" fill="#dddddd" text-anchor="middle">validate + exec</text>
<rect x="780" y="240" width="80" height="50" rx="9" fill="#f4f4f4" stroke="#888888" stroke-width="1.5"/>
<text x="820.0" y="263.0" font-size="13.5" font-weight="700" fill="#111111" text-anchor="middle">Audit</text>
<text x="820.0" y="280.0" font-size="11.5" fill="#555555" text-anchor="middle">Wire Tap</text>
<path d="M150,83 L200,120" fill="none" stroke="#555" stroke-width="2" marker-end="url(#a)"/>
<path d="M150,138 L200,130" fill="none" stroke="#b8650a" stroke-width="2" marker-end="url(#am)"/>
<path d="M150,193 L200,145" fill="none" stroke="#555" stroke-width="2" marker-end="url(#a)"/>
<path d="M340,130 L400,135" fill="none" stroke="#555" stroke-width="2" marker-end="url(#a)"/>
<path d="M540,125 L600,80" fill="none" stroke="#555" stroke-width="2" marker-end="url(#a)"/>
<path d="M540,135 L600,130" fill="none" stroke="#b8650a" stroke-width="2" marker-end="url(#am)"/>
<text x="576.0" y="126.5" font-size="11" fill="#ffffff" stroke="#ffffff" stroke-width="3" paint-order="stroke" text-anchor="middle">filter</text>
<text x="576.0" y="126.5" font-size="11" fill="#b8650a" text-anchor="middle">filter</text>
<path d="M540,145 L600,180" fill="none" stroke="#555" stroke-width="2" marker-end="url(#a)"/>
<path d="M660,160 L660,240" fill="none" stroke="#555" stroke-width="2" marker-end="url(#a)"/>
<text x="666.0" y="194.0" font-size="11" fill="#ffffff" stroke="#ffffff" stroke-width="3" paint-order="stroke" text-anchor="middle">order</text>
<text x="666.0" y="194.0" font-size="11" fill="#555" text-anchor="middle">order</text>
<path d="M720,265 L780,265" fill="none" stroke="#555" stroke-width="2" marker-end="url(#a)"/>
<text x="756.0" y="259.0" font-size="11" fill="#ffffff" stroke="#ffffff" stroke-width="3" paint-order="stroke" text-anchor="middle">copy</text>
<text x="756.0" y="259.0" font-size="11" fill="#555" text-anchor="middle">copy</text>
<text x="450" y="290" font-size="11" fill="#888" text-anchor="middle">Multiple feeds → normalize → filter → trade → audit</text>
</svg>