<svg xmlns="http://www.w3.org/2000/svg" viewBox="0 0 900 340" font-family="'Red Hat Text', system-ui, sans-serif" role="img">
<defs><marker id="a" viewBox="0 0 10 10" refX="8.5" refY="5" markerWidth="9" markerHeight="9" orient="auto-start-reverse"><path d="M0,0 L10,5 L0,10 z" fill="#555"/></marker><marker id="am" viewBox="0 0 10 10" refX="8.5" refY="5" markerWidth="9" markerHeight="9" orient="auto-start-reverse"><path d="M0,0 L10,5 L0,10 z" fill="#b8650a"/></marker></defs>
<rect x="20" y="20" width="400" height="300" rx="12" fill="#fafafa" stroke="#ddd"/>
<text x="32" y="40" font-size="12" font-weight="700" fill="#555555">Platform Threads (1:1)</text>
<rect x="460" y="20" width="420" height="300" rx="12" fill="#fff8ef" stroke="#ddd"/>
<text x="472" y="40" font-size="12" font-weight="700" fill="#555555">Virtual Threads (M:N)</text>
<rect x="50" y="70" width="120" height="40" rx="9" fill="#f4f4f4" stroke="#666666" stroke-width="1.5"/>
<text x="110.0" y="95.5" font-size="13.5" font-weight="700" fill="#111111" text-anchor="middle">OS Thread 1</text>
<rect x="50" y="120" width="120" height="40" rx="9" fill="#f4f4f4" stroke="#666666" stroke-width="1.5"/>
<text x="110.0" y="145.5" font-size="13.5" font-weight="700" fill="#111111" text-anchor="middle">OS Thread 2</text>
<rect x="50" y="170" width="120" height="40" rx="9" fill="#f4f4f4" stroke="#666666" stroke-width="1.5"/>
<text x="110.0" y="195.5" font-size="13.5" font-weight="700" fill="#111111" text-anchor="middle">OS Thread 3</text>
<rect x="220" y="70" width="150" height="40" rx="9" fill="#111111" stroke="#111111" stroke-width="2"/>
<text x="295.0" y="88.0" font-size="13.5" font-weight="700" fill="#ffffff" text-anchor="middle">JVM Thread 1</text>
<text x="295.0" y="105.0" font-size="11.5" fill="#dddddd" text-anchor="middle">Kafka consumer</text>
<rect x="220" y="120" width="150" height="40" rx="9" fill="#111111" stroke="#111111" stroke-width="2"/>
<text x="295.0" y="138.0" font-size="13.5" font-weight="700" fill="#ffffff" text-anchor="middle">JVM Thread 2</text>
<text x="295.0" y="155.0" font-size="11.5" fill="#dddddd" text-anchor="middle">HTTP handler</text>
<rect x="220" y="170" width="150" height="40" rx="9" fill="#111111" stroke="#111111" stroke-width="2"/>
<text x="295.0" y="188.0" font-size="13.5" font-weight="700" fill="#ffffff" text-anchor="middle">JVM Thread 3</text>
<text x="295.0" y="205.0" font-size="11.5" fill="#dddddd" text-anchor="middle">JDBC query</text>
<rect x="490" y="70" width="140" height="55" rx="9" fill="#fff8ef" stroke="#e8870c" stroke-width="2"/>
<text x="560.0" y="95.5" font-size="13.5" font-weight="700" fill="#111111" text-anchor="middle">Carrier Pool</text>
<text x="560.0" y="112.5" font-size="11.5" fill="#555555" text-anchor="middle">ForkJoinPool</text>
<rect x="490" y="160" width="70" height="35" rx="9" fill="#eef4fb" stroke="#2f6db5" stroke-width="2"/>
<text x="525.0" y="175.5" font-size="13.5" font-weight="700" fill="#111111" text-anchor="middle">VT 1</text>
<text x="525.0" y="192.5" font-size="11.5" fill="#555555" text-anchor="middle">mounted</text>
<rect x="570" y="160" width="70" height="35" rx="9" fill="#eef4fb" stroke="#2f6db5" stroke-width="2"/>
<text x="605.0" y="175.5" font-size="13.5" font-weight="700" fill="#111111" text-anchor="middle">VT 2</text>
<text x="605.0" y="192.5" font-size="11.5" fill="#555555" text-anchor="middle">mounted</text>
<rect x="490" y="210" width="70" height="35" rx="9" fill="#f4f4f4" stroke="#666666" stroke-width="1.5"/>
<text x="525.0" y="225.5" font-size="13.5" font-weight="700" fill="#111111" text-anchor="middle">VT 3</text>
<text x="525.0" y="242.5" font-size="11.5" fill="#555555" text-anchor="middle">parked</text>
<rect x="570" y="210" width="70" height="35" rx="9" fill="#f4f4f4" stroke="#666666" stroke-width="1.5"/>
<text x="605.0" y="225.5" font-size="13.5" font-weight="700" fill="#111111" text-anchor="middle">VT 4</text>
<text x="605.0" y="242.5" font-size="11.5" fill="#555555" text-anchor="middle">parked</text>
<rect x="650" y="160" width="70" height="35" rx="9" fill="#f4f4f4" stroke="#666666" stroke-width="1.5"/>
<text x="685.0" y="175.5" font-size="13.5" font-weight="700" fill="#111111" text-anchor="middle">VT 5</text>
<text x="685.0" y="192.5" font-size="11.5" fill="#555555" text-anchor="middle">parked</text>
<rect x="650" y="210" width="70" height="35" rx="9" fill="#f4f4f4" stroke="#666666" stroke-width="1.5"/>
<text x="685.0" y="225.5" font-size="13.5" font-weight="700" fill="#111111" text-anchor="middle">VT 6</text>
<text x="685.0" y="242.5" font-size="11.5" fill="#555555" text-anchor="middle">parked</text>
<rect x="730" y="160" width="70" height="35" rx="9" fill="#f4f4f4" stroke="#666666" stroke-width="1.5"/>
<text x="765.0" y="175.5" font-size="13.5" font-weight="700" fill="#111111" text-anchor="middle">VT 7</text>
<text x="765.0" y="192.5" font-size="11.5" fill="#555555" text-anchor="middle">parked</text>
<rect x="730" y="210" width="70" height="35" rx="9" fill="#f4f4f4" stroke="#666666" stroke-width="1.5"/>
<text x="765.0" y="225.5" font-size="13.5" font-weight="700" fill="#111111" text-anchor="middle">VT 8</text>
<text x="765.0" y="242.5" font-size="11.5" fill="#555555" text-anchor="middle">parked</text>
<rect x="490" y="265" width="100" height="35" rx="9" fill="#ffffff" stroke="#111111" stroke-width="2"/>
<text x="540.0" y="280.5" font-size="13.5" font-weight="700" fill="#111111" text-anchor="middle">~1KB stack</text>
<text x="540.0" y="297.5" font-size="11.5" fill="#555555" text-anchor="middle">per thread</text>
<rect x="650" y="265" width="100" height="35" rx="9" fill="#ffffff" stroke="#111111" stroke-width="2"/>
<text x="700.0" y="280.5" font-size="13.5" font-weight="700" fill="#111111" text-anchor="middle">I/O → park</text>
<text x="700.0" y="297.5" font-size="11.5" fill="#555555" text-anchor="middle">unmount</text>
<path d="M170,90 L220,90" fill="none" stroke="#555" stroke-width="2" marker-end="url(#a)"/>
<text x="201.0" y="84.0" font-size="11" fill="#ffffff" stroke="#ffffff" stroke-width="3" paint-order="stroke" text-anchor="middle">1:1</text>
<text x="201.0" y="84.0" font-size="11" fill="#555" text-anchor="middle">1:1</text>
<path d="M170,140 L220,140" fill="none" stroke="#555" stroke-width="2" marker-end="url(#a)"/>
<text x="201.0" y="134.0" font-size="11" fill="#ffffff" stroke="#ffffff" stroke-width="3" paint-order="stroke" text-anchor="middle">1:1</text>
<text x="201.0" y="134.0" font-size="11" fill="#555" text-anchor="middle">1:1</text>
<path d="M170,190 L220,190" fill="none" stroke="#555" stroke-width="2" marker-end="url(#a)"/>
<text x="201.0" y="184.0" font-size="11" fill="#ffffff" stroke="#ffffff" stroke-width="3" paint-order="stroke" text-anchor="middle">1:1</text>
<text x="201.0" y="184.0" font-size="11" fill="#555" text-anchor="middle">1:1</text>
<path d="M560,125 L525,160" fill="none" stroke="#b8650a" stroke-width="2" marker-end="url(#am)"/>
<text x="548.5" y="136.5" font-size="11" fill="#ffffff" stroke="#ffffff" stroke-width="3" paint-order="stroke" text-anchor="middle">mount</text>
<text x="548.5" y="136.5" font-size="11" fill="#b8650a" text-anchor="middle">mount</text>
<path d="M560,125 L605,160" fill="none" stroke="#b8650a" stroke-width="2" marker-end="url(#am)"/>
<text x="210" y="240" font-size="11" fill="#555555" text-anchor="middle">~1MB stack per thread</text>
<text x="210" y="260" font-size="11" fill="#555555" text-anchor="middle">Limited by OS resources</text>
<text x="640" y="125" font-size="11" fill="#555555" text-anchor="middle">2 carriers run many VTs</text>
</svg>