<svg xmlns="http://www.w3.org/2000/svg" viewBox="0 0 700 320" font-family="'Red Hat Text', system-ui, sans-serif" role="img">
<defs><marker id="a" viewBox="0 0 10 10" refX="8.5" refY="5" markerWidth="9" markerHeight="9" orient="auto-start-reverse"><path d="M0,0 L10,5 L0,10 z" fill="#555"/></marker><marker id="am" viewBox="0 0 10 10" refX="8.5" refY="5" markerWidth="9" markerHeight="9" orient="auto-start-reverse"><path d="M0,0 L10,5 L0,10 z" fill="#b8650a"/></marker></defs>
<rect x="20" y="15" width="660" height="290" rx="12" fill="#fafafa" stroke="#ddd"/>
<text x="32" y="35" font-size="12" font-weight="700" fill="#555555">Kafka Consumer Lifecycle</text>
<rect x="60" y="50" width="120" height="40" rx="9" fill="#fff8ef" stroke="#e8870c" stroke-width="2"/>
<text x="120.0" y="75.5" font-size="13.5" font-weight="700" fill="#111111" text-anchor="middle">Broker</text>
<rect x="520" y="50" width="120" height="40" rx="9" fill="#eef4fb" stroke="#2f6db5" stroke-width="2"/>
<text x="580.0" y="75.5" font-size="13.5" font-weight="700" fill="#111111" text-anchor="middle">Consumer</text>
<rect x="350" y="105" width="260" height="30" rx="9" fill="#f4f4f4" stroke="#666666" stroke-width="1.5"/>
<text x="480.0" y="125.5" font-size="13.5" font-weight="700" fill="#111111" text-anchor="middle">fetch.min.bytes, fetch.max.wait.ms</text>
<rect x="350" y="155" width="260" height="30" rx="9" fill="#f4f4f4" stroke="#666666" stroke-width="1.5"/>
<text x="480.0" y="175.5" font-size="13.5" font-weight="700" fill="#111111" text-anchor="middle">max.poll.records, max.poll.interval.ms</text>
<rect x="350" y="205" width="280" height="30" rx="9" fill="#f4f4f4" stroke="#666666" stroke-width="1.5"/>
<text x="490.0" y="225.5" font-size="13.5" font-weight="700" fill="#111111" text-anchor="middle">enable.auto.commit, auto.commit.interval.ms</text>
<rect x="60" y="260" width="160" height="30" rx="9" fill="#ffffff" stroke="#111111" stroke-width="2"/>
<text x="140.0" y="280.5" font-size="13.5" font-weight="700" fill="#111111" text-anchor="middle">1. Fetch</text>
<rect x="270" y="260" width="160" height="30" rx="9" fill="#ffffff" stroke="#111111" stroke-width="2"/>
<text x="350.0" y="280.5" font-size="13.5" font-weight="700" fill="#111111" text-anchor="middle">2. Poll + Process</text>
<rect x="480" y="260" width="160" height="30" rx="9" fill="#ffffff" stroke="#111111" stroke-width="2"/>
<text x="560.0" y="280.5" font-size="13.5" font-weight="700" fill="#111111" text-anchor="middle">3. Commit</text>
<path d="M580,90 L180,112" fill="none" stroke="#b8650a" stroke-width="2" marker-end="url(#am)"/>
<text x="386.0" y="95.0" font-size="11" fill="#ffffff" stroke="#ffffff" stroke-width="3" paint-order="stroke" text-anchor="middle">fetch request</text>
<text x="386.0" y="95.0" font-size="11" fill="#b8650a" text-anchor="middle">fetch request</text>
<path d="M180,120 L520,120" fill="none" stroke="#555" stroke-width="2" marker-end="url(#a)"/>
<text x="356.0" y="114.0" font-size="11" fill="#ffffff" stroke="#ffffff" stroke-width="3" paint-order="stroke" text-anchor="middle">batch of records</text>
<text x="356.0" y="114.0" font-size="11" fill="#555" text-anchor="middle">batch of records</text>
<path d="M580,162 L580,195" fill="none" stroke="#555" stroke-width="2" marker-end="url(#a)"/>
<text x="586.0" y="172.5" font-size="11" fill="#ffffff" stroke="#ffffff" stroke-width="3" paint-order="stroke" text-anchor="middle">poll + process</text>
<text x="586.0" y="172.5" font-size="11" fill="#555" text-anchor="middle">poll + process</text>
<path d="M580,210 L180,210" fill="none" stroke="#b8650a" stroke-width="2" marker-end="url(#am)"/>
<text x="386.0" y="204.0" font-size="11" fill="#ffffff" stroke="#ffffff" stroke-width="3" paint-order="stroke" text-anchor="middle">commit offsets</text>
<text x="386.0" y="204.0" font-size="11" fill="#b8650a" text-anchor="middle">commit offsets</text>
<path d="M180,225 L520,225" fill="none" stroke="#555" stroke-width="2" marker-end="url(#a)"/>
<text x="356.0" y="219.0" font-size="11" fill="#ffffff" stroke="#ffffff" stroke-width="3" paint-order="stroke" text-anchor="middle">ack</text>
<text x="356.0" y="219.0" font-size="11" fill="#555" text-anchor="middle">ack</text>
</svg>