<svg xmlns="http://www.w3.org/2000/svg" viewBox="0 0 880 360" font-family="'Red Hat Text', system-ui, sans-serif" role="img">
<defs><marker id="a" viewBox="0 0 10 10" refX="8.5" refY="5" markerWidth="9" markerHeight="9" orient="auto-start-reverse"><path d="M0,0 L10,5 L0,10 z" fill="#555"/></marker><marker id="am" viewBox="0 0 10 10" refX="8.5" refY="5" markerWidth="9" markerHeight="9" orient="auto-start-reverse"><path d="M0,0 L10,5 L0,10 z" fill="#b8650a"/></marker></defs>
<rect x="20" y="15" width="840" height="330" rx="12" fill="#fafafa" stroke="#ddd"/>
<text x="32" y="35" font-size="12" font-weight="700" fill="#555555">Kafka Producer Pipeline</text>
<rect x="40" y="50" width="130" height="40" rx="9" fill="#ffffff" stroke="#111111" stroke-width="2"/>
<text x="105.0" y="75.5" font-size="13.5" font-weight="700" fill="#111111" text-anchor="middle">Application</text>
<rect x="320" y="50" width="200" height="40" rx="9" fill="#fff8ef" stroke="#e8870c" stroke-width="2"/>
<text x="420.0" y="75.5" font-size="13.5" font-weight="700" fill="#111111" text-anchor="middle">Producer Internals</text>
<rect x="690" y="50" width="130" height="40" rx="9" fill="#eef4fb" stroke="#2f6db5" stroke-width="2"/>
<text x="755.0" y="75.5" font-size="13.5" font-weight="700" fill="#111111" text-anchor="middle">Broker</text>
<rect x="310" y="110" width="220" height="35" rx="9" fill="#f4f4f4" stroke="#666666" stroke-width="1.5"/>
<text x="420.0" y="125.5" font-size="13.5" font-weight="700" fill="#111111" text-anchor="middle">Buffer (RecordAccumulator)</text>
<text x="420.0" y="142.5" font-size="11.5" fill="#555555" text-anchor="middle">buffer.memory, max.block.ms</text>
<rect x="310" y="160" width="220" height="35" rx="9" fill="#f4f4f4" stroke="#666666" stroke-width="1.5"/>
<text x="420.0" y="175.5" font-size="13.5" font-weight="700" fill="#111111" text-anchor="middle">Batch by Partition</text>
<text x="420.0" y="192.5" font-size="11.5" fill="#555555" text-anchor="middle">batch.size, linger.ms</text>
<rect x="310" y="210" width="220" height="35" rx="9" fill="#f4f4f4" stroke="#666666" stroke-width="1.5"/>
<text x="420.0" y="225.5" font-size="13.5" font-weight="700" fill="#111111" text-anchor="middle">Compress Batch</text>
<text x="420.0" y="242.5" font-size="11.5" fill="#555555" text-anchor="middle">compression.type</text>
<rect x="310" y="260" width="220" height="35" rx="9" fill="#f4f4f4" stroke="#666666" stroke-width="1.5"/>
<text x="420.0" y="275.5" font-size="13.5" font-weight="700" fill="#111111" text-anchor="middle">Send + Ack</text>
<text x="420.0" y="292.5" font-size="11.5" fill="#555555" text-anchor="middle">acks, retries</text>
<path d="M170,70 L310,70" fill="none" stroke="#b8650a" stroke-width="2" marker-end="url(#am)"/>
<text x="246.0" y="64.0" font-size="11" fill="#ffffff" stroke="#ffffff" stroke-width="3" paint-order="stroke" text-anchor="middle">send(record)</text>
<text x="246.0" y="64.0" font-size="11" fill="#b8650a" text-anchor="middle">send(record)</text>
<path d="M420,145 L420,160" fill="none" stroke="#555" stroke-width="2" marker-end="url(#a)"/>
<path d="M420,195 L420,210" fill="none" stroke="#555" stroke-width="2" marker-end="url(#a)"/>
<path d="M530,275 L690,275" fill="none" stroke="#b8650a" stroke-width="2" marker-end="url(#am)"/>
<text x="616.0" y="269.0" font-size="11" fill="#ffffff" stroke="#ffffff" stroke-width="3" paint-order="stroke" text-anchor="middle">produce request</text>
<text x="616.0" y="269.0" font-size="11" fill="#b8650a" text-anchor="middle">produce request</text>
<path d="M690,290 L530,290" fill="none" stroke="#555" stroke-width="2" marker-end="url(#a)"/>
<text x="616.0" y="284.0" font-size="11" fill="#ffffff" stroke="#ffffff" stroke-width="3" paint-order="stroke" text-anchor="middle">acknowledgment</text>
<text x="616.0" y="284.0" font-size="11" fill="#555" text-anchor="middle">acknowledgment</text>
<path d="M310,290 L170,290" fill="none" stroke="#555" stroke-width="2" marker-end="url(#a)"/>
<text x="246.0" y="284.0" font-size="11" fill="#ffffff" stroke="#ffffff" stroke-width="3" paint-order="stroke" text-anchor="middle">callback</text>
<text x="246.0" y="284.0" font-size="11" fill="#555" text-anchor="middle">callback</text>
</svg>