<svg xmlns="http://www.w3.org/2000/svg" viewBox="0 0 880 360" font-family="'Red Hat Text', system-ui, sans-serif" role="img">
<defs><marker id="a" viewBox="0 0 10 10" refX="8.5" refY="5" markerWidth="9" markerHeight="9" orient="auto-start-reverse"><path d="M0,0 L10,5 L0,10 z" fill="#555"/></marker><marker id="am" viewBox="0 0 10 10" refX="8.5" refY="5" markerWidth="9" markerHeight="9" orient="auto-start-reverse"><path d="M0,0 L10,5 L0,10 z" fill="#b8650a"/></marker></defs>
<rect x="20" y="15" width="400" height="330" rx="12" fill="#fafafa" stroke="#ddd"/>
<text x="32" y="35" font-size="12" font-weight="700" fill="#555555">Consumer Group (traditional)</text>
<rect x="460" y="15" width="400" height="330" rx="12" fill="#fff8ef" stroke="#ddd"/>
<text x="472" y="35" font-size="12" font-weight="700" fill="#555555">Share Group (KIP-932)</text>
<rect x="130" y="50" width="180" height="35" rx="9" fill="#fff8ef" stroke="#e8870c" stroke-width="2"/>
<text x="220.0" y="65.5" font-size="13.5" font-weight="700" fill="#111111" text-anchor="middle">eip.orders.placed</text>
<text x="220.0" y="82.5" font-size="11.5" fill="#555555" text-anchor="middle">3 partitions</text>
<rect x="50" y="110" width="80" height="30" rx="9" fill="#ffffff" stroke="#111111" stroke-width="2"/>
<text x="90.0" y="130.5" font-size="13.5" font-weight="700" fill="#111111" text-anchor="middle">P0</text>
<rect x="160" y="110" width="80" height="30" rx="9" fill="#ffffff" stroke="#111111" stroke-width="2"/>
<text x="200.0" y="130.5" font-size="13.5" font-weight="700" fill="#111111" text-anchor="middle">P1</text>
<rect x="270" y="110" width="80" height="30" rx="9" fill="#ffffff" stroke="#111111" stroke-width="2"/>
<text x="310.0" y="130.5" font-size="13.5" font-weight="700" fill="#111111" text-anchor="middle">P2</text>
<rect x="50" y="180" width="80" height="30" rx="9" fill="#eef4fb" stroke="#2f6db5" stroke-width="2"/>
<text x="90.0" y="200.5" font-size="13.5" font-weight="700" fill="#111111" text-anchor="middle">Consumer A</text>
<rect x="160" y="180" width="80" height="30" rx="9" fill="#eef4fb" stroke="#2f6db5" stroke-width="2"/>
<text x="200.0" y="200.5" font-size="13.5" font-weight="700" fill="#111111" text-anchor="middle">Consumer B</text>
<rect x="270" y="180" width="80" height="30" rx="9" fill="#eef4fb" stroke="#2f6db5" stroke-width="2"/>
<text x="310.0" y="200.5" font-size="13.5" font-weight="700" fill="#111111" text-anchor="middle">Consumer C</text>
<rect x="130" y="240" width="100" height="30" rx="9" fill="#ffffff" stroke="#999999" stroke-width="1.5" stroke-dasharray="6 4"/>
<text x="180.0" y="253.0" font-size="13.5" font-weight="700" fill="#111111" text-anchor="middle">Consumer D</text>
<text x="180.0" y="270.0" font-size="11.5" fill="#555555" text-anchor="middle">(idle)</text>
<rect x="570" y="50" width="180" height="35" rx="9" fill="#fff8ef" stroke="#e8870c" stroke-width="2"/>
<text x="660.0" y="65.5" font-size="13.5" font-weight="700" fill="#111111" text-anchor="middle">eip.orders.placed</text>
<text x="660.0" y="82.5" font-size="11.5" fill="#555555" text-anchor="middle">3 partitions</text>
<rect x="490" y="140" width="80" height="30" rx="9" fill="#eef4fb" stroke="#2f6db5" stroke-width="2"/>
<text x="530.0" y="160.5" font-size="13.5" font-weight="700" fill="#111111" text-anchor="middle">Consumer A</text>
<rect x="600" y="140" width="80" height="30" rx="9" fill="#eef4fb" stroke="#2f6db5" stroke-width="2"/>
<text x="640.0" y="160.5" font-size="13.5" font-weight="700" fill="#111111" text-anchor="middle">Consumer B</text>
<rect x="710" y="140" width="80" height="30" rx="9" fill="#eef4fb" stroke="#2f6db5" stroke-width="2"/>
<text x="750.0" y="160.5" font-size="13.5" font-weight="700" fill="#111111" text-anchor="middle">Consumer C</text>
<rect x="600" y="200" width="80" height="30" rx="9" fill="#eef4fb" stroke="#2f6db5" stroke-width="2"/>
<text x="640.0" y="220.5" font-size="13.5" font-weight="700" fill="#111111" text-anchor="middle">Consumer D</text>
<rect x="60" y="295" width="300" height="30" rx="9" fill="#f4f4f4" stroke="#666666" stroke-width="1.5"/>
<text x="210.0" y="315.5" font-size="13.5" font-weight="700" fill="#111111" text-anchor="middle">Partition-bound: max consumers = partitions</text>
<rect x="500" y="295" width="300" height="30" rx="9" fill="#f4f4f4" stroke="#666666" stroke-width="1.5"/>
<text x="650.0" y="315.5" font-size="13.5" font-weight="700" fill="#111111" text-anchor="middle">Round-robin: scale consumers independently</text>
<path d="M90,140 L90,180" fill="none" stroke="#555" stroke-width="2" marker-end="url(#a)"/>
<path d="M200,140 L200,180" fill="none" stroke="#555" stroke-width="2" marker-end="url(#a)"/>
<path d="M310,140 L310,180" fill="none" stroke="#555" stroke-width="2" marker-end="url(#a)"/>
<path d="M620,85 L530,140" fill="none" stroke="#555" stroke-width="2" marker-end="url(#a)"/>
<path d="M660,85 L640,140" fill="none" stroke="#555" stroke-width="2" marker-end="url(#a)"/>
<path d="M700,85 L750,140" fill="none" stroke="#555" stroke-width="2" marker-end="url(#a)"/>
<path d="M660,85 L640,200" fill="none" stroke="#555" stroke-width="2" marker-end="url(#a)"/>
</svg>