<svg xmlns="http://www.w3.org/2000/svg" viewBox="0 0 880 200" font-family="'Red Hat Text', system-ui, sans-serif" role="img">
<defs><marker id="a" viewBox="0 0 10 10" refX="8.5" refY="5" markerWidth="9" markerHeight="9" orient="auto-start-reverse"><path d="M0,0 L10,5 L0,10 z" fill="#555"/></marker><marker id="am" viewBox="0 0 10 10" refX="8.5" refY="5" markerWidth="9" markerHeight="9" orient="auto-start-reverse"><path d="M0,0 L10,5 L0,10 z" fill="#b8650a"/></marker></defs>
<rect x="20" y="15" width="840" height="170" rx="12" fill="#fafafa" stroke="#ddd"/>
<text x="32" y="35" font-size="12" font-weight="700" fill="#555555">Shipping Domain Pipeline</text>
<rect x="40" y="55" width="120" height="45" rx="9" fill="#ffffff" stroke="#111111" stroke-width="2"/>
<text x="100.0" y="75.5" font-size="13.5" font-weight="700" fill="#111111" text-anchor="middle">PostgreSQL</text>
<text x="100.0" y="92.5" font-size="11.5" fill="#555555" text-anchor="middle">orders table</text>
<rect x="190" y="55" width="120" height="45" rx="9" fill="#fff8ef" stroke="#e8870c" stroke-width="2"/>
<text x="250.0" y="75.5" font-size="13.5" font-weight="700" fill="#111111" text-anchor="middle">Debezium</text>
<text x="250.0" y="92.5" font-size="11.5" fill="#555555" text-anchor="middle">Source Connector</text>
<rect x="340" y="55" width="120" height="45" rx="9" fill="#eef4fb" stroke="#2f6db5" stroke-width="2"/>
<text x="400.0" y="75.5" font-size="13.5" font-weight="700" fill="#111111" text-anchor="middle">Kafka</text>
<text x="400.0" y="92.5" font-size="11.5" fill="#555555" text-anchor="middle">eip.orders.cdc</text>
<rect x="490" y="55" width="120" height="45" rx="9" fill="#fff8ef" stroke="#e8870c" stroke-width="2"/>
<text x="550.0" y="75.5" font-size="13.5" font-weight="700" fill="#111111" text-anchor="middle">Camel Route</text>
<text x="550.0" y="92.5" font-size="11.5" fill="#555555" text-anchor="middle">validate + enrich</text>
<rect x="640" y="55" width="120" height="45" rx="9" fill="#eef4fb" stroke="#2f6db5" stroke-width="2"/>
<text x="700.0" y="75.5" font-size="13.5" font-weight="700" fill="#111111" text-anchor="middle">Kafka</text>
<text x="700.0" y="92.5" font-size="11.5" fill="#555555" text-anchor="middle">eip.orders.processed</text>
<rect x="640" y="125" width="120" height="40" rx="9" fill="#fff8ef" stroke="#e8870c" stroke-width="2"/>
<text x="700.0" y="143.0" font-size="13.5" font-weight="700" fill="#111111" text-anchor="middle">JDBC Sink</text>
<text x="700.0" y="160.0" font-size="11.5" fill="#555555" text-anchor="middle">Connector</text>
<rect x="490" y="125" width="120" height="40" rx="9" fill="#ffffff" stroke="#111111" stroke-width="2"/>
<text x="550.0" y="150.5" font-size="13.5" font-weight="700" fill="#111111" text-anchor="middle">Analytics DB</text>
<path d="M160,78 L190,78" fill="none" stroke="#b8650a" stroke-width="2" marker-end="url(#am)"/>
<path d="M310,78 L340,78" fill="none" stroke="#b8650a" stroke-width="2" marker-end="url(#am)"/>
<path d="M460,78 L490,78" fill="none" stroke="#b8650a" stroke-width="2" marker-end="url(#am)"/>
<path d="M610,78 L640,78" fill="none" stroke="#b8650a" stroke-width="2" marker-end="url(#am)"/>
<path d="M700,100 L700,125" fill="none" stroke="#b8650a" stroke-width="2" marker-end="url(#am)"/>
<path d="M640,145 L610,145" fill="none" stroke="#b8650a" stroke-width="2" marker-end="url(#am)"/>
</svg>