<svg xmlns="http://www.w3.org/2000/svg" viewBox="0 0 880 380" font-family="'Red Hat Text', system-ui, sans-serif" role="img">
<defs><marker id="a" viewBox="0 0 10 10" refX="8.5" refY="5" markerWidth="9" markerHeight="9" orient="auto-start-reverse"><path d="M0,0 L10,5 L0,10 z" fill="#555"/></marker><marker id="am" viewBox="0 0 10 10" refX="8.5" refY="5" markerWidth="9" markerHeight="9" orient="auto-start-reverse"><path d="M0,0 L10,5 L0,10 z" fill="#b8650a"/></marker></defs>
<rect x="20" y="20" width="840" height="340" rx="12" fill="#fafafa" stroke="#ddd"/>
<text x="32" y="40" font-size="12" font-weight="700" fill="#555555">Camel Quarkus Testing Pyramid</text>
<rect x="310" y="50" width="260" height="50" rx="9" fill="#eef4fb" stroke="#2f6db5" stroke-width="2"/>
<text x="440.0" y="73.0" font-size="13.5" font-weight="700" fill="#111111" text-anchor="middle">Tier 3: Newman</text>
<text x="440.0" y="90.0" font-size="11.5" fill="#555555" text-anchor="middle">Black-box API tests</text>
<rect x="210" y="120" width="460" height="50" rx="9" fill="#fff8ef" stroke="#e8870c" stroke-width="2"/>
<text x="440.0" y="143.0" font-size="13.5" font-weight="700" fill="#111111" text-anchor="middle">Tier 2: Integration Tests</text>
<text x="440.0" y="160.0" font-size="11.5" fill="#555555" text-anchor="middle">REST Assured + Dev Services + @QuarkusIntegrationTest</text>
<rect x="80" y="190" width="720" height="50" rx="9" fill="#ffffff" stroke="#111111" stroke-width="2"/>
<text x="440.0" y="213.0" font-size="13.5" font-weight="700" fill="#111111" text-anchor="middle">Tier 1: Unit Tests</text>
<text x="440.0" y="230.0" font-size="11.5" fill="#555555" text-anchor="middle">MockEndpoint + AdviceWith + @InjectMock + ProducerTemplate</text>
<rect x="50" y="260" width="180" height="40" rx="9" fill="#f4f4f4" stroke="#666666" stroke-width="1.5"/>
<text x="140.0" y="278.0" font-size="13.5" font-weight="700" fill="#111111" text-anchor="middle">mvn test</text>
<text x="140.0" y="295.0" font-size="11.5" fill="#555555" text-anchor="middle">Tier 1 only</text>
<rect x="280" y="260" width="180" height="40" rx="9" fill="#f4f4f4" stroke="#666666" stroke-width="1.5"/>
<text x="370.0" y="278.0" font-size="13.5" font-weight="700" fill="#111111" text-anchor="middle">mvn verify</text>
<text x="370.0" y="295.0" font-size="11.5" fill="#555555" text-anchor="middle">Tier 1 + Tier 2</text>
<rect x="510" y="260" width="240" height="40" rx="9" fill="#f4f4f4" stroke="#666666" stroke-width="1.5"/>
<text x="630.0" y="278.0" font-size="13.5" font-weight="700" fill="#111111" text-anchor="middle">mvn verify -Pnewman</text>
<text x="630.0" y="295.0" font-size="11.5" fill="#555555" text-anchor="middle">All three tiers</text>
<path d="M140,310 L140,245" fill="none" stroke="#555" stroke-width="2" marker-end="url(#a)"/>
<text x="146.0" y="271.5" font-size="11" fill="#ffffff" stroke="#ffffff" stroke-width="3" paint-order="stroke" text-anchor="middle">~10s</text>
<text x="146.0" y="271.5" font-size="11" fill="#555" text-anchor="middle">~10s</text>
<path d="M370,310 L370,245" fill="none" stroke="#555" stroke-width="2" marker-end="url(#a)"/>
<text x="376.0" y="271.5" font-size="11" fill="#ffffff" stroke="#ffffff" stroke-width="3" paint-order="stroke" text-anchor="middle">~30-60s</text>
<text x="376.0" y="271.5" font-size="11" fill="#555" text-anchor="middle">~30-60s</text>
<path d="M630,310 L630,245" fill="none" stroke="#555" stroke-width="2" marker-end="url(#a)"/>
<text x="636.0" y="271.5" font-size="11" fill="#ffffff" stroke="#ffffff" stroke-width="3" paint-order="stroke" text-anchor="middle">~90s</text>
<text x="636.0" y="271.5" font-size="11" fill="#555" text-anchor="middle">~90s</text>
<text x="440" y="340" font-size="11" fill="#555555" text-anchor="middle">Execution time grows with each tier</text>
</svg>