<svg xmlns="http://www.w3.org/2000/svg" viewBox="0 0 880 340" font-family="'Red Hat Text', system-ui, sans-serif" role="img">
<defs><marker id="a" viewBox="0 0 10 10" refX="8.5" refY="5" markerWidth="9" markerHeight="9" orient="auto-start-reverse"><path d="M0,0 L10,5 L0,10 z" fill="#555"/></marker><marker id="am" viewBox="0 0 10 10" refX="8.5" refY="5" markerWidth="9" markerHeight="9" orient="auto-start-reverse"><path d="M0,0 L10,5 L0,10 z" fill="#b8650a"/></marker></defs>
<rect x="20" y="10" width="840" height="320" rx="12" fill="#fafafa" stroke="#ddd"/>
<text x="32" y="30" font-size="12" font-weight="700" fill="#555555">Minikube Cluster</text>
<rect x="40" y="140" width="130" height="50" rx="9" fill="#f4f4f4" stroke="#666666" stroke-width="1.5"/>
<text x="105.0" y="163.0" font-size="13.5" font-weight="700" fill="#111111" text-anchor="middle">curl / browser</text>
<text x="105.0" y="180.0" font-size="11.5" fill="#555555" text-anchor="middle">POST /api/orders</text>
<rect x="220" y="55" width="170" height="55" rx="9" fill="#fff8ef" stroke="#e8870c" stroke-width="2"/>
<text x="305.0" y="80.5" font-size="13.5" font-weight="700" fill="#111111" text-anchor="middle">eip-k8s-deploy</text>
<text x="305.0" y="97.5" font-size="11.5" fill="#555555" text-anchor="middle">Camel Application</text>
<rect x="230" y="125" width="150" height="35" rx="9" fill="#ffffff" stroke="#999999" stroke-width="1.5"/>
<text x="305.0" y="140.5" font-size="13.5" font-weight="700" fill="#111111" text-anchor="middle">OrderApiRoute</text>
<text x="305.0" y="157.5" font-size="11.5" fill="#555555" text-anchor="middle">REST endpoint</text>
<rect x="230" y="175" width="150" height="35" rx="9" fill="#ffffff" stroke="#999999" stroke-width="1.5"/>
<text x="305.0" y="190.5" font-size="13.5" font-weight="700" fill="#111111" text-anchor="middle">OrderProcessorRoute</text>
<text x="305.0" y="207.5" font-size="11.5" fill="#555555" text-anchor="middle">Kafka → Redis → Kafka</text>
<rect x="230" y="225" width="150" height="35" rx="9" fill="#ffffff" stroke="#999999" stroke-width="1.5"/>
<text x="305.0" y="240.5" font-size="13.5" font-weight="700" fill="#111111" text-anchor="middle">CacheLoaderRoute</text>
<text x="305.0" y="257.5" font-size="11.5" fill="#555555" text-anchor="middle">timer: pre-populate</text>
<rect x="230" y="275" width="150" height="30" rx="9" fill="#f4f4f4" stroke="#666666" stroke-width="1.5"/>
<text x="305.0" y="288.0" font-size="13.5" font-weight="700" fill="#111111" text-anchor="middle">Health probes</text>
<text x="305.0" y="305.0" font-size="11.5" fill="#555555" text-anchor="middle">/q/health  /actuator</text>
<rect x="470" y="65" width="160" height="50" rx="9" fill="#eef4fb" stroke="#2f6db5" stroke-width="2"/>
<text x="550.0" y="88.0" font-size="13.5" font-weight="700" fill="#111111" text-anchor="middle">Strimzi Kafka</text>
<text x="550.0" y="105.0" font-size="11.5" fill="#555555" text-anchor="middle">KRaft single-node</text>
<rect x="480" y="142.0" width="130" height="21.0" fill="#f4f4f4" stroke="none"/>
<ellipse cx="545.0" cy="142.0" rx="65.0" ry="7.0" fill="#f4f4f4" stroke="#555555" stroke-width="1.5"/>
<ellipse cx="545.0" cy="163.0" rx="65.0" ry="7.0" fill="#f4f4f4" stroke="#555555" stroke-width="1.5"/>
<line x1="480" y1="142.0" x2="480" y2="163.0" stroke="#555555" stroke-width="1.5"/>
<line x1="610" y1="142.0" x2="610" y2="163.0" stroke="#555555" stroke-width="1.5"/>
<text x="545.0" y="150.5" font-size="13.5" font-weight="700" fill="#111111" text-anchor="middle">eip.orders</text>
<text x="545.0" y="167.5" font-size="11.5" fill="#555555" text-anchor="middle">.incoming</text>
<rect x="480" y="202.0" width="130" height="21.0" fill="#f4f4f4" stroke="none"/>
<ellipse cx="545.0" cy="202.0" rx="65.0" ry="7.0" fill="#f4f4f4" stroke="#555555" stroke-width="1.5"/>
<ellipse cx="545.0" cy="223.0" rx="65.0" ry="7.0" fill="#f4f4f4" stroke="#555555" stroke-width="1.5"/>
<line x1="480" y1="202.0" x2="480" y2="223.0" stroke="#555555" stroke-width="1.5"/>
<line x1="610" y1="202.0" x2="610" y2="223.0" stroke="#555555" stroke-width="1.5"/>
<text x="545.0" y="210.5" font-size="13.5" font-weight="700" fill="#111111" text-anchor="middle">eip.orders</text>
<text x="545.0" y="227.5" font-size="11.5" fill="#555555" text-anchor="middle">.enriched</text>
<rect x="470" y="260" width="130" height="45" rx="9" fill="#eef4fb" stroke="#2f6db5" stroke-width="2"/>
<text x="535.0" y="280.5" font-size="13.5" font-weight="700" fill="#111111" text-anchor="middle">Redis</text>
<text x="535.0" y="297.5" font-size="11.5" fill="#555555" text-anchor="middle">customer cache</text>
<rect x="700" y="80" width="140" height="40" rx="9" fill="#f4f4f4" stroke="#666666" stroke-width="1.5"/>
<text x="770.0" y="98.0" font-size="13.5" font-weight="700" fill="#111111" text-anchor="middle">kubectl scale</text>
<text x="770.0" y="115.0" font-size="11.5" fill="#555555" text-anchor="middle">--replicas=3</text>
<rect x="700" y="145" width="130" height="35" rx="9" fill="#f4f4f4" stroke="#666666" stroke-width="1.5"/>
<text x="765.0" y="160.5" font-size="13.5" font-weight="700" fill="#111111" text-anchor="middle">Consumer group</text>
<text x="765.0" y="177.5" font-size="11.5" fill="#555555" text-anchor="middle">rebalancing</text>
<rect x="700" y="220" width="130" height="35" rx="9" fill="#ffffff" stroke="#999999" stroke-width="1.5"/>
<text x="765.0" y="235.5" font-size="13.5" font-weight="700" fill="#111111" text-anchor="middle">ConfigMap</text>
<text x="765.0" y="252.5" font-size="11.5" fill="#555555" text-anchor="middle">externalized config</text>
<rect x="700" y="275" width="110" height="30" rx="9" fill="#f4f4f4" stroke="#666666" stroke-width="1.5"/>
<text x="755.0" y="288.0" font-size="13.5" font-weight="700" fill="#111111" text-anchor="middle">kubectl</text>
<text x="755.0" y="305.0" font-size="11.5" fill="#555555" text-anchor="middle">port-forward</text>
<path d="M170,165 L230,142" fill="none" stroke="#b8650a" stroke-width="2" marker-end="url(#am)"/>
<text x="206.0" y="147.5" font-size="11" fill="#ffffff" stroke="#ffffff" stroke-width="3" paint-order="stroke" text-anchor="middle">POST</text>
<text x="206.0" y="147.5" font-size="11" fill="#b8650a" text-anchor="middle">POST</text>
<path d="M380,142 L480,152" fill="none" stroke="#555" stroke-width="2" marker-end="url(#a)"/>
<text x="436.0" y="141.0" font-size="11" fill="#ffffff" stroke="#ffffff" stroke-width="3" paint-order="stroke" text-anchor="middle">publish</text>
<text x="436.0" y="141.0" font-size="11" fill="#555" text-anchor="middle">publish</text>
<path d="M480,152 L380,192" fill="none" stroke="#555" stroke-width="2" marker-end="url(#a)"/>
<text x="436.0" y="166.0" font-size="11" fill="#ffffff" stroke="#ffffff" stroke-width="3" paint-order="stroke" text-anchor="middle">consume</text>
<text x="436.0" y="166.0" font-size="11" fill="#555" text-anchor="middle">consume</text>
<path d="M380,192 L470,275" fill="none" stroke="#b8650a" stroke-width="2" marker-end="url(#am)"/>
<text x="431.0" y="227.5" font-size="11" fill="#ffffff" stroke="#ffffff" stroke-width="3" paint-order="stroke" text-anchor="middle">enrich</text>
<text x="431.0" y="227.5" font-size="11" fill="#b8650a" text-anchor="middle">enrich</text>
<path d="M380,200 L480,212" fill="none" stroke="#555" stroke-width="2" marker-end="url(#a)"/>
<text x="436.0" y="200.0" font-size="11" fill="#ffffff" stroke="#ffffff" stroke-width="3" paint-order="stroke" text-anchor="middle">produce</text>
<text x="436.0" y="200.0" font-size="11" fill="#555" text-anchor="middle">produce</text>
<path d="M380,242 L470,280" fill="none" stroke="#555" stroke-width="2" marker-end="url(#a)"/>
<path d="M700,120 L630,135" fill="none" stroke="#555" stroke-width="2" marker-end="url(#a)"/>
<path d="M700,162 L630,165" fill="none" stroke="#555" stroke-width="2" stroke-dasharray="5 4" marker-end="url(#a)"/>
<text x="760" y="310" font-size="9" fill="#888" text-anchor="start">kubectl port-forward svc/eip-k8s-deploy 8088:80</text>
</svg>