<svg xmlns="http://www.w3.org/2000/svg" viewBox="0 0 880 340" font-family="'Red Hat Text', system-ui, sans-serif" role="img">
<defs><marker id="a" viewBox="0 0 10 10" refX="8.5" refY="5" markerWidth="9" markerHeight="9" orient="auto-start-reverse"><path d="M0,0 L10,5 L0,10 z" fill="#555"/></marker><marker id="am" viewBox="0 0 10 10" refX="8.5" refY="5" markerWidth="9" markerHeight="9" orient="auto-start-reverse"><path d="M0,0 L10,5 L0,10 z" fill="#b8650a"/></marker></defs>
<rect x="10" y="10" width="860" height="320" rx="12" fill="#fafafa" stroke="#ddd"/>
<text x="22" y="30" font-size="12" font-weight="700" fill="#555555">Camel TUI Dashboard</text>
<rect x="30" y="40" width="820" height="30" rx="12" fill="#eef4fb" stroke="#ddd"/>
<rect x="30" y="280" width="820" height="35" rx="12" fill="#f4f4f4" stroke="#ddd"/>
<rect x="35" y="42" width="80" height="24" rx="9" fill="#eef4fb" stroke="#2f6db5" stroke-width="2"/>
<text x="75.0" y="59.5" font-size="13.5" font-weight="700" fill="#111111" text-anchor="middle">Overview</text>
<rect x="120" y="42" width="55" height="24" rx="9" fill="#f4f4f4" stroke="#666666" stroke-width="1.5"/>
<text x="147.5" y="59.5" font-size="13.5" font-weight="700" fill="#111111" text-anchor="middle">Log</text>
<rect x="180" y="42" width="70" height="24" rx="9" fill="#f4f4f4" stroke="#666666" stroke-width="1.5"/>
<text x="215.0" y="59.5" font-size="13.5" font-weight="700" fill="#111111" text-anchor="middle">Activity</text>
<rect x="255" y="42" width="75" height="24" rx="9" fill="#f4f4f4" stroke="#666666" stroke-width="1.5"/>
<text x="292.5" y="59.5" font-size="13.5" font-weight="700" fill="#111111" text-anchor="middle">Diagram</text>
<rect x="335" y="42" width="65" height="24" rx="9" fill="#f4f4f4" stroke="#666666" stroke-width="1.5"/>
<text x="367.5" y="59.5" font-size="13.5" font-weight="700" fill="#111111" text-anchor="middle">Routes</text>
<rect x="405" y="42" width="80" height="24" rx="9" fill="#f4f4f4" stroke="#666666" stroke-width="1.5"/>
<text x="445.0" y="59.5" font-size="13.5" font-weight="700" fill="#111111" text-anchor="middle">Endpoints</text>
<rect x="490" y="42" width="55" height="24" rx="9" fill="#f4f4f4" stroke="#666666" stroke-width="1.5"/>
<text x="517.5" y="59.5" font-size="13.5" font-weight="700" fill="#111111" text-anchor="middle">HTTP</text>
<rect x="550" y="42" width="70" height="24" rx="9" fill="#f4f4f4" stroke="#666666" stroke-width="1.5"/>
<text x="585.0" y="59.5" font-size="13.5" font-weight="700" fill="#111111" text-anchor="middle">Inspect</text>
<rect x="625" y="42" width="60" height="24" rx="9" fill="#f4f4f4" stroke="#666666" stroke-width="1.5"/>
<text x="655.0" y="59.5" font-size="13.5" font-weight="700" fill="#111111" text-anchor="middle">Errors</text>
<rect x="690" y="42" width="55" height="24" rx="9" fill="#f4f4f4" stroke="#666666" stroke-width="1.5"/>
<text x="717.5" y="59.5" font-size="13.5" font-weight="700" fill="#111111" text-anchor="middle">More</text>
<rect x="30" y="80" width="400" height="90" rx="9" fill="#ffffff" stroke="#111111" stroke-width="2"/>
<text x="230.0" y="115.5" font-size="13.5" font-weight="700" fill="#111111" text-anchor="middle">Running Integrations</text>
<text x="230.0" y="132.5" font-size="11.5" fill="#555555" text-anchor="middle">order-router (pid 12345) — started</text>
<text x="230.0" y="147.5" font-size="11.5" fill="#555555" text-anchor="middle">order-enricher (pid 12346) — started</text>
<rect x="450" y="80" width="400" height="90" rx="9" fill="#ffffff" stroke="#111111" stroke-width="2"/>
<text x="650.0" y="115.5" font-size="13.5" font-weight="700" fill="#111111" text-anchor="middle">Infrastructure Services</text>
<text x="650.0" y="132.5" font-size="11.5" fill="#555555" text-anchor="middle">kafka — running (localhost:9092)</text>
<text x="650.0" y="147.5" font-size="11.5" fill="#555555" text-anchor="middle">redis — running (localhost:6379)</text>
<rect x="30" y="185" width="820" height="80" rx="9" fill="#fff8ef" stroke="#e8870c" stroke-width="2"/>
<text x="440.0" y="215.5" font-size="13.5" font-weight="700" fill="#111111" text-anchor="middle">Activity Feed</text>
<text x="440.0" y="232.5" font-size="11.5" fill="#555555" text-anchor="middle">ORD-001 → validate-order → route-by-type → kafka:eip.orders.express  (12ms)</text>
<text x="440.0" y="247.5" font-size="11.5" fill="#555555" text-anchor="middle">ORD-002 → validate-order → route-by-type → kafka:eip.orders.standard (8ms)</text>
<text x="440" y="302" font-size="10" fill="#555555" text-anchor="middle">Status: 2 integrations running | 156 exchanges | 0 errors | uptime 00:05:23</text>
</svg>