<svg xmlns="http://www.w3.org/2000/svg" viewBox="0 0 920 320" font-family="'Red Hat Text', system-ui, sans-serif" role="img">
<defs><marker id="a" viewBox="0 0 10 10" refX="8.5" refY="5" markerWidth="9" markerHeight="9" orient="auto-start-reverse"><path d="M0,0 L10,5 L0,10 z" fill="#555"/></marker><marker id="am" viewBox="0 0 10 10" refX="8.5" refY="5" markerWidth="9" markerHeight="9" orient="auto-start-reverse"><path d="M0,0 L10,5 L0,10 z" fill="#b8650a"/></marker></defs>
<rect x="10" y="10" width="900" height="300" rx="12" fill="#fafafa" stroke="#ddd"/>
<text x="22" y="30" font-size="12" font-weight="700" fill="#555555">Camel AI / MCP Architecture</text>
<rect x="30" y="40" width="290" height="120" rx="12" fill="#fff8ef" stroke="#ddd"/>
<text x="42" y="60" font-size="12" font-weight="700" fill="#555555">Camel Routes</text>
<rect x="370" y="40" width="240" height="120" rx="12" fill="#eef4fb" stroke="#ddd"/>
<text x="382" y="60" font-size="12" font-weight="700" fill="#555555">LangChain4j</text>
<rect x="660" y="40" width="230" height="120" rx="12" fill="#f4f4f4" stroke="#ddd"/>
<text x="672" y="60" font-size="12" font-weight="700" fill="#555555">LLM Provider</text>
<rect x="40" y="70" width="130" height="40" rx="9" fill="#fff8ef" stroke="#e8870c" stroke-width="2"/>
<text x="105.0" y="88.0" font-size="13.5" font-weight="700" fill="#111111" text-anchor="middle">Classifier</text>
<text x="105.0" y="105.0" font-size="11.5" fill="#555555" text-anchor="middle">POST /api/orders/classify</text>
<rect x="40" y="120" width="130" height="30" rx="9" fill="#fff8ef" stroke="#e8870c" stroke-width="2"/>
<text x="105.0" y="140.5" font-size="13.5" font-weight="700" fill="#111111" text-anchor="middle">Assistant</text>
<rect x="180" y="70" width="130" height="40" rx="9" fill="#ffffff" stroke="#111111" stroke-width="2"/>
<text x="245.0" y="88.0" font-size="13.5" font-weight="700" fill="#111111" text-anchor="middle">Order Lookup</text>
<text x="245.0" y="105.0" font-size="11.5" fill="#555555" text-anchor="middle">Tool Route</text>
<rect x="380" y="65" width="110" height="40" rx="9" fill="#eef4fb" stroke="#2f6db5" stroke-width="2"/>
<text x="435.0" y="83.0" font-size="13.5" font-weight="700" fill="#111111" text-anchor="middle">Chat Model</text>
<text x="435.0" y="100.0" font-size="11.5" fill="#555555" text-anchor="middle">classifier</text>
<rect x="500" y="65" width="100" height="40" rx="9" fill="#eef4fb" stroke="#2f6db5" stroke-width="2"/>
<text x="550.0" y="83.0" font-size="13.5" font-weight="700" fill="#111111" text-anchor="middle">Agent</text>
<text x="550.0" y="100.0" font-size="11.5" fill="#555555" text-anchor="middle">+ tools</text>
<rect x="380" y="115" width="220" height="35" rx="9" fill="#f4f4f4" stroke="#666666" stroke-width="1.5"/>
<text x="490.0" y="138.0" font-size="13.5" font-weight="700" fill="#111111" text-anchor="middle">Memory / RAG / Guardrails</text>
<rect x="680" y="65" width="190" height="40" rx="9" fill="#111111" stroke="#111111" stroke-width="2"/>
<text x="775.0" y="83.0" font-size="13.5" font-weight="700" fill="#ffffff" text-anchor="middle">Ollama / OpenAI</text>
<text x="775.0" y="100.0" font-size="11.5" fill="#dddddd" text-anchor="middle">llama3.2 / gpt-4</text>
<rect x="680" y="115" width="190" height="35" rx="9" fill="#f4f4f4" stroke="#666666" stroke-width="1.5"/>
<text x="775.0" y="138.0" font-size="13.5" font-weight="700" fill="#111111" text-anchor="middle">Response + Tool Calls</text>
<rect x="30" y="200" width="200" height="50" rx="9" fill="#fff8ef" stroke="#e8870c" stroke-width="2"/>
<text x="130.0" y="223.0" font-size="13.5" font-weight="700" fill="#111111" text-anchor="middle">Camel MCP Server</text>
<text x="130.0" y="240.0" font-size="11.5" fill="#555555" text-anchor="middle">Catalog for AI assistants</text>
<rect x="260" y="200" width="200" height="50" rx="9" fill="#eef4fb" stroke="#2f6db5" stroke-width="2"/>
<text x="360.0" y="223.0" font-size="13.5" font-weight="700" fill="#111111" text-anchor="middle">Wanaku</text>
<text x="360.0" y="240.0" font-size="11.5" fill="#555555" text-anchor="middle">Routes as MCP tools</text>
<rect x="510" y="200" width="180" height="50" rx="9" fill="#ffffff" stroke="#111111" stroke-width="2"/>
<text x="600.0" y="223.0" font-size="13.5" font-weight="700" fill="#111111" text-anchor="middle">External MCP</text>
<text x="600.0" y="240.0" font-size="11.5" fill="#555555" text-anchor="middle">filesystem, db, api</text>
<rect x="720" y="200" width="170" height="50" rx="9" fill="#f4f4f4" stroke="#666666" stroke-width="1.5"/>
<text x="805.0" y="223.0" font-size="13.5" font-weight="700" fill="#111111" text-anchor="middle">AI Coding Tools</text>
<text x="805.0" y="240.0" font-size="11.5" fill="#555555" text-anchor="middle">Claude, Copilot</text>
<path d="M170,87 L380,87" fill="none" stroke="#b8650a" stroke-width="2" marker-end="url(#am)"/>
<text x="281.0" y="81.0" font-size="11" fill="#ffffff" stroke="#ffffff" stroke-width="3" paint-order="stroke" text-anchor="middle">prompt</text>
<text x="281.0" y="81.0" font-size="11" fill="#b8650a" text-anchor="middle">prompt</text>
<path d="M490,87 L500,87" fill="none" stroke="#b8650a" stroke-width="2" marker-end="url(#am)"/>
<path d="M600,85 L680,85" fill="none" stroke="#b8650a" stroke-width="2" marker-end="url(#am)"/>
<text x="646.0" y="79.0" font-size="11" fill="#ffffff" stroke="#ffffff" stroke-width="3" paint-order="stroke" text-anchor="middle">API call</text>
<text x="646.0" y="79.0" font-size="11" fill="#b8650a" text-anchor="middle">API call</text>
<path d="M680,95 L600,95" fill="none" stroke="#555" stroke-width="2" marker-end="url(#a)"/>
<text x="646.0" y="89.0" font-size="11" fill="#ffffff" stroke="#ffffff" stroke-width="3" paint-order="stroke" text-anchor="middle">response</text>
<text x="646.0" y="89.0" font-size="11" fill="#555" text-anchor="middle">response</text>
<path d="M500,105 L310,90" fill="none" stroke="#555" stroke-width="2" stroke-dasharray="5 4" marker-end="url(#a)"/>
<text x="411.0" y="91.5" font-size="11" fill="#ffffff" stroke="#ffffff" stroke-width="3" paint-order="stroke" text-anchor="middle">tool call</text>
<text x="411.0" y="91.5" font-size="11" fill="#555" text-anchor="middle">tool call</text>
<path d="M230,225 L260,225" fill="none" stroke="#b8650a" stroke-width="2" marker-end="url(#am)"/>
<path d="M460,225 L510,225" fill="none" stroke="#b8650a" stroke-width="2" marker-end="url(#am)"/>
<path d="M690,225 L720,225" fill="none" stroke="#b8650a" stroke-width="2" marker-end="url(#am)"/>
<text x="440" y="180" font-size="11" fill="#b8650a" text-anchor="middle" font-weight="700">MCP (Model Context Protocol)</text>
<text x="440" y="290" font-size="12" fill="#555555" text-anchor="middle">Routes become tools for AI; AI becomes a processor for routes</text>
</svg>