<svg xmlns="http://www.w3.org/2000/svg" viewBox="0 0 650 200" font-family="'Red Hat Text', system-ui, sans-serif" role="img">
<defs><marker id="a" viewBox="0 0 10 10" refX="8.5" refY="5" markerWidth="9" markerHeight="9" orient="auto-start-reverse"><path d="M0,0 L10,5 L0,10 z" fill="#555"/></marker><marker id="am" viewBox="0 0 10 10" refX="8.5" refY="5" markerWidth="9" markerHeight="9" orient="auto-start-reverse"><path d="M0,0 L10,5 L0,10 z" fill="#b8650a"/></marker></defs>
<rect x="10" y="10" width="630" height="180" rx="12" fill="#fafafa" stroke="#ddd"/>
<text x="22" y="30" font-size="12" font-weight="700" fill="#888">Kafka</text>
<rect x="30" y="60" width="130" height="38" rx="9" fill="#ffffff" stroke="#111111" stroke-width="2"/>
<text x="95.0" y="84.5" font-size="13.5" font-weight="700" fill="#111111" text-anchor="middle">eip.orders.placed</text>
<rect x="190" y="50" width="150" height="50" rx="9" fill="#eef4fb" stroke="#2f6db5" stroke-width="2"/>
<text x="265.0" y="73.0" font-size="13.5" font-weight="700" fill="#111111" text-anchor="middle">Order Processor</text>
<text x="265.0" y="90.0" font-size="11.5" fill="#555555" text-anchor="middle">fail every 5th</text>
<rect x="370" y="60" width="130" height="38" rx="9" fill="#ffffff" stroke="#111111" stroke-width="2"/>
<text x="435.0" y="84.5" font-size="13.5" font-weight="700" fill="#111111" text-anchor="middle">eip.orders.processed</text>
<rect x="190" y="130" width="130" height="35" rx="9" fill="#f4f4f4" stroke="#888888" stroke-width="1.5"/>
<text x="255.0" y="153.0" font-size="13.5" font-weight="700" fill="#111111" text-anchor="middle">3 retries @ 1s</text>
<rect x="370" y="130" width="130" height="38" rx="9" fill="#fff8ef" stroke="#e8870c" stroke-width="2"/>
<text x="435.0" y="154.5" font-size="13.5" font-weight="700" fill="#111111" text-anchor="middle">eip.orders.dlq</text>
<rect x="520" y="125" width="110" height="40" rx="9" fill="#eef4fb" stroke="#2f6db5" stroke-width="2"/>
<text x="575.0" y="150.5" font-size="13.5" font-weight="700" fill="#111111" text-anchor="middle">DLQ Monitor</text>
<path d="M160,78 L190,78" fill="none" stroke="#b8650a" stroke-width="2" marker-end="url(#am)"/>
<path d="M340,78 L370,78" fill="none" stroke="#555" stroke-width="2" marker-end="url(#a)"/>
<path d="M265,100 L265,130" fill="none" stroke="#555" stroke-width="2" marker-end="url(#a)"/>
<text x="271.0" y="109.0" font-size="11" fill="#ffffff" stroke="#ffffff" stroke-width="3" paint-order="stroke" text-anchor="middle">failure</text>
<text x="271.0" y="109.0" font-size="11" fill="#555" text-anchor="middle">failure</text>
<path d="M320,148 L370,148" fill="none" stroke="#b8650a" stroke-width="2" marker-end="url(#am)"/>
<path d="M500,148 L520,148" fill="none" stroke="#555" stroke-width="2" marker-end="url(#a)"/>
</svg>