<svg xmlns="http://www.w3.org/2000/svg" viewBox="0 0 880 480" font-family="'Red Hat Text', system-ui, sans-serif" role="img">
<defs><marker id="a" viewBox="0 0 10 10" refX="8.5" refY="5" markerWidth="9" markerHeight="9" orient="auto-start-reverse"><path d="M0,0 L10,5 L0,10 z" fill="#555"/></marker><marker id="am" viewBox="0 0 10 10" refX="8.5" refY="5" markerWidth="9" markerHeight="9" orient="auto-start-reverse"><path d="M0,0 L10,5 L0,10 z" fill="#b8650a"/></marker></defs>
<rect x="10" y="10" width="860" height="190" rx="12" fill="#fafafa" stroke="#ddd"/>
<text x="22" y="30" font-size="12" font-weight="700" fill="#555555">Kafka</text>
<rect x="10" y="210" width="860" height="140" rx="12" fill="#fafafa" stroke="#ddd"/>
<text x="22" y="230" font-size="12" font-weight="700" fill="#555555">Pulsar</text>
<rect x="10" y="360" width="860" height="110" rx="12" fill="#fafafa" stroke="#ddd"/>
<text x="22" y="380" font-size="12" font-weight="700" fill="#555555">Redis</text>
<rect x="30" y="40" width="130" height="45" rx="9" fill="#fff8ef" stroke="#e8870c" stroke-width="2"/>
<text x="95.0" y="60.5" font-size="13.5" font-weight="700" fill="#111111" text-anchor="middle">Timer (5s)</text>
<text x="95.0" y="77.5" font-size="11.5" fill="#555555" text-anchor="middle">DemoDataGenerator</text>
<rect x="190" y="42" width="130" height="38" rx="9" fill="#ffffff" stroke="#111111" stroke-width="2"/>
<text x="255.0" y="66.5" font-size="13.5" font-weight="700" fill="#111111" text-anchor="middle">eip.orders.placed</text>
<rect x="350" y="35" width="140" height="50" rx="9" fill="#eef4fb" stroke="#2f6db5" stroke-width="2"/>
<text x="420.0" y="58.0" font-size="13.5" font-weight="700" fill="#111111" text-anchor="middle">P2P Consumer</text>
<text x="420.0" y="75.0" font-size="11.5" fill="#555555" text-anchor="middle">1 consumer group</text>
<rect x="520" y="42" width="130" height="38" rx="9" fill="#ffffff" stroke="#111111" stroke-width="2"/>
<text x="585.0" y="66.5" font-size="13.5" font-weight="700" fill="#111111" text-anchor="middle">eip.orders.processed</text>
<rect x="350" y="110" width="140" height="50" rx="9" fill="#eef4fb" stroke="#2f6db5" stroke-width="2"/>
<text x="420.0" y="133.0" font-size="13.5" font-weight="700" fill="#111111" text-anchor="middle">Datatype Router</text>
<text x="420.0" y="150.0" font-size="11.5" fill="#555555" text-anchor="middle">route by status</text>
<rect x="520" y="100" width="130" height="38" rx="9" fill="#ffffff" stroke="#111111" stroke-width="2"/>
<text x="585.0" y="124.5" font-size="13.5" font-weight="700" fill="#111111" text-anchor="middle">eip.orders.placed.typed</text>
<rect x="520" y="145" width="130" height="38" rx="9" fill="#ffffff" stroke="#111111" stroke-width="2"/>
<text x="585.0" y="169.5" font-size="13.5" font-weight="700" fill="#111111" text-anchor="middle">eip.orders.cancelled</text>
<rect x="680" y="35" width="130" height="45" rx="9" fill="#eef4fb" stroke="#2f6db5" stroke-width="2"/>
<text x="745.0" y="63.0" font-size="13.5" font-weight="700" fill="#111111" text-anchor="middle">Pub/Sub Publisher</text>
<rect x="680" y="100" width="130" height="38" rx="9" fill="#f4f4f4" stroke="#666666" stroke-width="1.5"/>
<text x="745.0" y="124.5" font-size="13.5" font-weight="700" fill="#111111" text-anchor="middle">subscriber-inventory</text>
<rect x="680" y="145" width="130" height="38" rx="9" fill="#f4f4f4" stroke="#666666" stroke-width="1.5"/>
<text x="745.0" y="169.5" font-size="13.5" font-weight="700" fill="#111111" text-anchor="middle">subscriber-notif.</text>
<rect x="30" y="240" width="130" height="45" rx="9" fill="#fff8ef" stroke="#e8870c" stroke-width="2"/>
<text x="95.0" y="268.0" font-size="13.5" font-weight="700" fill="#111111" text-anchor="middle">Pulsar Timer (5s)</text>
<rect x="190" y="242" width="130" height="38" rx="9" fill="#ffffff" stroke="#999999" stroke-width="1.5"/>
<text x="255.0" y="266.5" font-size="13.5" font-weight="700" fill="#111111" text-anchor="middle">pulsar:eip.orders.*</text>
<rect x="350" y="235" width="130" height="45" rx="9" fill="#eef4fb" stroke="#2f6db5" stroke-width="2"/>
<text x="415.0" y="263.0" font-size="13.5" font-weight="700" fill="#111111" text-anchor="middle">P2P (Shared)</text>
<rect x="520" y="235" width="140" height="45" rx="9" fill="#eef4fb" stroke="#2f6db5" stroke-width="2"/>
<text x="590.0" y="263.0" font-size="13.5" font-weight="700" fill="#111111" text-anchor="middle">Pub/Sub (3×Excl.)</text>
<rect x="690" y="240" width="130" height="38" rx="9" fill="#f4f4f4" stroke="#666666" stroke-width="1.5"/>
<text x="755.0" y="264.5" font-size="13.5" font-weight="700" fill="#111111" text-anchor="middle">3 subscribers</text>
<rect x="30" y="390" width="130" height="45" rx="9" fill="#fff8ef" stroke="#e8870c" stroke-width="2"/>
<text x="95.0" y="418.0" font-size="13.5" font-weight="700" fill="#111111" text-anchor="middle">Redis Timer (8s)</text>
<rect x="190" y="392" width="130" height="38" rx="9" fill="#ffffff" stroke="#999999" stroke-width="1.5"/>
<text x="255.0" y="416.5" font-size="13.5" font-weight="700" fill="#111111" text-anchor="middle">eip.orders.notifs</text>
<rect x="350" y="385" width="140" height="50" rx="9" fill="#eef4fb" stroke="#2f6db5" stroke-width="2"/>
<text x="420.0" y="415.5" font-size="13.5" font-weight="700" fill="#111111" text-anchor="middle">Redis Subscriber</text>
<path d="M160,62 L190,62" fill="none" stroke="#b8650a" stroke-width="2" marker-end="url(#am)"/>
<path d="M320,62 L350,62" fill="none" stroke="#b8650a" stroke-width="2" marker-end="url(#am)"/>
<path d="M490,62 L520,62" fill="none" stroke="#555" stroke-width="2" marker-end="url(#a)"/>
<path d="M650,62 L680,62" fill="none" stroke="#555" stroke-width="2" marker-end="url(#a)"/>
<path d="M320,75 L350,135" fill="none" stroke="#b8650a" stroke-width="2" marker-end="url(#am)"/>
<path d="M490,135 L520,120" fill="none" stroke="#555" stroke-width="2" marker-end="url(#a)"/>
<path d="M490,140 L520,160" fill="none" stroke="#555" stroke-width="2" marker-end="url(#a)"/>
<path d="M810,62 L810,100" fill="none" stroke="#555" stroke-width="2" marker-end="url(#a)"/>
<path d="M810,100 L810,145" fill="none" stroke="#555" stroke-width="2" marker-end="url(#a)"/>
<path d="M160,262 L190,262" fill="none" stroke="#b8650a" stroke-width="2" marker-end="url(#am)"/>
<path d="M320,262 L350,262" fill="none" stroke="#555" stroke-width="2" marker-end="url(#a)"/>
<path d="M480,258 L520,258" fill="none" stroke="#555" stroke-width="2" marker-end="url(#a)"/>
<path d="M660,258 L690,258" fill="none" stroke="#555" stroke-width="2" marker-end="url(#a)"/>
<path d="M160,412 L190,412" fill="none" stroke="#b8650a" stroke-width="2" marker-end="url(#am)"/>
<path d="M320,412 L350,412" fill="none" stroke="#555" stroke-width="2" marker-end="url(#a)"/>
<text x="520" y="190" font-size="10" fill="#888" text-anchor="start">eip.orders.refunded</text>
</svg>