<svg xmlns="http://www.w3.org/2000/svg" viewBox="0 0 880 380" font-family="'Red Hat Text', system-ui, sans-serif" role="img">
<defs><marker id="a" viewBox="0 0 10 10" refX="8.5" refY="5" markerWidth="9" markerHeight="9" orient="auto-start-reverse"><path d="M0,0 L10,5 L0,10 z" fill="#555"/></marker><marker id="am" viewBox="0 0 10 10" refX="8.5" refY="5" markerWidth="9" markerHeight="9" orient="auto-start-reverse"><path d="M0,0 L10,5 L0,10 z" fill="#b8650a"/></marker></defs>
<rect x="10" y="10" width="540" height="180" rx="12" fill="#fafafa" stroke="#ddd"/>
<text x="22" y="30" font-size="12" font-weight="700" fill="#555555">Kafka — Message Bus</text>
<rect x="10" y="200" width="430" height="170" rx="12" fill="#fafafa" stroke="#ddd"/>
<text x="22" y="220" font-size="12" font-weight="700" fill="#555555">Messaging Bridge</text>
<rect x="560" y="10" width="310" height="180" rx="12" fill="#fafafa" stroke="#ddd"/>
<text x="572" y="30" font-size="12" font-weight="700" fill="#555555">Channel Adapter</text>
<rect x="30" y="50" width="120" height="40" rx="9" fill="#fff8ef" stroke="#e8870c" stroke-width="2"/>
<text x="90.0" y="75.5" font-size="13.5" font-weight="700" fill="#111111" text-anchor="middle">Timer / REST</text>
<rect x="180" y="50" width="130" height="38" rx="9" fill="#ffffff" stroke="#111111" stroke-width="2"/>
<text x="245.0" y="74.5" font-size="13.5" font-weight="700" fill="#111111" text-anchor="middle">eip.orders.incoming</text>
<rect x="340" y="40" width="110" height="35" rx="9" fill="#f4f4f4" stroke="#666666" stroke-width="1.5"/>
<text x="395.0" y="63.0" font-size="13.5" font-weight="700" fill="#111111" text-anchor="middle">Inventory Svc</text>
<rect x="340" y="80" width="110" height="35" rx="9" fill="#f4f4f4" stroke="#666666" stroke-width="1.5"/>
<text x="395.0" y="103.0" font-size="13.5" font-weight="700" fill="#111111" text-anchor="middle">Payment Svc</text>
<rect x="340" y="120" width="110" height="35" rx="9" fill="#f4f4f4" stroke="#666666" stroke-width="1.5"/>
<text x="395.0" y="143.0" font-size="13.5" font-weight="700" fill="#111111" text-anchor="middle">Notification Svc</text>
<rect x="580" y="40" width="150" height="50" rx="9" fill="#eef4fb" stroke="#2f6db5" stroke-width="2"/>
<text x="655.0" y="63.0" font-size="13.5" font-weight="700" fill="#111111" text-anchor="middle">Inbound Adapter</text>
<text x="655.0" y="80.0" font-size="11.5" fill="#555555" text-anchor="middle">REST → PG → Kafka</text>
<rect x="580" y="110" width="150" height="50" rx="9" fill="#eef4fb" stroke="#2f6db5" stroke-width="2"/>
<text x="655.0" y="133.0" font-size="13.5" font-weight="700" fill="#111111" text-anchor="middle">Outbound Adapter</text>
<text x="655.0" y="150.0" font-size="11.5" fill="#555555" text-anchor="middle">Kafka → external</text>
<rect x="770" y="50" width="130" height="38" rx="9" fill="#ffffff" stroke="#999999" stroke-width="1.5"/>
<text x="835.0" y="67.0" font-size="13.5" font-weight="700" fill="#111111" text-anchor="middle">PostgreSQL</text>
<text x="835.0" y="84.0" font-size="11.5" fill="#555555" text-anchor="middle">orders.orders</text>
<rect x="30" y="235" width="140" height="50" rx="9" fill="#eef4fb" stroke="#2f6db5" stroke-width="2"/>
<text x="100.0" y="258.0" font-size="13.5" font-weight="700" fill="#111111" text-anchor="middle">Pulsar→Kafka</text>
<text x="100.0" y="275.0" font-size="11.5" fill="#555555" text-anchor="middle">partner.orders</text>
<rect x="200" y="240" width="130" height="38" rx="9" fill="#ffffff" stroke="#111111" stroke-width="2"/>
<text x="265.0" y="264.5" font-size="13.5" font-weight="700" fill="#111111" text-anchor="middle">eip.orders.placed</text>
<rect x="30" y="310" width="140" height="50" rx="9" fill="#eef4fb" stroke="#2f6db5" stroke-width="2"/>
<text x="100.0" y="333.0" font-size="13.5" font-weight="700" fill="#111111" text-anchor="middle">Kafka→Pulsar</text>
<text x="100.0" y="350.0" font-size="11.5" fill="#555555" text-anchor="middle">shipping events</text>
<rect x="200" y="315" width="130" height="38" rx="9" fill="#ffffff" stroke="#111111" stroke-width="2"/>
<text x="265.0" y="339.5" font-size="13.5" font-weight="700" fill="#111111" text-anchor="middle">eip.shipping.sched.</text>
<rect x="370" y="240" width="120" height="40" rx="9" fill="#f4f4f4" stroke="#666666" stroke-width="1.5"/>
<text x="430.0" y="265.5" font-size="13.5" font-weight="700" fill="#111111" text-anchor="middle">Fulfillment Svc</text>
<rect x="370" y="310" width="130" height="38" rx="9" fill="#ffffff" stroke="#111111" stroke-width="2"/>
<text x="435.0" y="334.5" font-size="13.5" font-weight="700" fill="#111111" text-anchor="middle">eip.orders.fulfilled</text>
<path d="M150,70 L180,70" fill="none" stroke="#b8650a" stroke-width="2" marker-end="url(#am)"/>
<path d="M310,70 L340,58" fill="none" stroke="#555" stroke-width="2" marker-end="url(#a)"/>
<path d="M310,70 L340,98" fill="none" stroke="#555" stroke-width="2" marker-end="url(#a)"/>
<path d="M310,70 L340,138" fill="none" stroke="#555" stroke-width="2" marker-end="url(#a)"/>
<path d="M730,65 L770,65" fill="none" stroke="#555" stroke-width="2" marker-end="url(#a)"/>
<path d="M170,265 L200,265" fill="none" stroke="#555" stroke-width="2" marker-end="url(#a)"/>
<path d="M330,260 L370,260" fill="none" stroke="#555" stroke-width="2" marker-end="url(#a)"/>
<path d="M370,280 L370,310" fill="none" stroke="#555" stroke-width="2" marker-end="url(#a)"/>
<path d="M170,335 L200,335" fill="none" stroke="#555" stroke-width="2" marker-end="url(#a)"/>
</svg>