<svg xmlns="http://www.w3.org/2000/svg" viewBox="0 0 820 370" font-family="'Red Hat Text', system-ui, sans-serif" role="img">
<defs><marker id="a" viewBox="0 0 10 10" refX="8.5" refY="5" markerWidth="9" markerHeight="9" orient="auto-start-reverse"><path d="M0,0 L10,5 L0,10 z" fill="#555"/></marker><marker id="am" viewBox="0 0 10 10" refX="8.5" refY="5" markerWidth="9" markerHeight="9" orient="auto-start-reverse"><path d="M0,0 L10,5 L0,10 z" fill="#b8650a"/></marker></defs>
<rect x="10" y="10" width="800" height="200" rx="12" fill="#fafafa" stroke="#ddd"/>
<text x="22" y="30" font-size="12" font-weight="700" fill="#888">Individual Orders (5s timer)</text>
<rect x="10" y="220" width="800" height="140" rx="12" fill="#fafafa" stroke="#ddd"/>
<text x="22" y="240" font-size="12" font-weight="700" fill="#888">Bulk Orders (15s timer)</text>
<rect x="30" y="50" width="100" height="35" rx="9" fill="#fff8ef" stroke="#e8870c" stroke-width="2"/>
<text x="80.0" y="73.0" font-size="13.5" font-weight="700" fill="#111111" text-anchor="middle">Timer (5s)</text>
<rect x="160" y="50" width="130" height="38" rx="9" fill="#ffffff" stroke="#111111" stroke-width="2"/>
<text x="225.0" y="67.0" font-size="13.5" font-weight="700" fill="#111111" text-anchor="middle">eip.metadata</text>
<text x="225.0" y="84.0" font-size="11.5" fill="#555555" text-anchor="middle">.orders</text>
<rect x="330" y="35" width="130" height="40" rx="9" fill="#eef4fb" stroke="#2f6db5" stroke-width="2"/>
<text x="395.0" y="53.0" font-size="13.5" font-weight="700" fill="#111111" text-anchor="middle">Correlation ID</text>
<text x="395.0" y="70.0" font-size="11.5" fill="#555555" text-anchor="middle">stamp UUID</text>
<rect x="490" y="35" width="130" height="38" rx="9" fill="#ffffff" stroke="#111111" stroke-width="2"/>
<text x="555.0" y="59.5" font-size="13.5" font-weight="700" fill="#111111" text-anchor="middle">.correlated</text>
<rect x="330" y="85" width="140" height="40" rx="9" fill="#eef4fb" stroke="#2f6db5" stroke-width="2"/>
<text x="400.0" y="103.0" font-size="13.5" font-weight="700" fill="#111111" text-anchor="middle">Format Indicator</text>
<text x="400.0" y="120.0" font-size="11.5" fill="#555555" text-anchor="middle">tag contentType</text>
<rect x="500" y="85" width="130" height="38" rx="9" fill="#ffffff" stroke="#111111" stroke-width="2"/>
<text x="565.0" y="109.5" font-size="13.5" font-weight="700" fill="#111111" text-anchor="middle">.tagged</text>
<rect x="660" y="80" width="130" height="38" rx="9" fill="#f4f4f4" stroke="#888888" stroke-width="1.5"/>
<text x="725.0" y="104.5" font-size="13.5" font-weight="700" fill="#111111" text-anchor="middle">.processed</text>
<rect x="660" y="120" width="130" height="38" rx="9" fill="#fff8ef" stroke="#e8870c" stroke-width="2"/>
<text x="725.0" y="144.5" font-size="13.5" font-weight="700" fill="#111111" text-anchor="middle">.dead</text>
<rect x="330" y="140" width="130" height="40" rx="9" fill="#eef4fb" stroke="#2f6db5" stroke-width="2"/>
<text x="395.0" y="158.0" font-size="13.5" font-weight="700" fill="#111111" text-anchor="middle">Expiration</text>
<text x="395.0" y="175.0" font-size="11.5" fill="#555555" text-anchor="middle">stamp TTL (30s)</text>
<rect x="490" y="140" width="130" height="38" rx="9" fill="#ffffff" stroke="#111111" stroke-width="2"/>
<text x="555.0" y="164.5" font-size="13.5" font-weight="700" fill="#111111" text-anchor="middle">.expiring</text>
<rect x="660" y="140" width="130" height="38" rx="9" fill="#f4f4f4" stroke="#888888" stroke-width="1.5"/>
<text x="725.0" y="164.5" font-size="13.5" font-weight="700" fill="#111111" text-anchor="middle">.fulfilled</text>
<rect x="30" y="260" width="100" height="35" rx="9" fill="#fff8ef" stroke="#e8870c" stroke-width="2"/>
<text x="80.0" y="283.0" font-size="13.5" font-weight="700" fill="#111111" text-anchor="middle">Timer (15s)</text>
<rect x="160" y="260" width="130" height="38" rx="9" fill="#ffffff" stroke="#111111" stroke-width="2"/>
<text x="225.0" y="277.0" font-size="13.5" font-weight="700" fill="#111111" text-anchor="middle">eip.metadata</text>
<text x="225.0" y="294.0" font-size="11.5" fill="#555555" text-anchor="middle">.bulk-orders</text>
<rect x="330" y="255" width="120" height="40" rx="9" fill="#eef4fb" stroke="#2f6db5" stroke-width="2"/>
<text x="390.0" y="273.0" font-size="13.5" font-weight="700" fill="#111111" text-anchor="middle">Splitter</text>
<text x="390.0" y="290.0" font-size="11.5" fill="#555555" text-anchor="middle">split items[]</text>
<rect x="480" y="260" width="130" height="38" rx="9" fill="#ffffff" stroke="#111111" stroke-width="2"/>
<text x="545.0" y="284.5" font-size="13.5" font-weight="700" fill="#111111" text-anchor="middle">.line-items</text>
<rect x="640" y="255" width="130" height="40" rx="9" fill="#eef4fb" stroke="#2f6db5" stroke-width="2"/>
<text x="705.0" y="273.0" font-size="13.5" font-weight="700" fill="#111111" text-anchor="middle">Aggregator</text>
<text x="705.0" y="290.0" font-size="11.5" fill="#555555" text-anchor="middle">by BulkOrderId</text>
<rect x="640" y="310" width="130" height="38" rx="9" fill="#f4f4f4" stroke="#888888" stroke-width="1.5"/>
<text x="705.0" y="334.5" font-size="13.5" font-weight="700" fill="#111111" text-anchor="middle">.reassembled</text>
<path d="M130,67 L160,67" fill="none" stroke="#b8650a" stroke-width="2" marker-end="url(#am)"/>
<path d="M290,55 L330,55" fill="none" stroke="#555" stroke-width="2" marker-end="url(#a)"/>
<path d="M290,70 L330,105" fill="none" stroke="#555" stroke-width="2" marker-end="url(#a)"/>
<path d="M290,80 L330,160" fill="none" stroke="#555" stroke-width="2" marker-end="url(#a)"/>
<path d="M460,55 L490,55" fill="none" stroke="#555" stroke-width="2" marker-end="url(#a)"/>
<path d="M470,105 L500,105" fill="none" stroke="#555" stroke-width="2" marker-end="url(#a)"/>
<path d="M630,100 L660,100" fill="none" stroke="#555" stroke-width="2" marker-end="url(#a)"/>
<path d="M630,112 L660,135" fill="none" stroke="#555" stroke-width="2" marker-end="url(#a)"/>
<path d="M460,160 L490,160" fill="none" stroke="#555" stroke-width="2" marker-end="url(#a)"/>
<path d="M620,155 L660,155" fill="none" stroke="#555" stroke-width="2" marker-end="url(#a)"/>
<path d="M130,277 L160,277" fill="none" stroke="#b8650a" stroke-width="2" marker-end="url(#am)"/>
<path d="M290,280 L330,280" fill="none" stroke="#555" stroke-width="2" marker-end="url(#a)"/>
<path d="M450,275 L480,275" fill="none" stroke="#555" stroke-width="2" marker-end="url(#a)"/>
<path d="M610,278 L640,278" fill="none" stroke="#555" stroke-width="2" marker-end="url(#a)"/>
<path d="M705,295 L705,310" fill="none" stroke="#555" stroke-width="2" marker-end="url(#a)"/>
</svg>