<svg xmlns="http://www.w3.org/2000/svg" viewBox="0 0 700 210" font-family="'Red Hat Text', system-ui, sans-serif" role="img">
<defs><marker id="a" viewBox="0 0 10 10" refX="8.5" refY="5" markerWidth="9" markerHeight="9" orient="auto-start-reverse"><path d="M0,0 L10,5 L0,10 z" fill="#555"/></marker><marker id="am" viewBox="0 0 10 10" refX="8.5" refY="5" markerWidth="9" markerHeight="9" orient="auto-start-reverse"><path d="M0,0 L10,5 L0,10 z" fill="#b8650a"/></marker></defs>
<rect x="10" y="10" width="680" height="190" rx="12" fill="#fafafa" stroke="#ddd"/>
<text x="22" y="30" font-size="12" font-weight="700" fill="#888">Kafka</text>
<rect x="30" y="35" width="100" height="35" rx="9" fill="#fff8ef" stroke="#e8870c" stroke-width="2"/>
<text x="80.0" y="58.0" font-size="13.5" font-weight="700" fill="#111111" text-anchor="middle">Timer (6s)</text>
<rect x="160" y="30" width="155" height="45" rx="9" fill="#eef4fb" stroke="#2f6db5" stroke-width="2"/>
<text x="237.5" y="50.5" font-size="13.5" font-weight="700" fill="#111111" text-anchor="middle">Command Producer</text>
<text x="237.5" y="67.5" font-size="11.5" fill="#555555" text-anchor="middle">ProcessPayment</text>
<rect x="345" y="35" width="130" height="38" rx="9" fill="#ffffff" stroke="#111111" stroke-width="2"/>
<text x="410.0" y="52.0" font-size="13.5" font-weight="700" fill="#111111" text-anchor="middle">eip.commands</text>
<text x="410.0" y="69.0" font-size="11.5" fill="#555555" text-anchor="middle">.process-payment</text>
<rect x="505" y="30" width="145" height="45" rx="9" fill="#f4f4f4" stroke="#888888" stroke-width="1.5"/>
<text x="577.5" y="50.5" font-size="13.5" font-weight="700" fill="#111111" text-anchor="middle">Command Consumer</text>
<text x="577.5" y="67.5" font-size="11.5" fill="#555555" text-anchor="middle">execute &amp; log</text>
<rect x="30" y="90" width="100" height="35" rx="9" fill="#fff8ef" stroke="#e8870c" stroke-width="2"/>
<text x="80.0" y="113.0" font-size="13.5" font-weight="700" fill="#111111" text-anchor="middle">Timer (8s)</text>
<rect x="160" y="85" width="155" height="45" rx="9" fill="#eef4fb" stroke="#2f6db5" stroke-width="2"/>
<text x="237.5" y="105.5" font-size="13.5" font-weight="700" fill="#111111" text-anchor="middle">Document Producer</text>
<text x="237.5" y="122.5" font-size="11.5" fill="#555555" text-anchor="middle">full order record</text>
<rect x="345" y="90" width="130" height="38" rx="9" fill="#ffffff" stroke="#111111" stroke-width="2"/>
<text x="410.0" y="107.0" font-size="13.5" font-weight="700" fill="#111111" text-anchor="middle">eip.documents</text>
<text x="410.0" y="124.0" font-size="11.5" fill="#555555" text-anchor="middle">.orders</text>
<rect x="505" y="85" width="145" height="45" rx="9" fill="#f4f4f4" stroke="#888888" stroke-width="1.5"/>
<text x="577.5" y="105.5" font-size="13.5" font-weight="700" fill="#111111" text-anchor="middle">Document Consumer</text>
<text x="577.5" y="122.5" font-size="11.5" fill="#555555" text-anchor="middle">receive &amp; log</text>
<rect x="30" y="145" width="100" height="35" rx="9" fill="#fff8ef" stroke="#e8870c" stroke-width="2"/>
<text x="80.0" y="168.0" font-size="13.5" font-weight="700" fill="#111111" text-anchor="middle">Timer (5s)</text>
<rect x="160" y="140" width="155" height="45" rx="9" fill="#eef4fb" stroke="#2f6db5" stroke-width="2"/>
<text x="237.5" y="160.5" font-size="13.5" font-weight="700" fill="#111111" text-anchor="middle">Event Producer</text>
<text x="237.5" y="177.5" font-size="11.5" fill="#555555" text-anchor="middle">OrderPlaced envelope</text>
<rect x="345" y="145" width="130" height="38" rx="9" fill="#ffffff" stroke="#111111" stroke-width="2"/>
<text x="410.0" y="162.0" font-size="13.5" font-weight="700" fill="#111111" text-anchor="middle">eip.events</text>
<text x="410.0" y="179.0" font-size="11.5" fill="#555555" text-anchor="middle">.orders</text>
<rect x="505" y="140" width="145" height="45" rx="9" fill="#f4f4f4" stroke="#888888" stroke-width="1.5"/>
<text x="577.5" y="160.5" font-size="13.5" font-weight="700" fill="#111111" text-anchor="middle">Event Consumer</text>
<text x="577.5" y="177.5" font-size="11.5" fill="#555555" text-anchor="middle">observe &amp; record</text>
<path d="M130,52 L160,52" fill="none" stroke="#b8650a" stroke-width="2" marker-end="url(#am)"/>
<path d="M315,52 L345,52" fill="none" stroke="#555" stroke-width="2" marker-end="url(#a)"/>
<path d="M475,52 L505,52" fill="none" stroke="#555" stroke-width="2" marker-end="url(#a)"/>
<path d="M130,107 L160,107" fill="none" stroke="#b8650a" stroke-width="2" marker-end="url(#am)"/>
<path d="M315,107 L345,107" fill="none" stroke="#555" stroke-width="2" marker-end="url(#a)"/>
<path d="M475,107 L505,107" fill="none" stroke="#555" stroke-width="2" marker-end="url(#a)"/>
<path d="M130,162 L160,162" fill="none" stroke="#b8650a" stroke-width="2" marker-end="url(#am)"/>
<path d="M315,162 L345,162" fill="none" stroke="#555" stroke-width="2" marker-end="url(#a)"/>
<path d="M475,162 L505,162" fill="none" stroke="#555" stroke-width="2" marker-end="url(#a)"/>
</svg>