<svg xmlns="http://www.w3.org/2000/svg" viewBox="0 0 800 310" font-family="'Red Hat Text', system-ui, sans-serif" role="img">
<defs><marker id="a" viewBox="0 0 10 10" refX="8.5" refY="5" markerWidth="9" markerHeight="9" orient="auto-start-reverse"><path d="M0,0 L10,5 L0,10 z" fill="#555"/></marker><marker id="am" viewBox="0 0 10 10" refX="8.5" refY="5" markerWidth="9" markerHeight="9" orient="auto-start-reverse"><path d="M0,0 L10,5 L0,10 z" fill="#b8650a"/></marker></defs>
<rect x="10" y="10" width="780" height="290" rx="12" fill="#fafafa" stroke="#ddd"/>
<text x="22" y="30" font-size="12" font-weight="700" fill="#555555">Kafka</text>
<rect x="30" y="40" width="100" height="35" rx="9" fill="#fff8ef" stroke="#e8870c" stroke-width="2"/>
<text x="80.0" y="63.0" font-size="13.5" font-weight="700" fill="#111111" text-anchor="middle">Timer (5s)</text>
<rect x="160" y="42" width="130" height="38" rx="9" fill="#ffffff" stroke="#111111" stroke-width="2"/>
<text x="225.0" y="66.5" font-size="13.5" font-weight="700" fill="#111111" text-anchor="middle">eip.orders.placed</text>
<rect x="330" y="30" width="140" height="50" rx="9" fill="#eef4fb" stroke="#2f6db5" stroke-width="2"/>
<text x="400.0" y="53.0" font-size="13.5" font-weight="700" fill="#111111" text-anchor="middle">Content-Based</text>
<text x="400.0" y="70.0" font-size="11.5" fill="#555555" text-anchor="middle">Router (.choice)</text>
<rect x="510" y="30" width="130" height="38" rx="9" fill="#fff8ef" stroke="#e8870c" stroke-width="2"/>
<text x="575.0" y="54.5" font-size="13.5" font-weight="700" fill="#111111" text-anchor="middle">.hazmat</text>
<rect x="510" y="72" width="130" height="38" rx="9" fill="#ffffff" stroke="#111111" stroke-width="2"/>
<text x="575.0" y="96.5" font-size="13.5" font-weight="700" fill="#111111" text-anchor="middle">.international</text>
<rect x="510" y="114" width="130" height="38" rx="9" fill="#ffffff" stroke="#111111" stroke-width="2"/>
<text x="575.0" y="138.5" font-size="13.5" font-weight="700" fill="#111111" text-anchor="middle">.domestic</text>
<rect x="330" y="110" width="140" height="45" rx="9" fill="#eef4fb" stroke="#2f6db5" stroke-width="2"/>
<text x="400.0" y="130.5" font-size="13.5" font-weight="700" fill="#111111" text-anchor="middle">Message Filter</text>
<text x="400.0" y="147.5" font-size="11.5" fill="#555555" text-anchor="middle">amount &gt;= $100</text>
<rect x="510" y="160" width="130" height="38" rx="9" fill="#f4f4f4" stroke="#666666" stroke-width="1.5"/>
<text x="575.0" y="184.5" font-size="13.5" font-weight="700" fill="#111111" text-anchor="middle">.high-value</text>
<rect x="30" y="195" width="130" height="38" rx="9" fill="#ffffff" stroke="#111111" stroke-width="2"/>
<text x="95.0" y="219.5" font-size="13.5" font-weight="700" fill="#111111" text-anchor="middle">eip.orders.batch</text>
<rect x="190" y="190" width="120" height="45" rx="9" fill="#eef4fb" stroke="#2f6db5" stroke-width="2"/>
<text x="250.0" y="210.5" font-size="13.5" font-weight="700" fill="#111111" text-anchor="middle">Splitter</text>
<text x="250.0" y="227.5" font-size="11.5" fill="#555555" text-anchor="middle">split items[]</text>
<rect x="340" y="195" width="130" height="38" rx="9" fill="#ffffff" stroke="#111111" stroke-width="2"/>
<text x="405.0" y="219.5" font-size="13.5" font-weight="700" fill="#111111" text-anchor="middle">.individual</text>
<rect x="30" y="260" width="130" height="38" rx="9" fill="#ffffff" stroke="#111111" stroke-width="2"/>
<text x="95.0" y="284.5" font-size="13.5" font-weight="700" fill="#111111" text-anchor="middle">eip.orders.shipped</text>
<rect x="190" y="250" width="140" height="50" rx="9" fill="#eef4fb" stroke="#2f6db5" stroke-width="2"/>
<text x="260.0" y="273.0" font-size="13.5" font-weight="700" fill="#111111" text-anchor="middle">Recipient List</text>
<text x="260.0" y="290.0" font-size="11.5" fill="#555555" text-anchor="middle">parallel notify</text>
<rect x="370" y="245" width="130" height="38" rx="9" fill="#f4f4f4" stroke="#666666" stroke-width="1.5"/>
<text x="435.0" y="269.5" font-size="13.5" font-weight="700" fill="#111111" text-anchor="middle">email</text>
<rect x="370" y="275" width="130" height="38" rx="9" fill="#f4f4f4" stroke="#666666" stroke-width="1.5"/>
<text x="435.0" y="299.5" font-size="13.5" font-weight="700" fill="#111111" text-anchor="middle">sms / vip-desk</text>
<path d="M130,57 L160,57" fill="none" stroke="#b8650a" stroke-width="2" marker-end="url(#am)"/>
<path d="M290,55 L330,55" fill="none" stroke="#555" stroke-width="2" marker-end="url(#a)"/>
<path d="M290,70 L330,135" fill="none" stroke="#555" stroke-width="2" marker-end="url(#a)"/>
<path d="M470,50 L510,50" fill="none" stroke="#555" stroke-width="2" marker-end="url(#a)"/>
<path d="M470,65 L510,90" fill="none" stroke="#555" stroke-width="2" marker-end="url(#a)"/>
<path d="M470,75 L510,130" fill="none" stroke="#555" stroke-width="2" marker-end="url(#a)"/>
<path d="M470,140 L510,175" fill="none" stroke="#555" stroke-width="2" marker-end="url(#a)"/>
<path d="M160,215 L190,215" fill="none" stroke="#555" stroke-width="2" marker-end="url(#a)"/>
<path d="M310,215 L340,215" fill="none" stroke="#555" stroke-width="2" marker-end="url(#a)"/>
<path d="M160,275 L190,275" fill="none" stroke="#555" stroke-width="2" marker-end="url(#a)"/>
<path d="M330,270 L370,262" fill="none" stroke="#555" stroke-width="2" marker-end="url(#a)"/>
<path d="M330,280 L370,292" fill="none" stroke="#555" stroke-width="2" marker-end="url(#a)"/>
</svg>