<svg xmlns="http://www.w3.org/2000/svg" viewBox="0 0 880 440" font-family="'Red Hat Text', system-ui, sans-serif" role="img">
<defs><marker id="a" viewBox="0 0 10 10" refX="8.5" refY="5" markerWidth="9" markerHeight="9" orient="auto-start-reverse"><path d="M0,0 L10,5 L0,10 z" fill="#555"/></marker><marker id="am" viewBox="0 0 10 10" refX="8.5" refY="5" markerWidth="9" markerHeight="9" orient="auto-start-reverse"><path d="M0,0 L10,5 L0,10 z" fill="#b8650a"/></marker></defs>
<rect x="10" y="10" width="860" height="80" rx="12" fill="#fafafa" stroke="#ddd"/>
<text x="22" y="30" font-size="12" font-weight="700" fill="#888">Dynamic Router</text>
<rect x="10" y="100" width="540" height="80" rx="12" fill="#fafafa" stroke="#ddd"/>
<text x="22" y="120" font-size="12" font-weight="700" fill="#888">Wire Tap</text>
<rect x="560" y="100" width="310" height="80" rx="12" fill="#fafafa" stroke="#ddd"/>
<text x="572" y="120" font-size="12" font-weight="700" fill="#888">Resequencer</text>
<rect x="10" y="190" width="540" height="90" rx="12" fill="#fafafa" stroke="#ddd"/>
<text x="22" y="210" font-size="12" font-weight="700" fill="#888">Composed Message Processor</text>
<rect x="560" y="190" width="310" height="90" rx="12" fill="#fafafa" stroke="#ddd"/>
<text x="572" y="210" font-size="12" font-weight="700" fill="#888">Load Balancer</text>
<rect x="30" y="35" width="130" height="38" rx="9" fill="#ffffff" stroke="#111111" stroke-width="2"/>
<text x="95.0" y="59.5" font-size="13.5" font-weight="700" fill="#111111" text-anchor="middle">eip.orders.placed</text>
<rect x="190" y="28" width="150" height="45" rx="9" fill="#eef4fb" stroke="#2f6db5" stroke-width="2"/>
<text x="265.0" y="48.5" font-size="13.5" font-weight="700" fill="#111111" text-anchor="middle">Dynamic Router</text>
<text x="265.0" y="65.5" font-size="11.5" fill="#555555" text-anchor="middle">OrderRoutingBean</text>
<rect x="370" y="33" width="80" height="35" rx="9" fill="#f4f4f4" stroke="#888888" stroke-width="1.5"/>
<text x="410.0" y="56.0" font-size="13.5" font-weight="700" fill="#111111" text-anchor="middle">validate</text>
<rect x="470" y="33" width="80" height="35" rx="9" fill="#f4f4f4" stroke="#888888" stroke-width="1.5"/>
<text x="510.0" y="56.0" font-size="13.5" font-weight="700" fill="#111111" text-anchor="middle">inventory</text>
<rect x="570" y="33" width="80" height="35" rx="9" fill="#f4f4f4" stroke="#888888" stroke-width="1.5"/>
<text x="610.0" y="56.0" font-size="13.5" font-weight="700" fill="#111111" text-anchor="middle">shipping</text>
<rect x="680" y="35" width="130" height="38" rx="9" fill="#ffffff" stroke="#111111" stroke-width="2"/>
<text x="745.0" y="59.5" font-size="13.5" font-weight="700" fill="#111111" text-anchor="middle">.dynamic-routed</text>
<rect x="30" y="122" width="130" height="38" rx="9" fill="#ffffff" stroke="#111111" stroke-width="2"/>
<text x="95.0" y="139.0" font-size="13.5" font-weight="700" fill="#111111" text-anchor="middle">eip.orders</text>
<text x="95.0" y="156.0" font-size="11.5" fill="#555555" text-anchor="middle">.processing</text>
<rect x="190" y="115" width="110" height="45" rx="9" fill="#eef4fb" stroke="#2f6db5" stroke-width="2"/>
<text x="245.0" y="143.0" font-size="13.5" font-weight="700" fill="#111111" text-anchor="middle">Wire Tap</text>
<rect x="330" y="110" width="130" height="38" rx="9" fill="#ffffff" stroke="#111111" stroke-width="2"/>
<text x="395.0" y="134.5" font-size="13.5" font-weight="700" fill="#111111" text-anchor="middle">.processed</text>
<rect x="330" y="150" width="130" height="38" rx="9" fill="#fff8ef" stroke="#e8870c" stroke-width="2"/>
<text x="395.0" y="174.5" font-size="13.5" font-weight="700" fill="#111111" text-anchor="middle">.audit</text>
<rect x="580" y="122" width="130" height="38" rx="9" fill="#ffffff" stroke="#111111" stroke-width="2"/>
<text x="645.0" y="146.5" font-size="13.5" font-weight="700" fill="#111111" text-anchor="middle">.sequenced</text>
<rect x="720" y="115" width="130" height="45" rx="9" fill="#eef4fb" stroke="#2f6db5" stroke-width="2"/>
<text x="785.0" y="135.5" font-size="13.5" font-weight="700" fill="#111111" text-anchor="middle">Resequencer</text>
<text x="785.0" y="152.5" font-size="11.5" fill="#555555" text-anchor="middle">batch=10, 5s</text>
<rect x="30" y="220" width="130" height="38" rx="9" fill="#ffffff" stroke="#111111" stroke-width="2"/>
<text x="95.0" y="244.5" font-size="13.5" font-weight="700" fill="#111111" text-anchor="middle">.composed</text>
<rect x="180" y="215" width="110" height="40" rx="9" fill="#eef4fb" stroke="#2f6db5" stroke-width="2"/>
<text x="235.0" y="240.5" font-size="13.5" font-weight="700" fill="#111111" text-anchor="middle">Split items</text>
<rect x="320" y="215" width="110" height="40" rx="9" fill="#f4f4f4" stroke="#888888" stroke-width="1.5"/>
<text x="375.0" y="240.5" font-size="13.5" font-weight="700" fill="#111111" text-anchor="middle">Process each</text>
<rect x="320" y="260" width="110" height="40" rx="9" fill="#eef4fb" stroke="#2f6db5" stroke-width="2"/>
<text x="375.0" y="285.5" font-size="13.5" font-weight="700" fill="#111111" text-anchor="middle">Aggregate</text>
<rect x="460" y="230" width="130" height="38" rx="9" fill="#ffffff" stroke="#111111" stroke-width="2"/>
<text x="525.0" y="254.5" font-size="13.5" font-weight="700" fill="#111111" text-anchor="middle">.enriched</text>
<rect x="580" y="220" width="130" height="38" rx="9" fill="#ffffff" stroke="#111111" stroke-width="2"/>
<text x="645.0" y="244.5" font-size="13.5" font-weight="700" fill="#111111" text-anchor="middle">.loadbalanced</text>
<rect x="730" y="210" width="100" height="30" rx="9" fill="#f4f4f4" stroke="#888888" stroke-width="1.5"/>
<text x="780.0" y="230.5" font-size="13.5" font-weight="700" fill="#111111" text-anchor="middle">East / NYC</text>
<rect x="730" y="245" width="100" height="30" rx="9" fill="#f4f4f4" stroke="#888888" stroke-width="1.5"/>
<text x="780.0" y="265.5" font-size="13.5" font-weight="700" fill="#111111" text-anchor="middle">Central / CHI</text>
<path d="M160,55 L190,55" fill="none" stroke="#b8650a" stroke-width="2" marker-end="url(#am)"/>
<path d="M340,55 L370,55" fill="none" stroke="#555" stroke-width="2" marker-end="url(#a)"/>
<path d="M450,55 L470,55" fill="none" stroke="#555" stroke-width="2" marker-end="url(#a)"/>
<path d="M550,55 L570,55" fill="none" stroke="#555" stroke-width="2" marker-end="url(#a)"/>
<path d="M650,55 L680,55" fill="none" stroke="#555" stroke-width="2" marker-end="url(#a)"/>
<path d="M160,142 L190,142" fill="none" stroke="#555" stroke-width="2" marker-end="url(#a)"/>
<path d="M300,132 L330,130" fill="none" stroke="#555" stroke-width="2" marker-end="url(#a)"/>
<path d="M300,148 L330,165" fill="none" stroke="#555" stroke-width="2" marker-end="url(#a)"/>
<path d="M710,142 L720,142" fill="none" stroke="#555" stroke-width="2" marker-end="url(#a)"/>
<path d="M160,240 L180,240" fill="none" stroke="#555" stroke-width="2" marker-end="url(#a)"/>
<path d="M290,235 L320,235" fill="none" stroke="#555" stroke-width="2" marker-end="url(#a)"/>
<path d="M375,255 L375,260" fill="none" stroke="#555" stroke-width="2" marker-end="url(#a)"/>
<path d="M430,280 L460,248" fill="none" stroke="#555" stroke-width="2" marker-end="url(#a)"/>
<path d="M710,240 L730,228" fill="none" stroke="#555" stroke-width="2" marker-end="url(#a)"/>
<path d="M710,248 L730,260" fill="none" stroke="#555" stroke-width="2" marker-end="url(#a)"/>
<text x="730" y="282" font-size="10" fill="#888" text-anchor="start">West / LAX</text>
<text x="850" y="155" font-size="10" fill="#888" text-anchor="start">.resequenced</text>
</svg>