<svg xmlns="http://www.w3.org/2000/svg" viewBox="0 0 880 340" font-family="'Red Hat Text', system-ui, sans-serif" role="img">
<defs><marker id="a" viewBox="0 0 10 10" refX="8.5" refY="5" markerWidth="9" markerHeight="9" orient="auto-start-reverse"><path d="M0,0 L10,5 L0,10 z" fill="#555"/></marker><marker id="am" viewBox="0 0 10 10" refX="8.5" refY="5" markerWidth="9" markerHeight="9" orient="auto-start-reverse"><path d="M0,0 L10,5 L0,10 z" fill="#b8650a"/></marker></defs>
<rect x="10" y="10" width="430" height="150" rx="12" fill="#fafafa" stroke="#ddd"/>
<text x="22" y="30" font-size="12" font-weight="700" fill="#888">Wire Tap</text>
<rect x="450" y="10" width="420" height="150" rx="12" fill="#fafafa" stroke="#ddd"/>
<text x="462" y="30" font-size="12" font-weight="700" fill="#888">Control Bus</text>
<rect x="10" y="170" width="860" height="160" rx="12" fill="#fafafa" stroke="#ddd"/>
<text x="22" y="190" font-size="12" font-weight="700" fill="#888">Message History + Message Store</text>
<rect x="30" y="45" width="130" height="38" rx="9" fill="#ffffff" stroke="#111111" stroke-width="2"/>
<text x="95.0" y="69.5" font-size="13.5" font-weight="700" fill="#111111" text-anchor="middle">eip.orders.placed</text>
<rect x="190" y="35" width="120" height="50" rx="9" fill="#eef4fb" stroke="#2f6db5" stroke-width="2"/>
<text x="250.0" y="58.0" font-size="13.5" font-weight="700" fill="#111111" text-anchor="middle">Wire Tap</text>
<text x="250.0" y="75.0" font-size="11.5" fill="#555555" text-anchor="middle">copy to audit</text>
<rect x="30" y="110" width="130" height="38" rx="9" fill="#fff8ef" stroke="#e8870c" stroke-width="2"/>
<text x="95.0" y="134.5" font-size="13.5" font-weight="700" fill="#111111" text-anchor="middle">.audit</text>
<rect x="190" y="110" width="130" height="38" rx="9" fill="#ffffff" stroke="#111111" stroke-width="2"/>
<text x="255.0" y="134.5" font-size="13.5" font-weight="700" fill="#111111" text-anchor="middle">.processed</text>
<rect x="470" y="35" width="140" height="50" rx="9" fill="#eef4fb" stroke="#2f6db5" stroke-width="2"/>
<text x="540.0" y="58.0" font-size="13.5" font-weight="700" fill="#111111" text-anchor="middle">Control Bus</text>
<text x="540.0" y="75.0" font-size="11.5" fill="#555555" text-anchor="middle">REST endpoints</text>
<rect x="640" y="30" width="100" height="30" rx="9" fill="#f4f4f4" stroke="#888888" stroke-width="1.5"/>
<text x="690.0" y="50.5" font-size="13.5" font-weight="700" fill="#111111" text-anchor="middle">GET /status</text>
<rect x="640" y="65" width="100" height="30" rx="9" fill="#f4f4f4" stroke="#888888" stroke-width="1.5"/>
<text x="690.0" y="85.5" font-size="13.5" font-weight="700" fill="#111111" text-anchor="middle">POST /stop</text>
<rect x="640" y="100" width="100" height="30" rx="9" fill="#f4f4f4" stroke="#888888" stroke-width="1.5"/>
<text x="690.0" y="120.5" font-size="13.5" font-weight="700" fill="#111111" text-anchor="middle">POST /start</text>
<rect x="30" y="210" width="130" height="38" rx="9" fill="#ffffff" stroke="#111111" stroke-width="2"/>
<text x="95.0" y="227.0" font-size="13.5" font-weight="700" fill="#111111" text-anchor="middle">eip.orders</text>
<text x="95.0" y="244.0" font-size="11.5" fill="#555555" text-anchor="middle">.incoming</text>
<rect x="190" y="200" width="100" height="40" rx="9" fill="#f4f4f4" stroke="#888888" stroke-width="1.5"/>
<text x="240.0" y="225.5" font-size="13.5" font-weight="700" fill="#111111" text-anchor="middle">Validate</text>
<rect x="310" y="200" width="100" height="40" rx="9" fill="#f4f4f4" stroke="#888888" stroke-width="1.5"/>
<text x="360.0" y="225.5" font-size="13.5" font-weight="700" fill="#111111" text-anchor="middle">Enrich</text>
<rect x="430" y="200" width="120" height="40" rx="9" fill="#eef4fb" stroke="#2f6db5" stroke-width="2"/>
<text x="490.0" y="225.5" font-size="13.5" font-weight="700" fill="#111111" text-anchor="middle">Log History</text>
<rect x="580" y="210" width="130" height="38" rx="9" fill="#ffffff" stroke="#111111" stroke-width="2"/>
<text x="645.0" y="234.5" font-size="13.5" font-weight="700" fill="#111111" text-anchor="middle">.processed</text>
<rect x="310" y="270" width="160" height="45" rx="9" fill="#eef4fb" stroke="#2f6db5" stroke-width="2"/>
<text x="390.0" y="290.5" font-size="13.5" font-weight="700" fill="#111111" text-anchor="middle">Message Store</text>
<text x="390.0" y="307.5" font-size="11.5" fill="#555555" text-anchor="middle">wireTap → PostgreSQL</text>
<rect x="510" y="275" width="155" height="40" rx="9" fill="#ffffff" stroke="#999999" stroke-width="1.5"/>
<text x="587.5" y="293.0" font-size="13.5" font-weight="700" fill="#111111" text-anchor="middle">PostgreSQL</text>
<text x="587.5" y="310.0" font-size="11.5" fill="#555555" text-anchor="middle">system.message_store</text>
<path d="M160,68 L190,68" fill="none" stroke="#b8650a" stroke-width="2" marker-end="url(#am)"/>
<path d="M250,85 L250,110" fill="none" stroke="#555" stroke-width="2" marker-end="url(#a)"/>
<path d="M250,68 L250,55" fill="none" stroke="#555" stroke-width="2" marker-end="url(#a)"/>
<path d="M190,55 L190,110" fill="none" stroke="#555" stroke-width="2" marker-end="url(#a)"/>
<text x="230.0" y="76.5" font-size="11" fill="#ffffff" stroke="#ffffff" stroke-width="3" paint-order="stroke" text-anchor="middle">main flow</text>
<text x="230.0" y="76.5" font-size="11" fill="#555" text-anchor="middle">main flow</text>
<path d="M610,50 L640,50" fill="none" stroke="#555" stroke-width="2" marker-end="url(#a)"/>
<path d="M610,68 L640,80" fill="none" stroke="#555" stroke-width="2" marker-end="url(#a)"/>
<path d="M610,85 L640,115" fill="none" stroke="#555" stroke-width="2" marker-end="url(#a)"/>
<path d="M160,230 L190,225" fill="none" stroke="#555" stroke-width="2" marker-end="url(#a)"/>
<path d="M290,225 L310,225" fill="none" stroke="#555" stroke-width="2" marker-end="url(#a)"/>
<path d="M410,225 L430,225" fill="none" stroke="#555" stroke-width="2" marker-end="url(#a)"/>
<path d="M550,225 L580,225" fill="none" stroke="#555" stroke-width="2" marker-end="url(#a)"/>
<path d="M370,240 L370,270" fill="none" stroke="#555" stroke-width="2" marker-end="url(#a)"/>
<text x="376.0" y="249.0" font-size="11" fill="#ffffff" stroke="#ffffff" stroke-width="3" paint-order="stroke" text-anchor="middle">wireTap</text>
<text x="376.0" y="249.0" font-size="11" fill="#555" text-anchor="middle">wireTap</text>
<path d="M470,292 L510,292" fill="none" stroke="#555" stroke-width="2" marker-end="url(#a)"/>
</svg>