<svg xmlns="http://www.w3.org/2000/svg" viewBox="0 0 800 270" font-family="'Red Hat Text', system-ui, sans-serif" role="img">
<defs><marker id="a" viewBox="0 0 10 10" refX="8.5" refY="5" markerWidth="9" markerHeight="9" orient="auto-start-reverse"><path d="M0,0 L10,5 L0,10 z" fill="#555"/></marker><marker id="am" viewBox="0 0 10 10" refX="8.5" refY="5" markerWidth="9" markerHeight="9" orient="auto-start-reverse"><path d="M0,0 L10,5 L0,10 z" fill="#b8650a"/></marker></defs>
<rect x="10" y="10" width="780" height="120" rx="12" fill="#fafafa" stroke="#ddd"/>
<text x="22" y="30" font-size="12" font-weight="700" fill="#888">Scatter-Gather</text>
<rect x="10" y="140" width="780" height="120" rx="12" fill="#fafafa" stroke="#ddd"/>
<text x="22" y="160" font-size="12" font-weight="700" fill="#888">Routing Slip</text>
<rect x="30" y="50" width="130" height="38" rx="9" fill="#ffffff" stroke="#111111" stroke-width="2"/>
<text x="95.0" y="67.0" font-size="13.5" font-weight="700" fill="#111111" text-anchor="middle">eip.shipping</text>
<text x="95.0" y="84.0" font-size="11.5" fill="#555555" text-anchor="middle">.rate-requests</text>
<rect x="200" y="35" width="160" height="55" rx="9" fill="#eef4fb" stroke="#2f6db5" stroke-width="2"/>
<text x="280.0" y="60.5" font-size="13.5" font-weight="700" fill="#111111" text-anchor="middle">Scatter-Gather</text>
<text x="280.0" y="77.5" font-size="11.5" fill="#555555" text-anchor="middle">multicast (5s timeout)</text>
<rect x="400" y="30" width="80" height="30" rx="9" fill="#f4f4f4" stroke="#888888" stroke-width="1.5"/>
<text x="440.0" y="50.5" font-size="13.5" font-weight="700" fill="#111111" text-anchor="middle">FedEx</text>
<rect x="400" y="65" width="80" height="30" rx="9" fill="#f4f4f4" stroke="#888888" stroke-width="1.5"/>
<text x="440.0" y="85.5" font-size="13.5" font-weight="700" fill="#111111" text-anchor="middle">UPS</text>
<rect x="400" y="100" width="80" height="30" rx="9" fill="#f4f4f4" stroke="#888888" stroke-width="1.5"/>
<text x="440.0" y="120.5" font-size="13.5" font-weight="700" fill="#111111" text-anchor="middle">USPS</text>
<rect x="510" y="45" width="140" height="50" rx="9" fill="#eef4fb" stroke="#2f6db5" stroke-width="2"/>
<text x="580.0" y="68.0" font-size="13.5" font-weight="700" fill="#111111" text-anchor="middle">BestRateStrategy</text>
<text x="580.0" y="85.0" font-size="11.5" fill="#555555" text-anchor="middle">lowest rate</text>
<rect x="680" y="55" width="130" height="38" rx="9" fill="#fff8ef" stroke="#e8870c" stroke-width="2"/>
<text x="745.0" y="72.0" font-size="13.5" font-weight="700" fill="#111111" text-anchor="middle">eip.shipping</text>
<text x="745.0" y="89.0" font-size="11.5" fill="#555555" text-anchor="middle">.best-rate</text>
<rect x="30" y="180" width="130" height="38" rx="9" fill="#ffffff" stroke="#111111" stroke-width="2"/>
<text x="95.0" y="204.5" font-size="13.5" font-weight="700" fill="#111111" text-anchor="middle">eip.orders.placed</text>
<rect x="200" y="170" width="140" height="50" rx="9" fill="#eef4fb" stroke="#2f6db5" stroke-width="2"/>
<text x="270.0" y="193.0" font-size="13.5" font-weight="700" fill="#111111" text-anchor="middle">Routing Slip</text>
<text x="270.0" y="210.0" font-size="11.5" fill="#555555" text-anchor="middle">dynamic pipeline</text>
<rect x="370" y="175" width="80" height="35" rx="9" fill="#f4f4f4" stroke="#888888" stroke-width="1.5"/>
<text x="410.0" y="198.0" font-size="13.5" font-weight="700" fill="#111111" text-anchor="middle">validate</text>
<rect x="470" y="175" width="80" height="35" rx="9" fill="#ffffff" stroke="#999999" stroke-width="1.5" stroke-dasharray="6 4"/>
<text x="510.0" y="198.0" font-size="13.5" font-weight="700" fill="#111111" text-anchor="middle">hazmat?</text>
<rect x="570" y="175" width="80" height="35" rx="9" fill="#ffffff" stroke="#999999" stroke-width="1.5" stroke-dasharray="6 4"/>
<text x="610.0" y="198.0" font-size="13.5" font-weight="700" fill="#111111" text-anchor="middle">customs?</text>
<rect x="670" y="175" width="80" height="35" rx="9" fill="#f4f4f4" stroke="#888888" stroke-width="1.5"/>
<text x="710.0" y="198.0" font-size="13.5" font-weight="700" fill="#111111" text-anchor="middle">carrier</text>
<path d="M160,70 L200,62" fill="none" stroke="#b8650a" stroke-width="2" marker-end="url(#am)"/>
<path d="M360,55 L400,45" fill="none" stroke="#555" stroke-width="2" marker-end="url(#a)"/>
<path d="M360,63 L400,80" fill="none" stroke="#555" stroke-width="2" marker-end="url(#a)"/>
<path d="M360,70 L400,115" fill="none" stroke="#555" stroke-width="2" marker-end="url(#a)"/>
<path d="M480,50 L510,65" fill="none" stroke="#555" stroke-width="2" marker-end="url(#a)"/>
<path d="M480,80 L510,72" fill="none" stroke="#555" stroke-width="2" marker-end="url(#a)"/>
<path d="M480,112 L510,80" fill="none" stroke="#555" stroke-width="2" marker-end="url(#a)"/>
<path d="M650,70 L680,70" fill="none" stroke="#555" stroke-width="2" marker-end="url(#a)"/>
<path d="M160,200 L200,200" fill="none" stroke="#b8650a" stroke-width="2" marker-end="url(#am)"/>
<path d="M340,195 L370,195" fill="none" stroke="#555" stroke-width="2" marker-end="url(#a)"/>
<path d="M450,195 L470,195" fill="none" stroke="#555" stroke-width="2" marker-end="url(#a)"/>
<path d="M550,195 L570,195" fill="none" stroke="#555" stroke-width="2" marker-end="url(#a)"/>
<path d="M650,195 L670,195" fill="none" stroke="#555" stroke-width="2" marker-end="url(#a)"/>
</svg>