<svg xmlns="http://www.w3.org/2000/svg" viewBox="0 0 780 270" font-family="'Red Hat Text', system-ui, sans-serif" role="img">
<defs><marker id="a" viewBox="0 0 10 10" refX="8.5" refY="5" markerWidth="9" markerHeight="9" orient="auto-start-reverse"><path d="M0,0 L10,5 L0,10 z" fill="#555"/></marker><marker id="am" viewBox="0 0 10 10" refX="8.5" refY="5" markerWidth="9" markerHeight="9" orient="auto-start-reverse"><path d="M0,0 L10,5 L0,10 z" fill="#b8650a"/></marker></defs>
<rect x="10" y="10" width="760" height="130" rx="12" fill="#fafafa" stroke="#ddd"/>
<text x="22" y="30" font-size="12" font-weight="700" fill="#555555">Aggregator</text>
<rect x="10" y="150" width="760" height="110" rx="12" fill="#fafafa" stroke="#ddd"/>
<text x="22" y="170" font-size="12" font-weight="700" fill="#555555">Normalizer</text>
<rect x="30" y="45" width="130" height="38" rx="9" fill="#ffffff" stroke="#111111" stroke-width="2"/>
<text x="95.0" y="62.0" font-size="13.5" font-weight="700" fill="#111111" text-anchor="middle">eip.orders</text>
<text x="95.0" y="79.0" font-size="11.5" fill="#555555" text-anchor="middle">.line-items</text>
<rect x="200" y="30" width="140" height="45" rx="9" fill="#eef4fb" stroke="#2f6db5" stroke-width="2"/>
<text x="270.0" y="50.5" font-size="13.5" font-weight="700" fill="#111111" text-anchor="middle">Aggregator</text>
<text x="270.0" y="67.5" font-size="11.5" fill="#555555" text-anchor="middle">(in-memory)</text>
<rect x="380" y="35" width="130" height="38" rx="9" fill="#ffffff" stroke="#111111" stroke-width="2"/>
<text x="445.0" y="59.5" font-size="13.5" font-weight="700" fill="#111111" text-anchor="middle">.complete</text>
<rect x="200" y="85" width="140" height="45" rx="9" fill="#eef4fb" stroke="#2f6db5" stroke-width="2"/>
<text x="270.0" y="105.5" font-size="13.5" font-weight="700" fill="#111111" text-anchor="middle">Aggregator</text>
<text x="270.0" y="122.5" font-size="11.5" fill="#555555" text-anchor="middle">(PostgreSQL)</text>
<rect x="380" y="90" width="130" height="38" rx="9" fill="#ffffff" stroke="#999999" stroke-width="1.5"/>
<text x="445.0" y="114.5" font-size="13.5" font-weight="700" fill="#111111" text-anchor="middle">.complete-persist.</text>
<rect x="560" y="60" width="150" height="45" rx="9" fill="#ffffff" stroke="#999999" stroke-width="1.5"/>
<text x="635.0" y="80.5" font-size="13.5" font-weight="700" fill="#111111" text-anchor="middle">PostgreSQL</text>
<text x="635.0" y="97.5" font-size="11.5" fill="#555555" text-anchor="middle">camel_aggregation</text>
<rect x="30" y="185" width="130" height="38" rx="9" fill="#ffffff" stroke="#111111" stroke-width="2"/>
<text x="95.0" y="209.5" font-size="13.5" font-weight="700" fill="#111111" text-anchor="middle">.partner-a</text>
<rect x="30" y="225" width="130" height="38" rx="9" fill="#ffffff" stroke="#111111" stroke-width="2"/>
<text x="95.0" y="249.5" font-size="13.5" font-weight="700" fill="#111111" text-anchor="middle">.partner-b</text>
<rect x="30" y="265" width="130" height="38" rx="9" fill="#f4f4f4" stroke="#666666" stroke-width="1.5"/>
<text x="95.0" y="289.5" font-size="13.5" font-weight="700" fill="#111111" text-anchor="middle">.partner-c</text>
<rect x="200" y="190" width="170" height="45" rx="9" fill="#eef4fb" stroke="#2f6db5" stroke-width="2"/>
<text x="285.0" y="210.5" font-size="13.5" font-weight="700" fill="#111111" text-anchor="middle">Normalizer</text>
<text x="285.0" y="227.5" font-size="11.5" fill="#555555" text-anchor="middle">3 formats → canonical</text>
<rect x="410" y="205" width="130" height="38" rx="9" fill="#ffffff" stroke="#111111" stroke-width="2"/>
<text x="475.0" y="229.5" font-size="13.5" font-weight="700" fill="#111111" text-anchor="middle">.normalized</text>
<path d="M160,65 L200,55" fill="none" stroke="#b8650a" stroke-width="2" marker-end="url(#am)"/>
<path d="M160,75 L200,108" fill="none" stroke="#555" stroke-width="2" marker-end="url(#a)"/>
<path d="M340,55 L380,55" fill="none" stroke="#555" stroke-width="2" marker-end="url(#a)"/>
<path d="M340,108 L380,108" fill="none" stroke="#555" stroke-width="2" marker-end="url(#a)"/>
<path d="M520,108 L560,82" fill="none" stroke="#555" stroke-width="2" marker-end="url(#a)"/>
<path d="M160,205 L200,210" fill="none" stroke="#555" stroke-width="2" marker-end="url(#a)"/>
<path d="M160,245 L200,218" fill="none" stroke="#555" stroke-width="2" marker-end="url(#a)"/>
<path d="M160,278 L200,225" fill="none" stroke="#555" stroke-width="2" marker-end="url(#a)"/>
<path d="M370,215 L410,220" fill="none" stroke="#555" stroke-width="2" marker-end="url(#a)"/>
</svg>