<svg xmlns="http://www.w3.org/2000/svg" viewBox="0 0 880 370" font-family="'Red Hat Text', system-ui, sans-serif" role="img">
<defs><marker id="a" viewBox="0 0 10 10" refX="8.5" refY="5" markerWidth="9" markerHeight="9" orient="auto-start-reverse"><path d="M0,0 L10,5 L0,10 z" fill="#555"/></marker><marker id="am" viewBox="0 0 10 10" refX="8.5" refY="5" markerWidth="9" markerHeight="9" orient="auto-start-reverse"><path d="M0,0 L10,5 L0,10 z" fill="#b8650a"/></marker></defs>
<rect x="10" y="10" width="430" height="170" rx="12" fill="#fafafa" stroke="#ddd"/>
<text x="22" y="30" font-size="12" font-weight="700" fill="#555555">Test Message</text>
<rect x="450" y="10" width="420" height="170" rx="12" fill="#fafafa" stroke="#ddd"/>
<text x="462" y="30" font-size="12" font-weight="700" fill="#555555">Detour</text>
<rect x="10" y="190" width="430" height="170" rx="12" fill="#fafafa" stroke="#ddd"/>
<text x="22" y="210" font-size="12" font-weight="700" fill="#555555">Circuit Breaker</text>
<rect x="450" y="190" width="420" height="170" rx="12" fill="#fafafa" stroke="#ddd"/>
<text x="462" y="210" font-size="12" font-weight="700" fill="#555555">Smart Proxy</text>
<rect x="30" y="40" width="100" height="35" rx="9" fill="#fff8ef" stroke="#e8870c" stroke-width="2"/>
<text x="80.0" y="63.0" font-size="13.5" font-weight="700" fill="#111111" text-anchor="middle">Timer (5s)</text>
<rect x="160" y="42" width="130" height="38" rx="9" fill="#ffffff" stroke="#111111" stroke-width="2"/>
<text x="225.0" y="66.5" font-size="13.5" font-weight="700" fill="#111111" text-anchor="middle">eip.orders.placed</text>
<rect x="160" y="100" width="140" height="45" rx="9" fill="#eef4fb" stroke="#2f6db5" stroke-width="2"/>
<text x="230.0" y="120.5" font-size="13.5" font-weight="700" fill="#111111" text-anchor="middle">Business Proc.</text>
<text x="230.0" y="137.5" font-size="11.5" fill="#555555" text-anchor="middle">filter test msgs</text>
<rect x="330" y="42" width="130" height="38" rx="9" fill="#ffffff" stroke="#111111" stroke-width="2"/>
<text x="395.0" y="66.5" font-size="13.5" font-weight="700" fill="#111111" text-anchor="middle">.processed</text>
<rect x="330" y="110" width="130" height="38" rx="9" fill="#fff8ef" stroke="#e8870c" stroke-width="2"/>
<text x="395.0" y="134.5" font-size="13.5" font-weight="700" fill="#111111" text-anchor="middle">.test.failures</text>
<rect x="30" y="130" width="140" height="40" rx="9" fill="#fff8ef" stroke="#e8870c" stroke-width="2"/>
<text x="100.0" y="148.0" font-size="13.5" font-weight="700" fill="#111111" text-anchor="middle">Test Injector (30s)</text>
<text x="100.0" y="165.0" font-size="11.5" fill="#555555" text-anchor="middle">negative IDs</text>
<rect x="470" y="42" width="130" height="38" rx="9" fill="#ffffff" stroke="#111111" stroke-width="2"/>
<text x="535.0" y="66.5" font-size="13.5" font-weight="700" fill="#111111" text-anchor="middle">eip.orders.placed</text>
<rect x="630" y="30" width="100" height="45" rx="9" fill="#eef4fb" stroke="#2f6db5" stroke-width="2"/>
<text x="680.0" y="58.0" font-size="13.5" font-weight="700" fill="#111111" text-anchor="middle">Detour</text>
<rect x="760" y="30" width="90" height="35" rx="9" fill="#ffffff" stroke="#999999" stroke-width="1.5" stroke-dasharray="6 4"/>
<text x="805.0" y="53.0" font-size="13.5" font-weight="700" fill="#111111" text-anchor="middle">Enrich</text>
<rect x="630" y="100" width="130" height="38" rx="9" fill="#ffffff" stroke="#111111" stroke-width="2"/>
<text x="695.0" y="124.5" font-size="13.5" font-weight="700" fill="#111111" text-anchor="middle">.enriched</text>
<rect x="30" y="225" width="130" height="38" rx="9" fill="#ffffff" stroke="#111111" stroke-width="2"/>
<text x="95.0" y="249.5" font-size="13.5" font-weight="700" fill="#111111" text-anchor="middle">.processed</text>
<rect x="190" y="215" width="150" height="50" rx="9" fill="#eef4fb" stroke="#2f6db5" stroke-width="2"/>
<text x="265.0" y="238.0" font-size="13.5" font-weight="700" fill="#111111" text-anchor="middle">Circuit Breaker</text>
<text x="265.0" y="255.0" font-size="11.5" fill="#555555" text-anchor="middle">inventory check</text>
<rect x="370" y="220" width="130" height="38" rx="9" fill="#ffffff" stroke="#111111" stroke-width="2"/>
<text x="435.0" y="244.5" font-size="13.5" font-weight="700" fill="#111111" text-anchor="middle">.inventory-checked</text>
<rect x="190" y="290" width="130" height="38" rx="9" fill="#fff8ef" stroke="#e8870c" stroke-width="2"/>
<text x="255.0" y="314.5" font-size="13.5" font-weight="700" fill="#111111" text-anchor="middle">.dlq</text>
<rect x="470" y="220" width="140" height="45" rx="9" fill="#fff8ef" stroke="#e8870c" stroke-width="2"/>
<text x="540.0" y="240.5" font-size="13.5" font-weight="700" fill="#111111" text-anchor="middle">POST /payments</text>
<text x="540.0" y="257.5" font-size="11.5" fill="#555555" text-anchor="middle">/process</text>
<rect x="640" y="215" width="140" height="50" rx="9" fill="#eef4fb" stroke="#2f6db5" stroke-width="2"/>
<text x="710.0" y="238.0" font-size="13.5" font-weight="700" fill="#111111" text-anchor="middle">Smart Proxy</text>
<text x="710.0" y="255.0" font-size="11.5" fill="#555555" text-anchor="middle">mock / production</text>
<rect x="640" y="290" width="90" height="35" rx="9" fill="#f4f4f4" stroke="#666666" stroke-width="1.5"/>
<text x="685.0" y="313.0" font-size="13.5" font-weight="700" fill="#111111" text-anchor="middle">Mock GW</text>
<rect x="760" y="290" width="90" height="35" rx="9" fill="#ffffff" stroke="#999999" stroke-width="1.5" stroke-dasharray="6 4"/>
<text x="805.0" y="313.0" font-size="13.5" font-weight="700" fill="#111111" text-anchor="middle">Prod GW</text>
<path d="M130,57 L160,57" fill="none" stroke="#b8650a" stroke-width="2" marker-end="url(#am)"/>
<path d="M230,80 L230,100" fill="none" stroke="#555" stroke-width="2" marker-end="url(#a)"/>
<path d="M300,125 L330,62" fill="none" stroke="#555" stroke-width="2" marker-end="url(#a)"/>
<path d="M300,135 L330,130" fill="none" stroke="#555" stroke-width="2" marker-end="url(#a)"/>
<path d="M170,155 L225,100" fill="none" stroke="#555" stroke-width="2" marker-end="url(#a)"/>
<path d="M600,62 L630,52" fill="none" stroke="#555" stroke-width="2" marker-end="url(#a)"/>
<path d="M730,50 L760,48" fill="none" stroke="#555" stroke-width="2" marker-end="url(#a)"/>
<path d="M730,65 L730,100" fill="none" stroke="#555" stroke-width="2" marker-end="url(#a)"/>
<path d="M160,248 L190,248" fill="none" stroke="#b8650a" stroke-width="2" marker-end="url(#am)"/>
<path d="M340,240 L370,240" fill="none" stroke="#555" stroke-width="2" marker-end="url(#a)"/>
<path d="M265,265 L265,290" fill="none" stroke="#555" stroke-width="2" marker-end="url(#a)"/>
<text x="271.0" y="271.5" font-size="11" fill="#ffffff" stroke="#ffffff" stroke-width="3" paint-order="stroke" text-anchor="middle">fallback</text>
<text x="271.0" y="271.5" font-size="11" fill="#555" text-anchor="middle">fallback</text>
<path d="M610,245 L640,245" fill="none" stroke="#555" stroke-width="2" marker-end="url(#a)"/>
<path d="M710,265 L710,290" fill="none" stroke="#555" stroke-width="2" marker-end="url(#a)"/>
<path d="M720,265 L760,295" fill="none" stroke="#555" stroke-width="2" marker-end="url(#a)"/>
</svg>