<svg xmlns="http://www.w3.org/2000/svg" viewBox="0 0 880 360" font-family="'Red Hat Text', system-ui, sans-serif" role="img">
<defs><marker id="a" viewBox="0 0 10 10" refX="8.5" refY="5" markerWidth="9" markerHeight="9" orient="auto-start-reverse"><path d="M0,0 L10,5 L0,10 z" fill="#555"/></marker><marker id="am" viewBox="0 0 10 10" refX="8.5" refY="5" markerWidth="9" markerHeight="9" orient="auto-start-reverse"><path d="M0,0 L10,5 L0,10 z" fill="#b8650a"/></marker></defs>
<rect x="10" y="10" width="420" height="170" rx="12" fill="#fafafa" stroke="#ddd"/>
<text x="22" y="30" font-size="12" font-weight="700" fill="#888">Kafka Consumers</text>
<rect x="440" y="10" width="430" height="170" rx="12" fill="#fafafa" stroke="#ddd"/>
<text x="452" y="30" font-size="12" font-weight="700" fill="#888">Pulsar + PostgreSQL</text>
<rect x="10" y="190" width="860" height="160" rx="12" fill="#fafafa" stroke="#ddd"/>
<text x="22" y="210" font-size="12" font-weight="700" fill="#888">Message Dispatcher</text>
<rect x="30" y="40" width="130" height="38" rx="9" fill="#ffffff" stroke="#111111" stroke-width="2"/>
<text x="95.0" y="64.5" font-size="13.5" font-weight="700" fill="#111111" text-anchor="middle">.consumer.events</text>
<rect x="190" y="33" width="130" height="40" rx="9" fill="#eef4fb" stroke="#2f6db5" stroke-width="2"/>
<text x="255.0" y="51.0" font-size="13.5" font-weight="700" fill="#111111" text-anchor="middle">Event-Driven</text>
<text x="255.0" y="68.0" font-size="11.5" fill="#555555" text-anchor="middle">push messages</text>
<rect x="30" y="90" width="130" height="38" rx="9" fill="#ffffff" stroke="#111111" stroke-width="2"/>
<text x="95.0" y="114.5" font-size="13.5" font-weight="700" fill="#111111" text-anchor="middle">.consumer.compete</text>
<rect x="190" y="83" width="130" height="40" rx="9" fill="#eef4fb" stroke="#2f6db5" stroke-width="2"/>
<text x="255.0" y="101.0" font-size="13.5" font-weight="700" fill="#111111" text-anchor="middle">Competing (3)</text>
<text x="255.0" y="118.0" font-size="11.5" fill="#555555" text-anchor="middle">parallel threads</text>
<rect x="30" y="140" width="130" height="38" rx="9" fill="#ffffff" stroke="#111111" stroke-width="2"/>
<text x="95.0" y="164.5" font-size="13.5" font-weight="700" fill="#111111" text-anchor="middle">.consumer.poll</text>
<rect x="190" y="133" width="145" height="40" rx="9" fill="#eef4fb" stroke="#2f6db5" stroke-width="2"/>
<text x="262.5" y="151.0" font-size="13.5" font-weight="700" fill="#111111" text-anchor="middle">Polling Consumer</text>
<text x="262.5" y="168.0" font-size="11.5" fill="#555555" text-anchor="middle">timer + pollEnrich</text>
<rect x="460" y="33" width="140" height="45" rx="9" fill="#eef4fb" stroke="#2f6db5" stroke-width="2"/>
<text x="530.0" y="53.5" font-size="13.5" font-weight="700" fill="#111111" text-anchor="middle">Pulsar Consumer</text>
<text x="530.0" y="70.5" font-size="11.5" fill="#555555" text-anchor="middle">Shared × 3</text>
<rect x="630" y="40" width="130" height="38" rx="9" fill="#ffffff" stroke="#999999" stroke-width="1.5"/>
<text x="695.0" y="57.0" font-size="13.5" font-weight="700" fill="#111111" text-anchor="middle">pulsar:eip</text>
<text x="695.0" y="74.0" font-size="11.5" fill="#555555" text-anchor="middle">.consumer.events</text>
<rect x="460" y="95" width="150" height="50" rx="9" fill="#eef4fb" stroke="#2f6db5" stroke-width="2"/>
<text x="535.0" y="118.0" font-size="13.5" font-weight="700" fill="#111111" text-anchor="middle">SQL Polling</text>
<text x="535.0" y="135.0" font-size="11.5" fill="#555555" text-anchor="middle">SELECT WHERE PLACED</text>
<rect x="640" y="100" width="130" height="38" rx="9" fill="#ffffff" stroke="#999999" stroke-width="1.5"/>
<text x="705.0" y="117.0" font-size="13.5" font-weight="700" fill="#111111" text-anchor="middle">PostgreSQL</text>
<text x="705.0" y="134.0" font-size="11.5" fill="#555555" text-anchor="middle">orders.orders</text>
<rect x="460" y="155" width="130" height="38" rx="9" fill="#fff8ef" stroke="#e8870c" stroke-width="2"/>
<text x="525.0" y="179.5" font-size="13.5" font-weight="700" fill="#111111" text-anchor="middle">eip.orders.placed</text>
<rect x="30" y="225" width="130" height="38" rx="9" fill="#ffffff" stroke="#111111" stroke-width="2"/>
<text x="95.0" y="249.5" font-size="13.5" font-weight="700" fill="#111111" text-anchor="middle">.consumer.dispatch</text>
<rect x="200" y="215" width="150" height="50" rx="9" fill="#eef4fb" stroke="#2f6db5" stroke-width="2"/>
<text x="275.0" y="238.0" font-size="13.5" font-weight="700" fill="#111111" text-anchor="middle">Dispatcher</text>
<text x="275.0" y="255.0" font-size="11.5" fill="#555555" text-anchor="middle">toD(handle-{type})</text>
<rect x="390" y="215" width="120" height="35" rx="9" fill="#f4f4f4" stroke="#888888" stroke-width="1.5"/>
<text x="450.0" y="238.0" font-size="13.5" font-weight="700" fill="#111111" text-anchor="middle">handle-placed</text>
<rect x="390" y="255" width="120" height="35" rx="9" fill="#f4f4f4" stroke="#888888" stroke-width="1.5"/>
<text x="450.0" y="278.0" font-size="13.5" font-weight="700" fill="#111111" text-anchor="middle">handle-cancelled</text>
<rect x="390" y="295" width="120" height="35" rx="9" fill="#f4f4f4" stroke="#888888" stroke-width="1.5"/>
<text x="450.0" y="318.0" font-size="13.5" font-weight="700" fill="#111111" text-anchor="middle">handle-refunded</text>
<path d="M160,55 L190,55" fill="none" stroke="#555" stroke-width="2" marker-end="url(#a)"/>
<path d="M160,105 L190,105" fill="none" stroke="#555" stroke-width="2" marker-end="url(#a)"/>
<path d="M160,155 L190,155" fill="none" stroke="#555" stroke-width="2" marker-end="url(#a)"/>
<path d="M600,58 L630,58" fill="none" stroke="#555" stroke-width="2" marker-end="url(#a)"/>
<path d="M610,120 L640,120" fill="none" stroke="#555" stroke-width="2" marker-end="url(#a)"/>
<path d="M535,145 L535,155" fill="none" stroke="#555" stroke-width="2" marker-end="url(#a)"/>
<path d="M160,248 L200,248" fill="none" stroke="#555" stroke-width="2" marker-end="url(#a)"/>
<path d="M350,235 L390,235" fill="none" stroke="#555" stroke-width="2" marker-end="url(#a)"/>
<path d="M350,248 L390,272" fill="none" stroke="#555" stroke-width="2" marker-end="url(#a)"/>
<path d="M350,255 L390,310" fill="none" stroke="#555" stroke-width="2" marker-end="url(#a)"/>
</svg>