<svg xmlns="http://www.w3.org/2000/svg" viewBox="0 0 750 200" font-family="'Red Hat Text', system-ui, sans-serif" role="img">
<defs><marker id="a" viewBox="0 0 10 10" refX="8.5" refY="5" markerWidth="9" markerHeight="9" orient="auto-start-reverse"><path d="M0,0 L10,5 L0,10 z" fill="#555"/></marker><marker id="am" viewBox="0 0 10 10" refX="8.5" refY="5" markerWidth="9" markerHeight="9" orient="auto-start-reverse"><path d="M0,0 L10,5 L0,10 z" fill="#b8650a"/></marker></defs>
<rect x="10" y="10" width="730" height="180" rx="12" fill="#fafafa" stroke="#ddd"/>
<text x="22" y="30" font-size="12" font-weight="700" fill="#555555">Kafka + Redis</text>
<rect x="30" y="70" width="130" height="38" rx="9" fill="#ffffff" stroke="#111111" stroke-width="2"/>
<text x="95.0" y="87.0" font-size="13.5" font-weight="700" fill="#111111" text-anchor="middle">eip.orders</text>
<text x="95.0" y="104.0" font-size="11.5" fill="#555555" text-anchor="middle">.external</text>
<rect x="190" y="60" width="120" height="50" rx="9" fill="#eef4fb" stroke="#2f6db5" stroke-width="2"/>
<text x="250.0" y="83.0" font-size="13.5" font-weight="700" fill="#111111" text-anchor="middle">Translator</text>
<text x="250.0" y="100.0" font-size="11.5" fill="#555555" text-anchor="middle">partner → canon.</text>
<rect x="340" y="70" width="130" height="38" rx="9" fill="#ffffff" stroke="#111111" stroke-width="2"/>
<text x="405.0" y="87.0" font-size="13.5" font-weight="700" fill="#111111" text-anchor="middle">eip.orders</text>
<text x="405.0" y="104.0" font-size="11.5" fill="#555555" text-anchor="middle">.placed</text>
<rect x="340" y="130" width="130" height="50" rx="9" fill="#eef4fb" stroke="#2f6db5" stroke-width="2"/>
<text x="405.0" y="153.0" font-size="13.5" font-weight="700" fill="#111111" text-anchor="middle">Enricher</text>
<text x="405.0" y="170.0" font-size="11.5" fill="#555555" text-anchor="middle">Redis SKU lookup</text>
<rect x="500" y="130" width="110" height="40" rx="9" fill="#ffffff" stroke="#999999" stroke-width="1.5"/>
<text x="555.0" y="148.0" font-size="13.5" font-weight="700" fill="#111111" text-anchor="middle">Redis</text>
<text x="555.0" y="165.0" font-size="11.5" fill="#555555" text-anchor="middle">product hashes</text>
<rect x="500" y="70" width="130" height="38" rx="9" fill="#ffffff" stroke="#111111" stroke-width="2"/>
<text x="565.0" y="94.5" font-size="13.5" font-weight="700" fill="#111111" text-anchor="middle">.enriched</text>
<rect x="500" y="30" width="110" height="40" rx="9" fill="#eef4fb" stroke="#2f6db5" stroke-width="2"/>
<text x="555.0" y="48.0" font-size="13.5" font-weight="700" fill="#111111" text-anchor="middle">Filter</text>
<text x="555.0" y="65.0" font-size="11.5" fill="#555555" text-anchor="middle">strip PII</text>
<rect x="640" y="40" width="130" height="38" rx="9" fill="#f4f4f4" stroke="#666666" stroke-width="1.5"/>
<text x="705.0" y="64.5" font-size="13.5" font-weight="700" fill="#111111" text-anchor="middle">.analytics</text>
<path d="M160,90 L190,90" fill="none" stroke="#b8650a" stroke-width="2" marker-end="url(#am)"/>
<path d="M310,85 L340,85" fill="none" stroke="#555" stroke-width="2" marker-end="url(#a)"/>
<path d="M405,108 L405,130" fill="none" stroke="#555" stroke-width="2" marker-end="url(#a)"/>
<path d="M470,155 L500,155" fill="none" stroke="#555" stroke-width="2" marker-end="url(#a)"/>
<path d="M470,90 L500,90" fill="none" stroke="#555" stroke-width="2" marker-end="url(#a)"/>
<path d="M555,70 L555,50" fill="none" stroke="#555" stroke-width="2" marker-end="url(#a)"/>
<text x="561.0" y="54.0" font-size="11" fill="#ffffff" stroke="#ffffff" stroke-width="3" paint-order="stroke" text-anchor="middle">filter</text>
<text x="561.0" y="54.0" font-size="11" fill="#555" text-anchor="middle">filter</text>
<path d="M610,50 L640,50" fill="none" stroke="#555" stroke-width="2" marker-end="url(#a)"/>
</svg>