<svg xmlns="http://www.w3.org/2000/svg" viewBox="0 0 780 230" font-family="'Red Hat Text', system-ui, sans-serif" role="img">
<defs><marker id="a" viewBox="0 0 10 10" refX="8.5" refY="5" markerWidth="9" markerHeight="9" orient="auto-start-reverse"><path d="M0,0 L10,5 L0,10 z" fill="#555"/></marker><marker id="am" viewBox="0 0 10 10" refX="8.5" refY="5" markerWidth="9" markerHeight="9" orient="auto-start-reverse"><path d="M0,0 L10,5 L0,10 z" fill="#b8650a"/></marker></defs>
<rect x="10" y="10" width="760" height="210" rx="12" fill="#fafafa" stroke="#ddd"/>
<text x="22" y="30" font-size="12" font-weight="700" fill="#888">Kafka</text>
<rect x="20" y="40" width="100" height="35" rx="9" fill="#fff8ef" stroke="#e8870c" stroke-width="2"/>
<text x="70.0" y="63.0" font-size="13.5" font-weight="700" fill="#111111" text-anchor="middle">Timer (5s)</text>
<rect x="20" y="130" width="130" height="45" rx="9" fill="#eef4fb" stroke="#2f6db5" stroke-width="2"/>
<text x="85.0" y="150.5" font-size="13.5" font-weight="700" fill="#111111" text-anchor="middle">Gateway (8s)</text>
<text x="85.0" y="167.5" font-size="11.5" fill="#555555" text-anchor="middle">FluentProducer</text>
<rect x="160" y="42" width="130" height="38" rx="9" fill="#ffffff" stroke="#111111" stroke-width="2"/>
<text x="225.0" y="66.5" font-size="13.5" font-weight="700" fill="#111111" text-anchor="middle">eip.orders.placed</text>
<rect x="320" y="35" width="150" height="50" rx="9" fill="#eef4fb" stroke="#2f6db5" stroke-width="2"/>
<text x="395.0" y="58.0" font-size="13.5" font-weight="700" fill="#111111" text-anchor="middle">Selective Consumer</text>
<text x="395.0" y="75.0" font-size="11.5" fill="#555555" text-anchor="middle">drop hazmat</text>
<rect x="500" y="42" width="130" height="38" rx="9" fill="#ffffff" stroke="#111111" stroke-width="2"/>
<text x="565.0" y="66.5" font-size="13.5" font-weight="700" fill="#111111" text-anchor="middle">.accepted</text>
<rect x="500" y="100" width="145" height="50" rx="9" fill="#eef4fb" stroke="#2f6db5" stroke-width="2"/>
<text x="572.5" y="123.0" font-size="13.5" font-weight="700" fill="#111111" text-anchor="middle">Channel Purger</text>
<text x="572.5" y="140.0" font-size="11.5" fill="#555555" text-anchor="middle">drop stale &gt; 10m</text>
<rect x="500" y="160" width="130" height="38" rx="9" fill="#ffffff" stroke="#111111" stroke-width="2"/>
<text x="565.0" y="184.5" font-size="13.5" font-weight="700" fill="#111111" text-anchor="middle">.clean</text>
<rect x="320" y="155" width="150" height="50" rx="9" fill="#eef4fb" stroke="#2f6db5" stroke-width="2"/>
<text x="395.0" y="178.0" font-size="13.5" font-weight="700" fill="#111111" text-anchor="middle">Messaging Mapper</text>
<text x="395.0" y="195.0" font-size="11.5" fill="#555555" text-anchor="middle">JSON → Order POJO</text>
<path d="M120,57 L160,57" fill="none" stroke="#b8650a" stroke-width="2" marker-end="url(#am)"/>
<path d="M150,155 L160,62" fill="none" stroke="#b8650a" stroke-width="2" marker-end="url(#am)"/>
<path d="M290,62 L320,62" fill="none" stroke="#555" stroke-width="2" marker-end="url(#a)"/>
<path d="M470,62 L500,62" fill="none" stroke="#555" stroke-width="2" marker-end="url(#a)"/>
<path d="M575,85 L575,100" fill="none" stroke="#555" stroke-width="2" marker-end="url(#a)"/>
<path d="M575,150 L575,160" fill="none" stroke="#555" stroke-width="2" marker-end="url(#a)"/>
<path d="M500,180 L470,180" fill="none" stroke="#555" stroke-width="2" marker-end="url(#a)"/>
<text x="491.0" y="174.0" font-size="11" fill="#ffffff" stroke="#ffffff" stroke-width="3" paint-order="stroke" text-anchor="middle">OrderService</text>
<text x="491.0" y="174.0" font-size="11" fill="#555" text-anchor="middle">OrderService</text>
</svg>