<svg xmlns="http://www.w3.org/2000/svg" viewBox="0 0 880 380" font-family="'Red Hat Text', system-ui, sans-serif" role="img">
<defs><marker id="a" viewBox="0 0 10 10" refX="8.5" refY="5" markerWidth="9" markerHeight="9" orient="auto-start-reverse"><path d="M0,0 L10,5 L0,10 z" fill="#555"/></marker><marker id="am" viewBox="0 0 10 10" refX="8.5" refY="5" markerWidth="9" markerHeight="9" orient="auto-start-reverse"><path d="M0,0 L10,5 L0,10 z" fill="#b8650a"/></marker></defs>
<rect x="10" y="10" width="540" height="160" rx="12" fill="#fafafa" stroke="#ddd"/>
<text x="22" y="30" font-size="12" font-weight="700" fill="#555555">Idempotent + Service Activator</text>
<rect x="10" y="180" width="540" height="190" rx="12" fill="#fafafa" stroke="#ddd"/>
<text x="22" y="200" font-size="12" font-weight="700" fill="#555555">Transactional Client / Outbox</text>
<rect x="560" y="10" width="310" height="160" rx="12" fill="#fafafa" stroke="#ddd"/>
<text x="572" y="30" font-size="12" font-weight="700" fill="#555555">Durable Subscriber</text>
<rect x="30" y="40" width="100" height="35" rx="9" fill="#fff8ef" stroke="#e8870c" stroke-width="2"/>
<text x="80.0" y="63.0" font-size="13.5" font-weight="700" fill="#111111" text-anchor="middle">Timer (5s)</text>
<rect x="160" y="42" width="130" height="38" rx="9" fill="#ffffff" stroke="#111111" stroke-width="2"/>
<text x="225.0" y="66.5" font-size="13.5" font-weight="700" fill="#111111" text-anchor="middle">eip.orders.placed</text>
<rect x="160" y="100" width="140" height="45" rx="9" fill="#eef4fb" stroke="#2f6db5" stroke-width="2"/>
<text x="230.0" y="120.5" font-size="13.5" font-weight="700" fill="#111111" text-anchor="middle">Idempotent Rcvr</text>
<text x="230.0" y="137.5" font-size="11.5" fill="#555555" text-anchor="middle">JDBC dedup</text>
<rect x="330" y="105" width="130" height="38" rx="9" fill="#ffffff" stroke="#111111" stroke-width="2"/>
<text x="395.0" y="129.5" font-size="13.5" font-weight="700" fill="#111111" text-anchor="middle">.deduplicated</text>
<rect x="330" y="40" width="155" height="50" rx="9" fill="#eef4fb" stroke="#2f6db5" stroke-width="2"/>
<text x="407.5" y="63.0" font-size="13.5" font-weight="700" fill="#111111" text-anchor="middle">Service Activator</text>
<text x="407.5" y="80.0" font-size="11.5" fill="#555555" text-anchor="middle">.bean(InventorySvc)</text>
<rect x="330" y="150" width="130" height="38" rx="9" fill="#f4f4f4" stroke="#666666" stroke-width="1.5"/>
<text x="395.0" y="174.5" font-size="13.5" font-weight="700" fill="#111111" text-anchor="middle">.inventory-checked</text>
<rect x="30" y="220" width="130" height="38" rx="9" fill="#ffffff" stroke="#111111" stroke-width="2"/>
<text x="95.0" y="237.0" font-size="13.5" font-weight="700" fill="#111111" text-anchor="middle">eip.payments</text>
<text x="95.0" y="254.0" font-size="11.5" fill="#555555" text-anchor="middle">.required</text>
<rect x="200" y="210" width="160" height="50" rx="9" fill="#eef4fb" stroke="#2f6db5" stroke-width="2"/>
<text x="280.0" y="233.0" font-size="13.5" font-weight="700" fill="#111111" text-anchor="middle">Transactional Client</text>
<text x="280.0" y="250.0" font-size="11.5" fill="#555555" text-anchor="middle">.transacted()</text>
<rect x="200" y="280" width="160" height="40" rx="9" fill="#ffffff" stroke="#999999" stroke-width="1.5"/>
<text x="280.0" y="298.0" font-size="13.5" font-weight="700" fill="#111111" text-anchor="middle">PostgreSQL</text>
<text x="280.0" y="315.0" font-size="11.5" fill="#555555" text-anchor="middle">payments + outbox</text>
<rect x="400" y="280" width="140" height="45" rx="9" fill="#eef4fb" stroke="#2f6db5" stroke-width="2"/>
<text x="470.0" y="300.5" font-size="13.5" font-weight="700" fill="#111111" text-anchor="middle">Outbox Publisher</text>
<text x="470.0" y="317.5" font-size="11.5" fill="#555555" text-anchor="middle">poll every 5s</text>
<rect x="400" y="340" width="130" height="38" rx="9" fill="#fff8ef" stroke="#e8870c" stroke-width="2"/>
<text x="465.0" y="364.5" font-size="13.5" font-weight="700" fill="#111111" text-anchor="middle">.payments.processed</text>
<rect x="580" y="40" width="130" height="38" rx="9" fill="#ffffff" stroke="#999999" stroke-width="1.5"/>
<text x="645.0" y="57.0" font-size="13.5" font-weight="700" fill="#111111" text-anchor="middle">pulsar:eip.orders</text>
<text x="645.0" y="74.0" font-size="11.5" fill="#555555" text-anchor="middle">.placed</text>
<rect x="580" y="100" width="170" height="50" rx="9" fill="#eef4fb" stroke="#2f6db5" stroke-width="2"/>
<text x="665.0" y="123.0" font-size="13.5" font-weight="700" fill="#111111" text-anchor="middle">Durable Subscriber</text>
<text x="665.0" y="140.0" font-size="11.5" fill="#555555" text-anchor="middle">cursor survives restart</text>
<path d="M130,57 L160,57" fill="none" stroke="#b8650a" stroke-width="2" marker-end="url(#am)"/>
<path d="M225,80 L225,100" fill="none" stroke="#555" stroke-width="2" marker-end="url(#a)"/>
<path d="M300,125 L330,125" fill="none" stroke="#555" stroke-width="2" marker-end="url(#a)"/>
<path d="M395,90 L395,105" fill="none" stroke="#555" stroke-width="2" marker-end="url(#a)"/>
<path d="M395,148 L395,155" fill="none" stroke="#555" stroke-width="2" marker-end="url(#a)"/>
<path d="M160,245 L200,245" fill="none" stroke="#b8650a" stroke-width="2" marker-end="url(#am)"/>
<path d="M280,260 L280,280" fill="none" stroke="#555" stroke-width="2" marker-end="url(#a)"/>
<path d="M360,300 L400,300" fill="none" stroke="#555" stroke-width="2" marker-end="url(#a)"/>
<path d="M470,325 L470,340" fill="none" stroke="#555" stroke-width="2" marker-end="url(#a)"/>
<path d="M665,80 L665,100" fill="none" stroke="#555" stroke-width="2" marker-end="url(#a)"/>
</svg>