<svg xmlns="http://www.w3.org/2000/svg" viewBox="0 0 880 350" font-family="'Red Hat Text', system-ui, sans-serif" role="img">
<defs><marker id="a" viewBox="0 0 10 10" refX="8.5" refY="5" markerWidth="9" markerHeight="9" orient="auto-start-reverse"><path d="M0,0 L10,5 L0,10 z" fill="#555"/></marker><marker id="am" viewBox="0 0 10 10" refX="8.5" refY="5" markerWidth="9" markerHeight="9" orient="auto-start-reverse"><path d="M0,0 L10,5 L0,10 z" fill="#b8650a"/></marker></defs>
<rect x="10" y="10" width="860" height="330" rx="12" fill="#fafafa" stroke="#ddd"/>
<text x="22" y="30" font-size="12" font-weight="700" fill="#555555">Loan Broker Pipeline</text>
<rect x="20" y="40" width="130" height="40" rx="9" fill="#fff8ef" stroke="#e8870c" stroke-width="2"/>
<text x="85.0" y="65.5" font-size="13.5" font-weight="700" fill="#111111" text-anchor="middle">POST /api/loans</text>
<rect x="20" y="110" width="100" height="35" rx="9" fill="#fff8ef" stroke="#e8870c" stroke-width="2"/>
<text x="70.0" y="133.0" font-size="13.5" font-weight="700" fill="#111111" text-anchor="middle">Timer (8s)</text>
<rect x="180" y="50" width="130" height="45" rx="9" fill="#eef4fb" stroke="#2f6db5" stroke-width="2"/>
<text x="245.0" y="70.5" font-size="13.5" font-weight="700" fill="#111111" text-anchor="middle">Gateway</text>
<text x="245.0" y="87.5" font-size="11.5" fill="#555555" text-anchor="middle">assign requestId</text>
<rect x="340" y="55" width="130" height="38" rx="9" fill="#ffffff" stroke="#111111" stroke-width="2"/>
<text x="405.0" y="79.5" font-size="13.5" font-weight="700" fill="#111111" text-anchor="middle">loan.requests</text>
<rect x="340" y="120" width="145" height="50" rx="9" fill="#eef4fb" stroke="#2f6db5" stroke-width="2"/>
<text x="412.5" y="143.0" font-size="13.5" font-weight="700" fill="#111111" text-anchor="middle">Credit Enricher</text>
<text x="412.5" y="160.0" font-size="11.5" fill="#555555" text-anchor="middle">creditHistory, DTI</text>
<rect x="340" y="195" width="130" height="38" rx="9" fill="#ffffff" stroke="#111111" stroke-width="2"/>
<text x="405.0" y="219.5" font-size="13.5" font-weight="700" fill="#111111" text-anchor="middle">loan.enriched</text>
<rect x="340" y="260" width="140" height="50" rx="9" fill="#eef4fb" stroke="#2f6db5" stroke-width="2"/>
<text x="410.0" y="283.0" font-size="13.5" font-weight="700" fill="#111111" text-anchor="middle">Recipient List</text>
<text x="410.0" y="300.0" font-size="11.5" fill="#555555" text-anchor="middle">eligible banks</text>
<rect x="530" y="200" width="110" height="40" rx="9" fill="#f4f4f4" stroke="#666666" stroke-width="1.5"/>
<text x="585.0" y="218.0" font-size="13.5" font-weight="700" fill="#111111" text-anchor="middle">Bank A</text>
<text x="585.0" y="235.0" font-size="11.5" fill="#555555" text-anchor="middle">Universal 5.5%</text>
<rect x="530" y="255" width="110" height="40" rx="9" fill="#f4f4f4" stroke="#666666" stroke-width="1.5"/>
<text x="585.0" y="273.0" font-size="13.5" font-weight="700" fill="#111111" text-anchor="middle">Bank B</text>
<text x="585.0" y="290.0" font-size="11.5" fill="#555555" text-anchor="middle">Community 4.8%</text>
<rect x="530" y="310" width="110" height="40" rx="9" fill="#f4f4f4" stroke="#666666" stroke-width="1.5"/>
<text x="585.0" y="328.0" font-size="13.5" font-weight="700" fill="#111111" text-anchor="middle">Bank C</text>
<text x="585.0" y="345.0" font-size="11.5" fill="#555555" text-anchor="middle">Prime 3.9%</text>
<rect x="680" y="260" width="130" height="38" rx="9" fill="#ffffff" stroke="#111111" stroke-width="2"/>
<text x="745.0" y="284.5" font-size="13.5" font-weight="700" fill="#111111" text-anchor="middle">loan.bank.reply</text>
<rect x="680" y="180" width="140" height="50" rx="9" fill="#eef4fb" stroke="#2f6db5" stroke-width="2"/>
<text x="750.0" y="203.0" font-size="13.5" font-weight="700" fill="#111111" text-anchor="middle">Aggregator</text>
<text x="750.0" y="220.0" font-size="11.5" fill="#555555" text-anchor="middle">BestOfferStrategy</text>
<rect x="680" y="120" width="130" height="38" rx="9" fill="#fff8ef" stroke="#e8870c" stroke-width="2"/>
<text x="745.0" y="144.5" font-size="13.5" font-weight="700" fill="#111111" text-anchor="middle">loan.results</text>
<path d="M150,62 L180,72" fill="none" stroke="#b8650a" stroke-width="2" marker-end="url(#am)"/>
<path d="M120,128 L180,80" fill="none" stroke="#b8650a" stroke-width="2" marker-end="url(#am)"/>
<path d="M310,75 L340,75" fill="none" stroke="#555" stroke-width="2" marker-end="url(#a)"/>
<path d="M410,100 L410,120" fill="none" stroke="#555" stroke-width="2" marker-end="url(#a)"/>
<path d="M410,170 L410,195" fill="none" stroke="#555" stroke-width="2" marker-end="url(#a)"/>
<path d="M410,233 L410,260" fill="none" stroke="#555" stroke-width="2" marker-end="url(#a)"/>
<path d="M480,275 L530,225" fill="none" stroke="#555" stroke-width="2" marker-end="url(#a)"/>
<path d="M480,285 L530,275" fill="none" stroke="#555" stroke-width="2" marker-end="url(#a)"/>
<path d="M480,295 L530,330" fill="none" stroke="#555" stroke-width="2" marker-end="url(#a)"/>
<path d="M640,220 L680,280" fill="none" stroke="#555" stroke-width="2" marker-end="url(#a)"/>
<path d="M640,275 L680,280" fill="none" stroke="#555" stroke-width="2" marker-end="url(#a)"/>
<path d="M640,330 L680,290" fill="none" stroke="#555" stroke-width="2" marker-end="url(#a)"/>
<path d="M750,230 L750,200" fill="none" stroke="#555" stroke-width="2" marker-end="url(#a)"/>
<path d="M750,180 L750,150" fill="none" stroke="#555" stroke-width="2" marker-end="url(#a)"/>
</svg>